<?xml version="1.0" encoding="UTF-8"?>
<svg version="1.1" xmlns="http://www.w3.org/2000/svg" width="1536" height="1024">
<path d="M0 0 C506.88 0 1013.76 0 1536 0 C1536 337.92 1536 675.84 1536 1024 C1029.12 1024 522.24 1024 0 1024 C0 686.08 0 348.16 0 0 Z " fill="#FEFEFE" transform="translate(0,0)"/>
<path d="M0 0 C1.04611198 -0.00642014 1.04611198 -0.00642014 2.11335754 -0.01296997 C4.34777389 -0.02288324 6.58197227 -0.02303735 8.81640625 -0.01953125 C9.58134399 -0.01859467 10.34628174 -0.01765808 11.13439941 -0.01669312 C22.00623509 0.01224409 32.66541222 0.13689008 43.37890625 2.16796875 C44.57290039 2.37800537 44.57290039 2.37800537 45.79101562 2.59228516 C71.2311182 7.18696235 95.79074634 17.04000698 115.37890625 34.16796875 C116.82716797 35.41707031 116.82716797 35.41707031 118.3046875 36.69140625 C138.59652089 54.51154921 154.64261567 80.06867301 156.62255859 107.54980469 C157.36922188 123.41587672 156.86509829 138.18120285 151.37890625 153.16796875 C151.00636719 154.24175781 150.63382812 155.31554687 150.25 156.421875 C145.58507718 168.62869393 138.61891019 179.70992949 130.87890625 190.16796875 C115.11223232 211.50150018 104.2148485 235.83437817 104.19140625 262.79296875 C104.17916016 263.51097656 104.16691406 264.22898437 104.15429688 264.96875 C104.11905508 278.43111571 107.77278449 291.38681561 111.07080078 304.33032227 C111.61944098 306.49223158 112.15961629 308.65613278 112.69921875 310.8203125 C113.02164551 312.08866943 113.34407227 313.35702637 113.67626953 314.66381836 C114.33441123 317.9460657 114.51668685 320.83335775 114.37890625 324.16796875 C89.67642856 336.31612295 64.59535592 343.28024234 37.37890625 347.16796875 C36.15220215 347.34521484 34.92549805 347.52246094 33.66162109 347.70507812 C28.93909327 348.28403279 24.24560588 348.34806301 19.4921875 348.37109375 C18.5544902 348.37679382 17.61679291 348.3824939 16.65068054 348.3883667 C14.66809194 348.39777419 12.685488 348.40433368 10.70288086 348.40820312 C7.74498111 348.41779502 4.78781191 348.44881143 1.83007812 348.48046875 C-11.19123465 348.55170295 -23.81768247 347.63193314 -36.62109375 345.16796875 C-38.26866852 343.52039398 -37.78845169 341.57462259 -37.83203125 339.3046875 C-37.85821533 338.28189697 -37.88439941 337.25910645 -37.91137695 336.20532227 C-37.9393335 335.09987061 -37.96729004 333.99441895 -37.99609375 332.85546875 C-37.98423599 308.84747856 -37.98423599 308.84747856 -47.12109375 287.484375 C-50.63405156 284.40138859 -54.50438324 284.97686374 -58.93359375 284.98046875 C-60.16299683 284.97950195 -60.16299683 284.97950195 -61.41723633 284.97851562 C-65.99132115 285.01793581 -70.30138752 285.31607052 -74.80859375 286.16796875 C-87.27187063 288.3589652 -104.41413523 290.05256156 -115.62109375 283.16796875 C-118.90653865 280.48597291 -121.06684097 278.0945021 -122.62109375 274.16796875 C-122.8515625 271.07421875 -122.8515625 271.07421875 -122.80859375 267.66796875 C-122.80214844 266.54390625 -122.79570312 265.41984375 -122.7890625 264.26171875 C-122.64902479 261.68241952 -122.3040539 259.63076444 -121.62109375 257.16796875 C-121.02106401 253.12726217 -120.68563149 249.6216171 -122.9609375 246.0859375 C-124.06396767 244.77008739 -125.16942368 243.45626681 -126.27734375 242.14453125 C-128.60824684 238.71593543 -128.1520115 236.21621659 -127.62109375 232.16796875 C-126.62109375 229.16796875 -126.62109375 229.16796875 -125.62109375 227.16796875 C-126.26046875 226.85859375 -126.89984375 226.54921875 -127.55859375 226.23046875 C-129.62109375 225.16796875 -129.62109375 225.16796875 -130.62109375 224.16796875 C-130.96157039 218.65650306 -130.04521931 213.98914859 -128.62109375 208.73046875 C-128.4303125 207.99892578 -128.23953125 207.26738281 -128.04296875 206.51367188 C-127.57658972 204.72977209 -127.09991097 202.9485703 -126.62109375 201.16796875 C-127.68328125 200.93722656 -128.74546875 200.70648437 -129.83984375 200.46875 C-147.80634907 196.39008577 -147.80634907 196.39008577 -152.62109375 189.16796875 C-153.58624592 182.41190353 -151.21508204 177.6999628 -147.62109375 172.16796875 C-145.05701224 168.81662909 -142.346478 165.58735437 -139.64404297 162.34741211 C-134.37103569 155.98526794 -129.59518514 149.43068197 -125.62109375 142.16796875 C-125.24742676 141.50635742 -124.87375977 140.84474609 -124.48876953 140.16308594 C-120.13817208 131.24064188 -121.37111536 121.43073376 -121.703125 111.78466797 C-122.52411646 85.56155273 -114.62445752 61.8410215 -97.24609375 41.91796875 C-72.0918515 15.37350931 -36.71615341 0.21588179 0 0 Z " fill="#07683C" transform="translate(360.62109375,332.83203125)"/>
<path d="M0 0 C0.83337891 0.40589355 1.66675781 0.81178711 2.52539062 1.22998047 C48.7130543 23.87216172 86.49284118 62.20345095 104 111 C120.03075294 158.75251057 117.4614185 210.69084744 95.1875 256 C86.56157989 273.04528083 76.19107574 288.13041204 63 302 C62.47841309 302.55413574 61.95682617 303.10827148 61.41943359 303.67919922 C44.36641811 321.69062999 24.36339631 336.22583859 2 347 C1.83918945 346.30140869 1.67837891 345.60281738 1.51269531 344.88305664 C1.03171714 342.79430085 0.55049426 340.7056014 0.0690918 338.61694336 C-0.47948976 336.23637739 -1.02749892 333.85567944 -1.57495117 331.47485352 C-2.95314564 325.49156193 -4.35128477 319.51475089 -5.80273438 313.54882812 C-8.76827355 301.2662693 -8.76827355 301.2662693 -9 295 C-9.07734375 293.04900391 -9.07734375 293.04900391 -9.15625 291.05859375 C-9.952725 260.87847062 1.58534793 235.37560899 18.69921875 211.16796875 C28.72607277 196.95872489 36.64231529 182.94071806 41 166 C41.18401367 165.35353516 41.36802734 164.70707031 41.55761719 164.04101562 C43.41077129 156.92569665 43.38552211 149.81698444 43.375 142.5 C43.37412384 141.83425964 43.37324768 141.16851929 43.37234497 140.48260498 C43.29780472 123.30946041 39.65722975 109.31840042 32 94 C31.70109863 93.39559082 31.40219727 92.79118164 31.09423828 92.16845703 C16.2951173 62.83434217 -12.16071023 43.00668116 -42.60546875 32.37890625 C-51.22622943 29.56237973 -60.10223328 27.70071883 -69 26 C-70.03568115 25.79866455 -70.03568115 25.79866455 -71.09228516 25.59326172 C-109.62379573 18.53791688 -155.05401352 24.38525873 -187.75 46.6796875 C-192.71599813 50.22512367 -197.43122527 53.9562087 -202 58 C-202.76828125 58.67289062 -203.5365625 59.34578125 -204.328125 60.0390625 C-220.28668432 74.93743781 -230.07440786 96.55988256 -233 118 C-233.03559248 120.78697799 -233.02303182 123.5442032 -232.95703125 126.328125 C-232.93463405 127.9492064 -232.91317963 129.57030104 -232.89257812 131.19140625 C-232.85563124 133.7170069 -232.81269058 136.24191418 -232.75317383 138.76708984 C-232.34967431 156.77127368 -232.34967431 156.77127368 -237 165 C-237.495 165.94230469 -237.99 166.88460937 -238.5 167.85546875 C-242.48281616 174.04750324 -246.9232218 179.73014609 -251.5715332 185.42553711 C-261.5128324 197.31282217 -261.5128324 197.31282217 -264 212 C-258.17378101 219.76829198 -247.856436 221.37636407 -239 224 C-239.3750508 228.35256329 -239.82955381 232.41847769 -241.0625 236.625 C-242.08910678 240.3207844 -242.44006003 243.18614641 -242 247 C-240.13875077 248.98239527 -240.13875077 248.98239527 -238 250 C-238.165 250.66 -238.33 251.32 -238.5 252 C-239.85603832 258.78125593 -239.85603832 258.78125593 -237.66015625 264.9765625 C-236.83837891 265.94722656 -236.83837891 265.94722656 -236 266.9375 C-232.88296035 270.65594494 -232.40751288 273.13870188 -232.69140625 277.921875 C-233 280 -233 280 -233.51171875 281.8671875 C-234.88390935 287.86091606 -234.6068025 294.57279002 -233.125 300.5 C-229.1141908 305.21859906 -223.0079145 307.74806765 -217 309 C-213.3574411 309.22429086 -209.71132196 309.18982206 -206.0625 309.1875 C-205.0206958 309.18814453 -203.9788916 309.18878906 -202.90551758 309.18945312 C-196.52978755 309.14571907 -190.53555256 308.62133419 -184.26171875 307.45703125 C-179.99891232 306.85972783 -175.8002481 306.73220023 -171.5 306.6875 C-170.73324951 306.67009766 -169.96649902 306.65269531 -169.17651367 306.63476562 C-164.60289369 306.63881173 -161.57877217 307.07977513 -158 310 C-149.49896136 321.72192905 -149.83468008 341.19049424 -149.9375 355 C-149.94201172 356.15628906 -149.94652344 357.31257813 -149.95117188 358.50390625 C-149.96287471 361.33599225 -149.97927004 364.16796811 -150 367 C-157.39254163 366.43668524 -164.05665452 364.76308261 -171.125 362.5625 C-172.82873779 362.03233276 -172.82873779 362.03233276 -174.56689453 361.49145508 C-229.49396574 343.90425143 -276.46643186 307.51591361 -303 256 C-320.64025181 220.16356116 -327.26624514 175.16265418 -318 136 C-317.83371094 135.2462207 -317.66742188 134.49244141 -317.49609375 133.71582031 C-311.97242312 108.95136364 -301.21319238 85.30999795 -286 65 C-284.84177734 63.39705078 -284.84177734 63.39705078 -283.66015625 61.76171875 C-272.14590011 46.18414102 -257.80042885 32.19515088 -242 21 C-241.34805664 20.53078125 -240.69611328 20.0615625 -240.02441406 19.578125 C-171.61615694 -29.26196463 -75.52548243 -37.45374376 0 0 Z " fill="#FABE29" transform="translate(473,310)"/>
<path d="M0 0 C12.21 0 24.42 0 37 0 C37 12.21 37 24.42 37 37 C49.21 37 61.42 37 74 37 C74 48.88 74 60.76 74 73 C61.79 73 49.58 73 37 73 C37 85.21 37 97.42 37 110 C24.79 110 12.58 110 0 110 C0 97.79 0 85.58 0 73 C-12.21 73 -24.42 73 -37 73 C-37 61.12 -37 49.24 -37 37 C-24.79 37 -12.58 37 0 37 C0 24.79 0 12.58 0 0 Z " fill="#FDFEFD" transform="translate(338,434)"/>
<path d="M0 0 C48.10759494 0 48.10759494 0 60.03515625 10.8515625 C69.0535609 20.46353518 70.39688084 30.82791935 70.2109375 43.50390625 C69.84034361 54.55995731 65.2336144 63.23209845 57.25 70.8125 C41.51058262 83.83301611 18.40464072 79 0 79 C0 52.93 0 26.86 0 0 Z " fill="#A31919" transform="translate(646,315)"/>
<path d="M0 0 C6.55875 -0.0825 13.1175 -0.165 19.875 -0.25 C22.94917236 -0.30462402 22.94917236 -0.30462402 26.08544922 -0.36035156 C45.10788471 -0.56040143 45.10788471 -0.56040143 53.40234375 5.859375 C58.68304398 12.36283279 61.61211911 18.18617812 61.2890625 26.703125 C60.48135581 33.12111874 58.17349503 39.03692483 54 44 C52.64676879 44.93303227 51.26254318 45.82221303 49.85546875 46.671875 C49.13383545 47.11112305 48.41220215 47.55037109 47.66870117 48.00292969 C47.11802979 48.33196289 46.5673584 48.66099609 46 49 C46.4031543 49.66008057 46.80630859 50.32016113 47.22167969 51.00024414 C49.06547554 54.02037327 50.90774928 57.04142813 52.75 60.0625 C53.38421875 61.10083984 54.0184375 62.13917969 54.671875 63.20898438 C57.85608242 68.43307467 61.00371746 73.66570912 64 79 C57.63104084 80.46662599 51.16832043 81.74041295 45 79 C38.51343711 72.37073556 34.80184378 63.34427661 31 55 C30.34 53.68 29.68 52.36 29 51 C24.71 50.67 20.42 50.34 16 50 C16 59.57 16 69.14 16 79 C10.72 79 5.44 79 0 79 C0 52.93 0 26.86 0 0 Z " fill="#A31A1A" transform="translate(1187,315)"/>
<path d="M0 0 C6.39375 -0.0825 12.7875 -0.165 19.375 -0.25 C21.37224121 -0.28641602 23.36948242 -0.32283203 25.42724609 -0.36035156 C35.45532155 -0.46851824 44.13447281 -0.53982267 52.40234375 5.859375 C57.92691166 12.66316856 60.64254942 18.59073209 60.35546875 27.4765625 C59.47033693 33.76002574 56.40019831 39.46646235 52 44 C47.65517241 47 47.65517241 47 45 47 C49.12685392 54.90545013 53.68932079 62.49448235 58.3918457 70.06787109 C58.8580835 70.82148926 59.32432129 71.57510742 59.8046875 72.3515625 C60.22733887 73.03041504 60.64999023 73.70926758 61.08544922 74.40869141 C62 76 62 76 62 77 C56.03377267 77.99437122 49.84432232 79.00954973 44 77 C39.0176339 72.67718827 36.5621128 65.93488351 34 60 C32.21803928 56.07599324 30.69776453 53.4531386 28 50 C24.04 49.67 20.08 49.34 16 49 C16 58.24 16 67.48 16 77 C10.72 77 5.44 77 0 77 C0 51.59 0 26.18 0 0 Z " fill="#A11818" transform="translate(1268,427)"/>
<path d="M0 0 C14 0 14 0 17.7890625 3.33984375 C18.78298511 4.84132617 19.72679729 6.3768708 20.625 7.9375 C21.69627034 9.5978784 22.76789333 11.25802933 23.83984375 12.91796875 C24.36304199 13.76665527 24.88624023 14.6153418 25.42529297 15.48974609 C27.85232721 19.35870207 30.52290139 23.04271352 33.1875 26.75 C34.07818446 28.01466718 34.96749336 29.2803042 35.85546875 30.546875 C40.21165176 36.71587951 44.61047981 42.85467173 49 49 C49.33 32.83 49.66 16.66 50 0 C54.95 0 59.9 0 65 0 C65 25.41 65 50.82 65 77 C50 77 50 77 46.83984375 74.60546875 C46.21207031 73.47753906 45.58429687 72.34960938 44.9375 71.1875 C44.1591549 69.89849196 43.37633903 68.61217639 42.58984375 67.328125 C42.18362793 66.63138672 41.77741211 65.93464844 41.35888672 65.21679688 C38.83739795 61.1034088 35.89040047 57.29591379 33 53.4375 C32.454646 52.69588623 31.90929199 51.95427246 31.34741211 51.19018555 C26.33445643 44.37524962 21.16178193 37.71031651 16 31 C15.67 46.18 15.34 61.36 15 77 C10.05 77 5.1 77 0 77 C0 51.59 0 26.18 0 0 Z " fill="#A21819" transform="translate(683,535)"/>
<path d="M0 0 C5.61 0 11.22 0 17 0 C21.45565099 10.52604372 25.61058054 21.15907109 29.75 31.8125 C31.17145483 35.46761145 32.59345813 39.1225093 34.015625 42.77734375 C34.36125488 43.66601135 34.70688477 44.55467896 35.06298828 45.47027588 C37.04061102 50.55087949 39.03371804 55.62477763 41.046875 60.69140625 C41.47129883 61.76221436 41.89572266 62.83302246 42.33300781 63.9362793 C43.08864598 65.83912796 43.84816386 67.74044243 44.61230469 69.63989258 C44.93618164 70.4573999 45.26005859 71.27490723 45.59375 72.1171875 C45.86896484 72.80409668 46.14417969 73.49100586 46.42773438 74.19873047 C47 76 47 76 47 79 C41.39 79 35.78 79 30 79 C28.02 73.72 26.04 68.44 24 63 C13.77 62.67 3.54 62.34 -7 62 C-7.99 65.3 -8.98 68.6 -10 72 C-10.99 74.31 -11.98 76.62 -13 79 C-18.28 79 -23.56 79 -29 79 C-28.19739696 74.18438177 -27.23053348 70.54427151 -25.53149414 66.04833984 C-25.28096786 65.38089249 -25.03044159 64.71344513 -24.77232361 64.02577209 C-23.94860515 61.83543914 -23.11703762 59.64818182 -22.28515625 57.4609375 C-21.70802962 55.93225715 -21.1313302 54.40341545 -20.55503845 52.87442017 C-19.34874537 49.67736034 -18.13882849 46.48170519 -16.92602539 43.28710938 C-15.37286177 39.19575719 -13.82642244 35.10190595 -12.28238773 31.00710106 C-11.0926233 27.85284603 -9.90050326 24.69948584 -8.70754814 21.54643631 C-8.13657258 20.03714567 -7.56604909 18.52768393 -6.99598885 17.01804733 C-6.19883501 14.90880985 -5.39880761 12.80068574 -4.59790039 10.69287109 C-4.14347061 9.49407318 -3.68904083 8.29527527 -3.22084045 7.06015015 C-2 4 -2 4 0 0 Z " fill="#A21919" transform="translate(1124,315)"/>
<path d="M0 0 C5.94 0 11.88 0 18 0 C22.8373767 12.6164986 27.67101045 25.23441954 32.49865723 37.85464478 C34.59795019 43.34129884 36.70094655 48.82648188 38.81187439 54.30867004 C39.60963299 56.38195939 40.4052934 58.45603801 41.19995117 60.53051758 C42.12984852 62.95761815 43.06343674 65.38330879 44.0012207 67.80737305 C44.4055835 68.86609619 44.80994629 69.92481934 45.2265625 71.015625 C45.57283691 71.91571289 45.91911133 72.81580078 46.27587891 73.74316406 C47 76 47 76 47 79 C41.72 79 36.44 79 31 79 C26.125 67.625 26.125 67.625 25 62 C9.655 62.495 9.655 62.495 -6 63 C-7.98 68.28 -9.96 73.56 -12 79 C-17.61 79 -23.22 79 -29 79 C-26.91873163 71.77182229 -24.49804514 64.77166138 -21.796875 57.75390625 C-21.3959967 56.70331528 -20.99511841 55.6527243 -20.58209229 54.57029724 C-19.3080653 51.23307786 -18.02928987 47.89770501 -16.75 44.5625 C-15.0764931 40.18942492 -13.40500375 35.81558159 -11.734375 31.44140625 C-11.33077759 30.38547272 -10.92718018 29.32953918 -10.51135254 28.24160767 C-6.93026082 18.85539407 -3.45116491 9.43473868 0 0 Z " fill="#A21919" transform="translate(833,315)"/>
<path d="M0 0 C5.28 0 10.56 0 16 0 C16 9.9 16 19.8 16 30 C27.22 30 38.44 30 50 30 C50 20.1 50 10.2 50 0 C55.28 0 60.56 0 66 0 C66 25.41 66 50.82 66 77 C60.72 77 55.44 77 50 77 C50 66.44 50 55.88 50 45 C38.78 45 27.56 45 16 45 C16 55.56 16 66.12 16 77 C10.72 77 5.44 77 0 77 C0 51.59 0 26.18 0 0 Z " fill="#A41A1B" transform="translate(646,427)"/>
<path d="M0 0 C26.57340383 -0.7665405 51.23593545 6.90868782 72 24 C72.86367188 24.71027344 73.72734375 25.42054688 74.6171875 26.15234375 C95.69311097 44.30652705 109.27279889 70.10587426 111.8828125 97.82421875 C112.10160196 101.88640967 112.05728191 105.93298445 112 110 C105.73 110 99.46 110 93 110 C92.938125 107.73125 92.87625 105.4625 92.8125 103.125 C91.55371399 79.16826236 80.38783895 57.51909218 63.125 41.125 C45.03372894 25.74456609 23.31910498 18.98185705 0 18 C0 12.06 0 6.12 0 0 Z " fill="#C0271F" transform="translate(373,362)"/>
<path d="M0 0 C5.28 0 10.56 0 16 0 C16 9.9 16 19.8 16 30 C26.89 30 37.78 30 49 30 C49 20.1 49 10.2 49 0 C54.28 0 59.56 0 65 0 C65 25.41 65 50.82 65 77 C59.72 77 54.44 77 49 77 C49 66.44 49 55.88 49 45 C38.11 45 27.22 45 16 45 C16 55.56 16 66.12 16 77 C10.72 77 5.44 77 0 77 C0 51.59 0 26.18 0 0 Z " fill="#A21818" transform="translate(1012,427)"/>
<path d="M0 0 C5.94 0 11.88 0 18 0 C25.01569464 17.65936835 31.94495133 35.35021583 38.72802734 53.10040283 C39.45167175 54.99353448 40.17644621 56.88623456 40.90234375 58.77850342 C41.92405191 61.44347057 42.94124177 64.11011592 43.95703125 66.77734375 C44.2657869 67.58107925 44.57454254 68.38481476 44.89265442 69.21290588 C47 74.77064879 47 74.77064879 47 77 C41.72 77 36.44 77 31 77 C25 63.6 25 63.6 25 60 C14.77 60 4.54 60 -6 60 C-6.99 63.3 -7.98 66.6 -9 70 C-9.99 72.31 -10.98 74.62 -12 77 C-17.28 77 -22.56 77 -28 77 C-25.26136191 67.12675492 -21.5647681 57.63431218 -17.9375 48.0625 C-16.92718891 45.38519557 -15.9181021 42.70743184 -14.90910339 40.02963257 C-14.23646954 38.2446826 -13.56346663 36.45987166 -12.89009094 34.67520142 C-9.91766668 26.79445952 -6.98195337 18.90049581 -4.0625 11 C-3.43492798 9.30242554 -3.43492798 9.30242554 -2.79467773 7.57055664 C-1.86237887 5.04731092 -0.93105443 2.52370518 0 0 Z " fill="#A21919" transform="translate(829,427)"/>
<path d="M0 0 C5.61 0 11.22 0 17 0 C21.45566462 10.52607592 25.60983869 21.15933474 29.75 31.8125 C30.81857488 34.55820156 31.88754588 37.30374869 32.95654297 40.04928589 C33.65886441 41.85319397 34.3610147 43.65716869 35.06298828 45.46121216 C37.04930374 50.56468211 39.0430415 55.66510118 41.046875 60.76171875 C41.47129883 61.84155029 41.89572266 62.92138184 42.33300781 64.03393555 C43.09147948 65.96169125 43.8511771 67.88896521 44.61230469 69.81567383 C47 75.89004198 47 75.89004198 47 77 C41.39 77 35.78 77 30 77 C29.01 74.56625 28.02 72.1325 27 69.625 C26.68675781 68.86010254 26.37351562 68.09520508 26.05078125 67.30712891 C24 62.22222222 24 62.22222222 24 60 C14.1 60 4.2 60 -6 60 C-6.99 62.97 -7.98 65.94 -9 69 C-9.96788417 71.68060101 -10.98331484 74.33725314 -12 77 C-17.61 77 -23.22 77 -29 77 C-23.06732222 60.71905474 -17.07590933 44.46091613 -10.99978638 28.23291016 C-10.33620422 26.46049499 -9.67317429 24.68787297 -9.01071167 22.91503906 C-8.0714274 20.40232138 -7.12982374 17.89048541 -6.1875 15.37890625 C-5.90975235 14.63520279 -5.6320047 13.89149933 -5.34584045 13.1252594 C-5.08089279 12.42078171 -4.81594513 11.71630402 -4.54296875 10.99047852 C-4.31633545 10.38591324 -4.08970215 9.78134796 -3.85620117 9.15846252 C-2.63484728 6.0794588 -1.30481683 3.0445726 0 0 Z " fill="#A2191A" transform="translate(1206,427)"/>
<path d="M0 0 C5.61 0 11.22 0 17 0 C20.25047304 7.73830352 23.40745621 15.49967358 26.43359375 23.328125 C26.83401382 24.36080505 27.2344339 25.39348511 27.64698792 26.4574585 C28.48714153 28.62516795 29.32656561 30.7931603 30.1652832 32.96142578 C31.42933607 36.22889691 32.69592348 39.49537669 33.96289062 42.76171875 C38.37613615 54.1500276 42.73887991 65.55386929 47 77 C41.39 77 35.78 77 30 77 C25 65.5 25 65.5 25 61 C9.655 61.495 9.655 61.495 -6 62 C-7.65 66.62 -9.3 71.24 -11 76 C-12 77 -12 77 -15.59765625 77.09765625 C-17.08596867 77.0909822 -18.57426432 77.07902183 -20.0625 77.0625 C-20.82111328 77.05798828 -21.57972656 77.05347656 -22.36132812 77.04882812 C-24.24091871 77.0370068 -26.12046899 77.01907078 -28 77 C-26.09164052 70.38132206 -23.94961561 63.90672331 -21.5234375 57.4609375 C-21.19642853 56.58432968 -20.86941956 55.70772186 -20.53250122 54.80455017 C-19.48304759 51.99355029 -18.4291055 49.18425835 -17.375 46.375 C-16.65271976 44.44305528 -15.93071561 42.51100731 -15.20898438 40.57885742 C-13.45700902 35.890921 -11.7014395 31.20434221 -9.94421387 26.51837158 C-8.84079193 23.57536624 -7.73884194 20.63181175 -6.63711548 17.68817139 C-4.42961686 11.79027729 -2.21726486 5.89422908 0 0 Z " fill="#A21A1A" transform="translate(936,535)"/>
<path d="M0 0 C17.49 0 34.98 0 53 0 C53 4.95 53 9.9 53 15 C40.79 15 28.58 15 16 15 C16 20.61 16 26.22 16 32 C26.89 32 37.78 32 49 32 C49 36.62 49 41.24 49 46 C38.11 46 27.22 46 16 46 C16 51.94 16 57.88 16 64 C28.87 64 41.74 64 55 64 C55 68.95 55 73.9 55 79 C36.85 79 18.7 79 0 79 C0 52.93 0 26.86 0 0 Z " fill="#A51D1D" transform="translate(735,315)"/>
<path d="M0 0 C17.49 0 34.98 0 53 0 C53 4.95 53 9.9 53 15 C40.79 15 28.58 15 16 15 C16 20.61 16 26.22 16 32 C26.89 32 37.78 32 49 32 C49 36.62 49 41.24 49 46 C38.11 46 27.22 46 16 46 C16 51.94 16 57.88 16 64 C28.54 64 41.08 64 54 64 C54 68.95 54 73.9 54 79 C36.18 79 18.36 79 0 79 C0 52.93 0 26.86 0 0 Z " fill="#A21718" transform="translate(1268,315)"/>
<path d="M0 0 C17.16 0 34.32 0 52 0 C52 4.62 52 9.24 52 14 C40.12 14 28.24 14 16 14 C16 19.61 16 25.22 16 31 C26.89 31 37.78 31 49 31 C49 35.62 49 40.24 49 45 C38.11 45 27.22 45 16 45 C16 50.94 16 56.88 16 63 C28.54 63 41.08 63 54 63 C54 67.62 54 72.24 54 77 C36.18 77 18.36 77 0 77 C0 51.59 0 26.18 0 0 Z " fill="#A41A1B" transform="translate(733,427)"/>
<path d="M0 0 C16.83 0 33.66 0 51 0 C51 4.95 51 9.9 51 15 C39.45 15 27.9 15 16 15 C16 20.61 16 26.22 16 32 C26.56 32 37.12 32 48 32 C48 36.62 48 41.24 48 46 C37.44 46 26.88 46 16 46 C16 51.61 16 57.22 16 63 C28.21 63 40.42 63 53 63 C53 67.62 53 72.24 53 77 C35.51 77 18.02 77 0 77 C0 51.59 0 26.18 0 0 Z " fill="#A31C1C" transform="translate(1179,535)"/>
<path d="M0 0 C17.16 0 34.32 0 52 0 C52 4.62 52 9.24 52 14 C40.12 14 28.24 14 16 14 C16 19.61 16 25.22 16 31 C26.89 31 37.78 31 49 31 C49 35.62 49 40.24 49 45 C38.11 45 27.22 45 16 45 C16 50.94 16 56.88 16 63 C28.21 63 40.42 63 53 63 C53 67.62 53 72.24 53 77 C35.51 77 18.02 77 0 77 C0 51.59 0 26.18 0 0 Z " fill="#A21818" transform="translate(1347,427)"/>
<path d="M0 0 C3.64600038 2.7389179 6.81959609 5.44504035 9.29296875 9.31640625 C9.29296875 10.30640625 9.29296875 11.29640625 9.29296875 12.31640625 C7.24609375 14.17578125 7.24609375 14.17578125 4.54296875 16.06640625 C3.66125 16.700625 2.77953125 17.33484375 1.87109375 17.98828125 C-0.70703125 19.31640625 -0.70703125 19.31640625 -2.82421875 19.203125 C-4.97101433 18.19208227 -6.37200659 17.02069049 -8.08203125 15.37890625 C-13.24110651 10.8306306 -18.26433496 9.76524882 -25.05078125 9.94921875 C-30.88577732 10.75582115 -35.76271161 13.06446605 -39.6328125 17.546875 C-45.20715043 25.70217131 -46.07773705 34.02146354 -44.24609375 43.76953125 C-42.13441225 50.07973245 -38.16876953 54.82005553 -32.51953125 58.25390625 C-25.47716808 60.21653205 -18.36038056 60.28849986 -11.56640625 57.3828125 C-8.23581743 55.47262185 -5.45914318 52.97391433 -2.70703125 50.31640625 C0.3314958 51.7261733 2.88692825 53.40510853 5.54296875 55.44140625 C6.249375 55.98023438 6.95578125 56.5190625 7.68359375 57.07421875 C8.2146875 57.48414063 8.74578125 57.8940625 9.29296875 58.31640625 C7.7207466 64.25591215 3.38502193 67.38701534 -1.62890625 70.515625 C-12.43147999 76.32740967 -24.79256773 76.95267073 -36.51953125 73.69140625 C-42.11585684 71.76977638 -46.41649662 69.38060534 -50.70703125 65.31640625 C-51.2484375 64.81496094 -51.78984375 64.31351562 -52.34765625 63.796875 C-58.5029087 57.40846905 -62.23526471 48.12271498 -62.70703125 39.31640625 C-62.76890625 38.43597656 -62.83078125 37.55554688 -62.89453125 36.6484375 C-63.38902031 24.70343612 -59.75798463 14.23272122 -51.70703125 5.31640625 C-37.64319365 -7.38248351 -16.37172102 -10.18212375 0 0 Z " fill="#A21919" transform="translate(1074.70703125,319.68359375)"/>
<path d="M0 0 C3.91403339 3.24042257 5.90029706 5.79606801 8.59375 10.28515625 C4.96375 12.92515625 1.33375 15.56515625 -2.40625 18.28515625 C-6.32782972 16.32436639 -9.05790533 14.07544348 -12.40625 11.28515625 C-17.92590407 7.71288575 -25.13453655 8.55302441 -31.40625 9.28515625 C-37.96055256 11.81504501 -41.60506247 15.9824843 -44.40625 22.28515625 C-46.92122138 30.35685492 -46.1471223 39.74355769 -42.40625 47.28515625 C-39.60389107 51.81663027 -36.3130906 54.25373588 -31.40625 56.28515625 C-23.27238707 57.26866255 -15.14467911 57.41259845 -8.40625 52.28515625 C-5.98552788 50.2037897 -5.98552788 50.2037897 -4.40625 48.28515625 C0.57387761 49.79428583 3.83634942 52.84177474 7.59375 56.28515625 C6.20099077 61.54669111 2.98763534 64.36125449 -1.40625 67.28515625 C-12.95061803 72.88887406 -24.93697673 74.15318471 -37.34375 70.66015625 C-46.45647135 67.47740431 -54.05440884 61.60332329 -58.62890625 52.98046875 C-63.58952266 42.1346766 -64.30764841 29.19496935 -60.84375 17.72265625 C-56.67138751 7.197254 -49.26744129 0.09376789 -39.140625 -4.8125 C-26.23522601 -9.53131085 -11.14369498 -7.94169172 0 0 Z " fill="#A21919" transform="translate(1157.40625,432.71484375)"/>
<path d="M0 0 C17.49 0 34.98 0 53 0 C53 4.95 53 9.9 53 15 C40.79 15 28.58 15 16 15 C16 20.94 16 26.88 16 33 C26.89 33 37.78 33 49 33 C49 37.62 49 42.24 49 47 C38.11 47 27.22 47 16 47 C16 57.56 16 68.12 16 79 C10.72 79 5.44 79 0 79 C0 52.93 0 26.86 0 0 Z " fill="#A41B1C" transform="translate(896,315)"/>
<path d="M0 0 C5.61 0 11.22 0 17 0 C17.60062256 1.71622559 18.20124512 3.43245117 18.82006836 5.20068359 C20.80268743 10.86484273 22.78653148 16.52857154 24.77121639 22.19200706 C25.97472853 25.62645639 27.17774497 29.06107768 28.37963867 32.49609375 C29.53909307 35.80976018 30.69983634 39.12297248 31.86148262 42.43587112 C32.52101711 44.31788412 33.17920866 46.20036756 33.83738708 48.08285522 C34.23772659 49.22388702 34.6380661 50.36491882 35.05053711 51.54052734 C35.58015297 53.05276382 35.58015297 53.05276382 36.12046814 54.59555054 C36.93719585 56.96833555 36.93719585 56.96833555 38 59 C38.21884354 58.36408432 38.43768707 57.72816864 38.66316223 57.07298279 C40.94750628 50.43680916 43.23551792 43.80190822 45.52563477 37.16772461 C46.37911005 34.69376354 47.23165901 32.21948269 48.08325195 29.74487305 C49.30955783 26.18192831 50.53922283 22.62015805 51.76953125 19.05859375 C52.14777542 17.95728622 52.52601959 16.8559787 52.91572571 15.72129822 C53.27587265 14.68074783 53.63601959 13.64019745 54.00708008 12.56811523 C54.32018631 11.6598851 54.63329254 10.75165497 54.95588684 9.81590271 C56.18618567 6.49786982 57.60600551 3.25265381 59 0 C64.28 0 69.56 0 75 0 C73.07515604 7.43491642 70.80944773 14.53844736 68.015625 21.6875 C67.63694275 22.67008789 67.2582605 23.65267578 66.86810303 24.66503906 C65.66712092 27.77867354 64.45893312 30.88944514 63.25 34 C61.66964606 38.08247352 60.0922657 42.16609119 58.515625 46.25 C57.94249573 47.73246216 57.94249573 47.73246216 57.35778809 49.24487305 C53.80341766 58.46030184 50.38851951 67.72234229 47 77 C41.06 77 35.12 77 29 77 C23.86335515 63.76368727 18.72925043 50.52639468 13.59983826 37.28727722 C11.49838622 31.8639087 9.39511041 26.44126636 7.28662109 21.02062988 C6.12614519 18.03553048 4.96957648 15.04891839 3.8125 12.0625 C3.4098291 11.0307666 3.0071582 9.9990332 2.59228516 8.93603516 C2.23827637 8.01999512 1.88426758 7.10395508 1.51953125 6.16015625 C1.22151611 5.39324463 0.92350098 4.62633301 0.61645508 3.83618164 C0 2 0 2 0 0 Z " fill="#A2191A" transform="translate(1089,535)"/>
<path d="M0 0 C19.8 0 39.6 0 60 0 C60 4.62 60 9.24 60 14 C52.74 14 45.48 14 38 14 C38 34.79 38 55.58 38 77 C32.72 77 27.44 77 22 77 C22 56.54 22 36.08 22 15 C14.74 15 7.48 15 0 15 C0 10.05 0 5.1 0 0 Z " fill="#A31A1B" transform="translate(982,535)"/>
<path d="M0 0 C19.47 0 38.94 0 59 0 C59 4.62 59 9.24 59 14 C51.74 14 44.48 14 37 14 C37 34.79 37 55.58 37 77 C32.05 77 27.1 77 22 77 C22 56.21 22 35.42 22 14 C14.74 14 7.48 14 0 14 C0 9.38 0 4.76 0 0 Z " fill="#A21718" transform="translate(801,535)"/>
<path d="M0 0 C19.47 0 38.94 0 59 0 C59 4.62 59 9.24 59 14 C51.74 14 44.48 14 37 14 C37 34.79 37 55.58 37 77 C32.05 77 27.1 77 22 77 C22 56.21 22 35.42 22 14 C14.74 14 7.48 14 0 14 C0 9.38 0 4.76 0 0 Z " fill="#A11717" transform="translate(938,427)"/>
<path d="M0 0 C5.28 0 10.56 0 16 0 C16 20.79 16 41.58 16 63 C26.89 63 37.78 63 49 63 C49 67.62 49 72.24 49 77 C32.83 77 16.66 77 0 77 C0 51.59 0 26.18 0 0 Z " fill="#A2191A" transform="translate(891,427)"/>
<path d="M0 0 C24.43243243 0 24.43243243 0 30.75 5.3125 C37.55637958 13.44234228 38.89064299 19.53171785 38 30 C36.30310559 37.64142898 32.53038051 42.71937814 26 47 C21 49 21 49 0 49 C0 32.83 0 16.66 0 0 Z " fill="#FEFDFD" transform="translate(662,330)"/>
<path d="M0 0 C5.21188782 3.32065427 9.00696647 8.31526426 10.8515625 14.1796875 C11.73523083 22.11215207 11.39854065 29.42982553 6.8515625 36.1796875 C1.73709543 41.52663035 -4.17720126 44.20030348 -11.5234375 44.6796875 C-17.91722302 44.41466012 -23.61050605 41.77413159 -28.078125 37.20703125 C-33.69920024 30.01259284 -33.9023763 23.17310028 -33.1484375 14.1796875 C-31.48723753 7.9852129 -27.4530225 3.64255588 -22.1484375 0.1796875 C-15.31325021 -3.09271426 -6.96666325 -3.01028659 0 0 Z " fill="#29401C" transform="translate(721.1484375,665.8203125)"/>
<path d="M0 0 C22.94702099 0.72464277 42.54928229 8.86345816 58.625 25.625 C70.59484866 39.47703335 77.27736863 56.69367056 77 75 C72.05 75 67.1 75 62 75 C61.85304688 73.93523437 61.70609375 72.87046875 61.5546875 71.7734375 C58.78315177 53.24429353 52.18654179 38.78260281 37.01953125 27.0390625 C25.52019915 19.27366618 13.48157026 17.54617607 0 16 C0 10.72 0 5.44 0 0 Z " fill="#F8C028" transform="translate(373,396)"/>
<path d="M0 0 C5.28 0 10.56 0 16 0 C16 25.41 16 50.82 16 77 C10.72 77 5.44 77 0 77 C0 51.59 0 26.18 0 0 Z " fill="#A31818" transform="translate(876,535)"/>
<path d="M0 0 C24.475 0 24.475 0 30.9375 5.5 C34.28047742 9.55209384 34.34761551 12.87267119 34 18 C32.41142711 22.13028952 30.86537351 24.75558957 27 27 C26.34 27 25.68 27 25 27 C25.45439453 27.7113208 25.45439453 27.7113208 25.91796875 28.43701172 C27.28331246 30.58007621 28.64172139 32.72745138 30 34.875 C30.47695312 35.62136719 30.95390625 36.36773438 31.4453125 37.13671875 C31.89648438 37.85214844 32.34765625 38.56757812 32.8125 39.3046875 C33.23144531 39.96452637 33.65039062 40.62436523 34.08203125 41.30419922 C35 43 35 43 35 45 C31.30984402 46.13060098 28.65171443 46.34824879 25 45 C22.32176327 41.9357198 20.42964095 38.38501397 18.57666016 34.77929688 C18.19558105 34.05935547 17.81450195 33.33941406 17.421875 32.59765625 C17.09799805 31.93258057 16.77412109 31.26750488 16.44042969 30.58227539 C14.66929952 28.30895279 14.66929952 28.30895279 9 28 C9 33.61 9 39.22 9 45 C6.03 45 3.06 45 0 45 C0 30.15 0 15.3 0 0 Z " fill="#28401A" transform="translate(1013,664)"/>
<path d="M0 0 C4.95 0 9.9 0 15 0 C15 25.41 15 50.82 15 77 C10.05 77 5.1 77 0 77 C0 51.59 0 26.18 0 0 Z " fill="#A01516" transform="translate(1058,535)"/>
<path d="M0 0 C4.95 0 9.9 0 15 0 C15 25.41 15 50.82 15 77 C10.05 77 5.1 77 0 77 C0 51.59 0 26.18 0 0 Z " fill="#A11718" transform="translate(770,535)"/>
<path d="M0 0 C4.95 0 9.9 0 15 0 C15 25.41 15 50.82 15 77 C10.05 77 5.1 77 0 77 C0 51.59 0 26.18 0 0 Z " fill="#A11818" transform="translate(646,535)"/>
<path d="M0 0 C3.3 0 6.6 0 10 0 C13.65271015 8.62289178 17.1227769 17.30818182 20.50415039 26.04003906 C21.32540749 28.15829204 22.15191591 30.27445201 22.97851562 32.390625 C23.5029231 33.74206379 24.02702362 35.09362173 24.55078125 36.4453125 C25.02169189 37.65719238 25.49260254 38.86907227 25.9777832 40.11767578 C27 43 27 43 27 45 C23.7 45 20.4 45 17 45 C16.34 42.03 15.68 39.06 15 36 C8.73 36.33 2.46 36.66 -4 37 C-4.99 39.64 -5.98 42.28 -7 45 C-9.97 45 -12.94 45 -16 45 C-13.31952159 35.41995079 -9.80451177 26.18076488 -6.3125 16.875 C-5.69957623 15.23448465 -5.08694362 13.59386048 -4.47460938 11.953125 C-2.98642724 7.96748737 -1.49431106 3.98334358 0 0 Z " fill="#2C441E" transform="translate(931,664)"/>
<path d="M0 0 C3.46679688 0.04882812 3.46679688 0.04882812 6.93359375 0.09765625 C10.5863039 8.72054803 14.05637065 17.40583807 17.43774414 26.13769531 C18.25900124 28.25594829 19.08550966 30.37210826 19.91210938 32.48828125 C20.43651685 33.83972004 20.96061737 35.19127798 21.484375 36.54296875 C21.95528564 37.75484863 22.42619629 38.96672852 22.91137695 40.21533203 C23.93359375 43.09765625 23.93359375 43.09765625 23.93359375 45.09765625 C20.96359375 45.09765625 17.99359375 45.09765625 14.93359375 45.09765625 C11.93359375 39.47265625 11.93359375 39.47265625 11.93359375 36.09765625 C5.66359375 36.09765625 -0.60640625 36.09765625 -7.06640625 36.09765625 C-8.05640625 39.06765625 -9.04640625 42.03765625 -10.06640625 45.09765625 C-13.03640625 45.09765625 -16.00640625 45.09765625 -19.06640625 45.09765625 C-16.66936006 36.48381041 -13.55118173 28.20696047 -10.34082031 19.87182617 C-9.43202055 17.51077228 -8.5301131 15.14716426 -7.62890625 12.78320312 C-7.05378706 11.28239811 -6.47828073 9.78174138 -5.90234375 8.28125 C-5.63255707 7.57407333 -5.36277039 6.86689667 -5.08480835 6.13829041 C-2.76355343 0.13060271 -2.76355343 0.13060271 0 0 Z " fill="#253D19" transform="translate(1152.06640625,663.90234375)"/>
<path d="M0 0 C2.97 0 5.94 0 9 0 C9 5.94 9 11.88 9 18 C14.94 18 20.88 18 27 18 C27 12.06 27 6.12 27 0 C29.97 0 32.94 0 36 0 C36 14.85 36 29.7 36 45 C33.03 45 30.06 45 27 45 C27 39.06 27 33.12 27 27 C21.06 27 15.12 27 9 27 C9 32.94 9 38.88 9 45 C6.03 45 3.06 45 0 45 C0 30.15 0 15.3 0 0 Z " fill="#344B27" transform="translate(842,664)"/>
<path d="M0 0 C0.721875 0.00257813 1.44375 0.00515625 2.1875 0.0078125 C2.909375 0.00523437 3.63125 0.00265625 4.375 0 C6.1875 0.1328125 6.1875 0.1328125 7.1875 1.1328125 C7.29751541 3.4499528 7.34345017 5.77017798 7.36328125 8.08984375 C7.38648567 9.52670726 7.41060326 10.96355626 7.43554688 12.40039062 C7.47063398 14.6717286 7.49998357 16.94253564 7.51342773 19.21411133 C7.52892466 21.40251527 7.56914838 23.58935426 7.61328125 25.77734375 C7.62786377 27.09065674 7.64244629 28.40396973 7.6574707 29.75708008 C8.26373036 33.61832016 9.07997248 34.83898121 12.1875 37.1328125 C14.48949227 37.4760386 14.48949227 37.4760386 16.8125 37.0078125 C17.58851563 36.90210938 18.36453125 36.79640625 19.1640625 36.6875 C21.39486945 36.25544592 21.39486945 36.25544592 23.1875 34.1328125 C24.46156669 30.57426559 24.39276316 26.92679727 24.50390625 23.1796875 C24.52468735 22.51946594 24.54546844 21.85924438 24.56687927 21.17901611 C24.63200147 19.08038235 24.69108502 16.98162878 24.75 14.8828125 C24.79322079 13.45571703 24.8368362 12.02863345 24.88085938 10.6015625 C24.98764411 7.11210528 25.08901566 3.62251497 25.1875 0.1328125 C28.1575 0.1328125 31.1275 0.1328125 34.1875 0.1328125 C34.26210234 4.56189628 34.31631371 8.9906394 34.35229492 13.42016602 C34.36730722 14.92446267 34.38772353 16.42871611 34.41381836 17.93286133 C34.45053816 20.10508946 34.46730161 22.27673501 34.48046875 24.44921875 C34.4961792 25.75318604 34.51188965 27.05715332 34.52807617 28.40063477 C34.09487121 33.14787798 32.88258697 37.10889719 29.7578125 40.83984375 C24.37475083 44.95715849 20.27154824 46.61772621 13.53125 46.44921875 C8.35527841 45.75046259 4.50914295 43.41967537 0.8125 39.8203125 C-2.3847377 34.53257323 -3.06432857 29.23277997 -3.04296875 23.140625 C-3.04103516 21.85929688 -3.03910156 20.57796875 -3.03710938 19.2578125 C-3.03090576 18.60167969 -3.02470215 17.94554687 -3.01831055 17.26953125 C-2.99985664 15.24206185 -2.99780259 13.2150453 -2.99804688 11.1875 C-2.94807557 0.21602278 -2.94807557 0.21602278 0 0 Z " fill="#2A421C" transform="translate(747.8125,663.8671875)"/>
<path d="M0 0 C2.5 2.25 2.5 2.25 4 4 C2.86695008 7.39914975 1.87481525 8.05254451 -1 10 C-3.22307242 8.96785923 -4.94266292 8.05324158 -6.75 6.375 C-10.08816381 4.33501101 -13.24963983 4.36410078 -17 5 C-20.99025463 6.88219558 -22.64576113 8.41721992 -24.9375 12.1875 C-26.64022391 18.29727404 -26.14471659 22.82898579 -23.1875 28.4375 C-20.02631325 32.14060448 -18.44629656 32.83930038 -13.625 33.375 C-9.35496105 32.93327183 -7.30682944 31.67695717 -4 29 C-3.505 28.01 -3.505 28.01 -3 27 C-0.50638429 28.20381448 1.68143083 29.45428722 4 31 C3.7556403 34.29885597 2.77114107 35.22885893 0.375 37.625 C-4.41544932 41.33189531 -9.86385147 42.51465314 -15.89453125 42.3046875 C-23.15722719 41.25368512 -28.13633886 37.65887227 -32.625 31.99609375 C-36.59461875 26.23338017 -36.86669166 19.79523139 -36 13 C-33.90745645 5.91988906 -30.42369633 1.8761955 -24.18359375 -1.94140625 C-16.14426966 -5.83882455 -7.29666074 -4.97652437 0 0 Z " fill="#2A411C" transform="translate(1120,668)"/>
<path d="M0 0 C1.093125 0.66 2.18625 1.32 3.3125 2 C3.3125 5 3.3125 5 1.3125 7.1875 C0.3225 8.0846875 0.3225 8.0846875 -0.6875 9 C-1.326875 8.67 -1.96625 8.34 -2.625 8 C-6.65638183 6.68363042 -10.47403313 6.62566307 -14.6875 7 C-15.98383621 8.06645115 -15.98383621 8.06645115 -15.75 10.5625 C-15.729375 11.366875 -15.70875 12.17125 -15.6875 13 C-14.49253906 13.47179687 -14.49253906 13.47179687 -13.2734375 13.953125 C2.56366622 20.34961945 2.56366622 20.34961945 5.3125 26 C5.88034923 30.19577486 5.73408935 33.81427994 4.3125 37.8125 C0.19457595 42.31647943 -4.55522992 44.22582035 -10.625 44.5 C-15.73694255 44.27877219 -20.46253845 42.95018867 -24.6875 40 C-25.9375 37.859375 -25.9375 37.859375 -26.6875 36 C-25.06410195 34.29115995 -23.39430947 32.62553283 -21.6875 31 C-21.0275 31 -20.3675 31 -19.6875 31 C-19.6875 31.66 -19.6875 32.32 -19.6875 33 C-14.55830814 35.10428384 -10.1264165 35.21755666 -4.6875 35 C-4.6875 32.36 -4.6875 29.72 -4.6875 27 C-5.33976563 26.81824219 -5.99203125 26.63648438 -6.6640625 26.44921875 C-19.93526337 22.63228045 -19.93526337 22.63228045 -24.6875 17 C-25.93276479 13.26420563 -26.33921217 9.87365997 -25.6875 6 C-20.71658289 -3.42617892 -8.81527157 -4.42332132 0 0 Z " fill="#2A411C" transform="translate(670.6875,666)"/>
<path d="M0 0 C9.9 0 19.8 0 30 0 C30 2.64 30 5.28 30 8 C23.07 8 16.14 8 9 8 C9 11.63 9 15.26 9 19 C15.27 19 21.54 19 28 19 C28 21.64 28 24.28 28 27 C21.73 27 15.46 27 9 27 C9 32.94 9 38.88 9 45 C6.03 45 3.06 45 0 45 C0 30.15 0 15.3 0 0 Z " fill="#2E461F" transform="translate(969,664)"/>
<path d="M0 0 C4.38544865 2.19272433 7.23315916 4.38658225 9 9 C9.68629371 15.23383454 9.70900579 20.7014203 6 26 C2.75953856 28.93666818 0.06485065 29.89954239 -4.3125 30.3125 C-8.75886282 29.93568959 -10.63948122 28.90226622 -14 26 C-17.78752506 20.82371575 -17.6887615 15.17054825 -17 9 C-13.85160561 1.21186652 -7.98024377 -1.3933759 0 0 Z " fill="#FBFCFB" transform="translate(714,672)"/>
<path d="M0 0 C11.55 0 23.1 0 35 0 C35 2.64 35 5.28 35 8 C30.71 8 26.42 8 22 8 C22 20.21 22 32.42 22 45 C19.03 45 16.06 45 13 45 C13 32.79 13 20.58 13 8 C8.71 8 4.42 8 0 8 C0 5.36 0 2.72 0 0 Z " fill="#27411A" transform="translate(794,664)"/>
<path d="M0 0 C5.28 0 10.56 0 16 0 C16 9.9 16 19.8 16 30 C27.22 30 38.44 30 50 30 C50 20.1 50 10.2 50 0 C55.28 0 60.56 0 66 0 C66 25.41 66 50.82 66 77 C60.72 77 55.44 77 50 77 C50 66.11 50 55.22 50 44 C50.33 44 50.66 44 51 44 C51 54.56 51 65.12 51 76 C55.29 76 59.58 76 64 76 C64 51.25 64 26.5 64 1 C59.71 1 55.42 1 51 1 C51.00523682 1.90355225 51.01047363 2.80710449 51.01586914 3.73803711 C51.03287686 7.07951489 51.04543333 10.42094692 51.05493164 13.76245117 C51.05997101 15.21070073 51.06680253 16.65894517 51.07543945 18.10717773 C51.08752247 20.18474588 51.09323211 22.26224697 51.09765625 24.33984375 C51.10289307 25.59144287 51.10812988 26.84304199 51.11352539 28.13256836 C51 31 51 31 50 32 C47.50243196 32.1009003 45.03312358 32.13971766 42.53515625 32.1328125 C41.78664902 32.13376923 41.03814178 32.13472595 40.26695251 32.13571167 C38.68065304 32.13639346 37.09435079 32.13453922 35.50805664 32.13037109 C33.07627091 32.12503024 30.64467051 32.1303122 28.21289062 32.13671875 C26.67447876 32.13605782 25.13606701 32.13477635 23.59765625 32.1328125 C22.86740738 32.13483673 22.13715851 32.13686096 21.38478088 32.13894653 C16.22991336 32.11495668 16.22991336 32.11495668 14 31 C14 21.1 14 11.2 14 1 C10.04 1 6.08 1 2 1 C2 25.42 2 49.84 2 75 C5.96 75 9.92 75 14 75 C14 65.1 14 55.2 14 45 C14.33 45 14.66 45 15 45 C15 55.56 15 66.12 15 77 C10.05 77 5.1 77 0 77 C0 51.59 0 26.18 0 0 Z " fill="#970505" transform="translate(646,427)"/>
<path d="M0 0 C17.49 0 34.98 0 53 0 C53 4.95 53 9.9 53 15 C40.79 15 28.58 15 16 15 C16 20.61 16 26.22 16 32 C26.89 32 37.78 32 49 32 C49 36.62 49 41.24 49 46 C38.11 46 27.22 46 16 46 C16 45.67 16 45.34 16 45 C26.56 45 37.12 45 48 45 C48 41.37 48 37.74 48 34 C47.03586182 34.00523682 46.07172363 34.01047363 45.07836914 34.01586914 C41.51327436 34.03392118 37.94818364 34.04543274 34.38305664 34.05493164 C32.83780234 34.0599714 31.29255284 34.0668032 29.74731445 34.07543945 C27.53074971 34.08752076 25.31424782 34.09323173 23.09765625 34.09765625 C22.05545677 34.10539818 22.05545677 34.10539818 20.99220276 34.11329651 C19.3277067 34.11349277 17.66334501 34.06189129 16 34 C14.44393249 32.44393249 14.87029231 30.94042629 14.8671875 28.78125 C14.86589844 27.93175781 14.86460937 27.08226562 14.86328125 26.20703125 C14.86714844 25.31371094 14.87101563 24.42039062 14.875 23.5 C14.87113281 22.60667969 14.86726562 21.71335937 14.86328125 20.79296875 C14.86457031 19.94347656 14.86585938 19.09398437 14.8671875 18.21875 C14.86831543 17.43435547 14.86944336 16.64996094 14.87060547 15.84179688 C15 14 15 14 16 13 C18.6662603 12.91144839 21.30647114 12.88475327 23.97265625 12.90234375 C24.77029892 12.9037587 25.56794159 12.90517365 26.38975525 12.90663147 C28.94737435 12.91224684 31.50490718 12.92480188 34.0625 12.9375 C35.79231645 12.94251302 37.52213426 12.94707627 39.25195312 12.95117188 C43.50133553 12.96222125 47.75065312 12.97949614 52 13 C52 9.37 52 5.74 52 2 C35.5 2 19 2 2 2 C2 26.75 2 51.5 2 77 C18.83 77 35.66 77 53 77 C53 73.37 53 69.74 53 66 C40.79 66 28.58 66 16 66 C16 65.67 16 65.34 16 65 C28.54 65 41.08 65 54 65 C54 69.29 54 73.58 54 78 C36.18 78 18.36 78 0 78 C0 52.26 0 26.52 0 0 Z " fill="#990A0A" transform="translate(735,315)"/>
<path d="M0 0 C17.16 0 34.32 0 52 0 C52 4.62 52 9.24 52 14 C40.12 14 28.24 14 16 14 C16 19.61 16 25.22 16 31 C26.89 31 37.78 31 49 31 C49 35.62 49 40.24 49 45 C38.11 45 27.22 45 16 45 C16 50.94 16 56.88 16 63 C28.54 63 41.08 63 54 63 C54 67.62 54 72.24 54 77 C36.18 77 18.36 77 0 77 C0 51.59 0 26.18 0 0 Z M2 1 C2 25.75 2 50.5 2 76 C18.5 76 35 76 52 76 C52 72.04 52 68.08 52 64 C39.79 64 27.58 64 15 64 C15.33 57.4 15.66 50.8 16 44 C31.345 43.505 31.345 43.505 47 43 C47.495 38.05 47.495 38.05 48 33 C37.44 32.67 26.88 32.34 16 32 C15.67 25.73 15.34 19.46 15 13 C26.88 13 38.76 13 51 13 C51 9.04 51 5.08 51 1 C34.83 1 18.66 1 2 1 Z " fill="#990E0E" transform="translate(733,427)"/>
<path d="M0 0 C4.2384375 -0.0928125 4.2384375 -0.0928125 8.5625 -0.1875 C9.43849854 -0.21481201 10.31449707 -0.24212402 11.21704102 -0.27026367 C16.5708077 -0.32649183 20.32023772 0.31982727 25 3 C27.46514591 6.33921426 27.47045436 9.7705587 27.390625 13.80859375 C26.75660593 17.36544071 24.81063162 18.90836716 22 21 C19.17588235 21.94137255 17.47081968 22.11725382 14.55078125 22.09765625 C13.78677002 22.09515869 13.02275879 22.09266113 12.2355957 22.09008789 C11.27097412 22.08098389 10.30635254 22.07187988 9.3125 22.0625 C4.7028125 22.0315625 4.7028125 22.0315625 0 22 C0 14.74 0 7.48 0 0 Z " fill="#FDFBFB" transform="translate(1284,441)"/>
<path d="M0 0 C3.17625 -0.061875 6.3525 -0.12375 9.625 -0.1875 C11.1092749 -0.22846802 11.1092749 -0.22846802 12.62353516 -0.27026367 C17.84773325 -0.31936923 21.48918695 0.05062224 26 3 C28.40467242 5.95118888 28.41186021 9.29107729 28.328125 13.03125 C27.80947233 16.14316604 26.21445226 17.85067869 24 20 C21.49502996 21.25248502 19.79146726 21.11374406 16.9921875 21.09765625 C16.00605469 21.09443359 15.01992187 21.09121094 14.00390625 21.08789062 C12.97136719 21.07951172 11.93882813 21.07113281 10.875 21.0625 C9.31458984 21.05573242 9.31458984 21.05573242 7.72265625 21.04882812 C5.14841313 21.03701967 2.57419947 21.01908385 0 21 C0 14.07 0 7.14 0 0 Z " fill="#FEFDFD" transform="translate(1203,330)"/>
<path d="M0 0 C11.22 0 22.44 0 34 0 C34 4.29 34 8.58 34 13 C22.78 13 11.56 13 0 13 C0 8.71 0 4.42 0 0 Z " fill="#A01617" transform="translate(964,352)"/>
<path d="M0 0 C2.97 0 5.94 0 9 0 C9 14.85 9 29.7 9 45 C6.03 45 3.06 45 0 45 C0 30.15 0 15.3 0 0 Z " fill="#223B14" transform="translate(1061,664)"/>
<path d="M0 0 C1.93938819 2.90908228 2.96774957 5.40862379 4.125 8.6875 C4.47820312 9.68136719 4.83140625 10.67523437 5.1953125 11.69921875 C5.46085937 12.45847656 5.72640625 13.21773437 6 14 C6 13.01 6 12.02 6 11 C6.66 11 7.32 11 8 11 C8.66 9.68 9.32 8.36 10 7 C10.680625 8.1446875 10.680625 8.1446875 11.375 9.3125 C12.53824492 11.23632814 13.7529415 13.12941224 15 15 C15.60887463 16.38424108 16.181622 17.78467735 16.7265625 19.1953125 C17.0359375 19.99324219 17.3453125 20.79117188 17.6640625 21.61328125 C17.98117187 22.44214844 18.29828125 23.27101563 18.625 24.125 C19.11226562 25.37990234 19.11226562 25.37990234 19.609375 26.66015625 C22 32.85770089 22 32.85770089 22 34 C19.36 34 16.72 34 14 34 C12.68 31.03 11.36 28.06 10 25 C3.73 24.67 -2.54 24.34 -9 24 C-7.68 23.67 -6.36 23.34 -5 23 C-5.22558594 22.19304688 -5.45117188 21.38609375 -5.68359375 20.5546875 C-6.10471636 15.82355695 -4.75391352 12.49232594 -3.0625 8.125 C-2.77181641 7.34125 -2.48113281 6.5575 -2.18164062 5.75 C-1.46698004 3.82861745 -0.73518875 1.91362174 0 0 Z " fill="#2E471F" transform="translate(1154,674)"/>
<path d="M0 0 C17.49 0 34.98 0 53 0 C53 4.62 53 9.24 53 14 C40.79 14 28.58 14 16 14 C16 13.67 16 13.34 16 13 C27.55 13 39.1 13 51 13 C51 9.37 51 5.74 51 2 C34.83 2 18.66 2 2 2 C2 26.75 2 51.5 2 77 C6.29 77 10.58 77 15 77 C15 67.1 15 57.2 15 47 C15.33 47 15.66 47 16 47 C16 57.56 16 68.12 16 79 C10.72 79 5.44 79 0 79 C0 52.93 0 26.86 0 0 Z " fill="#9D1314" transform="translate(896,315)"/>
<path d="M0 0 C2.45662438 2.45662438 3.02892848 4.49593326 4.1640625 7.77734375 C4.56367187 8.93041016 4.96328125 10.08347656 5.375 11.27148438 C5.7875 12.48126953 6.2 13.69105469 6.625 14.9375 C7.25535156 16.74637695 7.25535156 16.74637695 7.8984375 18.59179688 C11 27.60948914 11 27.60948914 11 31 C4.07 31 -2.86 31 -10 31 C-9.25462718 26.52776309 -8.45887393 23.11297946 -6.93359375 18.9453125 C-6.53076172 17.83671875 -6.12792969 16.728125 -5.71289062 15.5859375 C-5.29201172 14.44382812 -4.87113281 13.30171875 -4.4375 12.125 C-4.01275391 10.9596875 -3.58800781 9.794375 -3.15039062 8.59375 C-2.1048911 5.72743669 -1.05462612 2.86296514 0 0 Z " fill="#FCF9F9" transform="translate(1132,333)"/>
<path d="M0 0 C2.79658591 5.29788014 4.60645738 10.99831243 6.625 16.625 C7.25535156 18.36136719 7.25535156 18.36136719 7.8984375 20.1328125 C8.29546875 21.23625 8.6925 22.3396875 9.1015625 23.4765625 C9.46588379 24.48799316 9.83020508 25.49942383 10.20556641 26.54150391 C11 29 11 29 11 31 C3.74 31 -3.52 31 -11 31 C-9.59543965 26.90612718 -8.1900464 22.81256073 -6.7824707 18.71972656 C-6.30378005 17.32699486 -5.82558718 15.93409196 -5.34790039 14.54101562 C-4.66162486 12.53991315 -3.97356781 10.53943099 -3.28515625 8.5390625 C-2.87144775 7.33459473 -2.45773926 6.13012695 -2.03149414 4.88916016 C-1 2 -1 2 0 0 Z " fill="#FDFAFA" transform="translate(842,333)"/>
<path d="M0 0 C6.661875 -0.04125 13.32375 -0.0825 20.1875 -0.125 C23.32995239 -0.15231201 23.32995239 -0.15231201 26.53588867 -0.18017578 C28.20491276 -0.18601954 29.87393971 -0.19111537 31.54296875 -0.1953125 C32.40265259 -0.20554443 33.26233643 -0.21577637 34.14807129 -0.22631836 C38.55608407 -0.2275992 41.98957944 -0.0752221 46 2 C43.19711611 2.80225837 40.78433888 3.10461725 37.87402344 3.02172852 C36.65658447 2.99109314 36.65658447 2.99109314 35.41455078 2.95983887 C34.57134277 2.9331311 33.72813477 2.90642334 32.859375 2.87890625 C31.68592529 2.84790833 31.68592529 2.84790833 30.48876953 2.81628418 C27.57567758 2.73771589 24.6628512 2.64953784 21.75 2.5625 C15.2325 2.376875 8.715 2.19125 2 2 C2 26.75 2 51.5 2 77 C6.29 77 10.58 77 15 77 C14.98259766 73.98552734 14.98259766 73.98552734 14.96484375 70.91015625 C14.9578926 68.97078576 14.95097604 67.03141497 14.94506836 65.09204102 C14.94002943 63.74079614 14.93319823 62.38955674 14.92456055 61.03833008 C14.91247581 59.09979566 14.90730172 57.161222 14.90234375 55.22265625 C14.89448853 53.47094116 14.89448853 53.47094116 14.88647461 51.68383789 C15 49 15 49 16 48 C17.95530764 47.87451011 19.91570479 47.82424637 21.875 47.8125 C23.47988281 47.79123047 23.47988281 47.79123047 25.1171875 47.76953125 C28 48 28 48 31 50 C30.67 50.99 30.34 51.98 30 53 C29.67 52.34 29.34 51.68 29 51 C24.71 50.67 20.42 50.34 16 50 C16 59.57 16 69.14 16 79 C10.72 79 5.44 79 0 79 C0 52.93 0 26.86 0 0 Z " fill="#9A0909" transform="translate(1187,315)"/>
<path d="M0 0 C0.66 0 1.32 0 2 0 C3.28751357 3.78834888 4.56909069 7.57864846 5.84521484 11.37084961 C6.28011228 12.66046159 6.71662422 13.94953029 7.15478516 15.23803711 C7.78452574 17.0908453 8.40797257 18.94578889 9.03125 20.80078125 C9.40830078 21.91622314 9.78535156 23.03166504 10.17382812 24.1809082 C11 27 11 27 11 30 C4.07 30 -2.86 30 -10 30 C-6.7 20.1 -3.4 10.2 0 0 Z " fill="#FCF9F9" transform="translate(944,553)"/>
<path d="M0 0 C2 1 2 1 2.83789062 2.96191406 C3.10794922 3.80463867 3.37800781 4.64736328 3.65625 5.515625 C3.95660156 6.43730469 4.25695313 7.35898437 4.56640625 8.30859375 C4.87449219 9.27925781 5.18257812 10.24992187 5.5 11.25 C6.11329108 13.15145895 6.72783576 15.05251411 7.34375 16.953125 C7.61380859 17.80036133 7.88386719 18.64759766 8.16210938 19.52050781 C8.98319428 22.04784894 8.98319428 22.04784894 10.10351562 24.62792969 C11 27 11 27 11 30 C4.07 30 -2.86 30 -10 30 C-6.66666667 20 -3.33333333 10 0 0 Z " fill="#FCF8F9" transform="translate(1214,444)"/>
<path d="M0 0 C2.05484481 3.08226722 3.01096153 5.69049723 4.1640625 9.19921875 C4.56367187 10.40771484 4.96328125 11.61621094 5.375 12.86132812 C5.79176459 14.13668675 6.20843 15.4120778 6.625 16.6875 C7.04906447 17.97474607 7.47353902 19.26185711 7.8984375 20.54882812 C8.93633069 23.69789041 9.96869018 26.84877554 11 30 C4.07 30 -2.86 30 -10 30 C-9.24784965 26.23924827 -8.38855947 22.90842733 -7.1875 19.296875 C-6.83429687 18.2346875 -6.48109375 17.1725 -6.1171875 16.078125 C-5.56417969 14.43070312 -5.56417969 14.43070312 -5 12.75 C-4.44699219 11.079375 -4.44699219 11.079375 -3.8828125 9.375 C-3.35300781 7.78945313 -3.35300781 7.78945313 -2.8125 6.171875 C-2.48894531 5.2034668 -2.16539062 4.23505859 -1.83203125 3.23730469 C-1 1 -1 1 0 0 Z " fill="#FDF9FA" transform="translate(838,444)"/>
<path d="M0 0 C1.79341438 4.16673521 0.01173384 7.74663341 -1.4375 11.75 C-1.68048828 12.44738281 -1.92347656 13.14476562 -2.17382812 13.86328125 C-2.77310248 15.57885098 -3.38529885 17.28989715 -4 19 C-0.04 19 3.92 19 8 19 C7.34 19.66 6.68 20.32 6 21 C6.89335797 23.35785318 6.89335797 23.35785318 10.0625 24.125 C11.031875 24.41375 12.00125 24.7025 13 25 C13.495 27.97 13.495 27.97 14 31 C13.34 30.34 12.68 29.68 12 29 C12 28.01 12 27.02 12 26 C5.73 26.33 -0.54 26.66 -7 27 C-7.99 29.64 -8.98 32.28 -10 35 C-12.97 35 -15.94 35 -19 35 C-18.01086833 31.66332918 -17.00776508 28.33108556 -16 25 C-15.649375 23.824375 -15.29875 22.64875 -14.9375 21.4375 C-14 19 -14 19 -12 18 C-11.67 17.01 -11.34 16.02 -11 15 C-9.125 13.75 -9.125 13.75 -7 13 C-6.01 13.33 -5.02 13.66 -4 14 C-3.79503906 13.24074219 -3.59007812 12.48148438 -3.37890625 11.69921875 C-2.97478516 10.20841797 -2.97478516 10.20841797 -2.5625 8.6875 C-2.29566406 7.70136719 -2.02882813 6.71523438 -1.75390625 5.69921875 C-1.21920575 3.78482474 -0.62855462 1.88566385 0 0 Z " fill="#243B17" transform="translate(934,674)"/>
<path d="M0 0 C19.47 0 38.94 0 59 0 C59 4.62 59 9.24 59 14 C51.74 14 44.48 14 37 14 C37 13.34 37 12.68 37 12 C43.27 12 49.54 12 56 12 C56 9.03 56 6.06 56 3 C37.85 3 19.7 3 1 3 C0.67 2.01 0.34 1.02 0 0 Z " fill="#A72A2B" transform="translate(801,535)"/>
<path d="M0 0 C0.721875 0.00257813 1.44375 0.00515625 2.1875 0.0078125 C2.909375 0.00523437 3.63125 0.00265625 4.375 0 C6.1875 0.1328125 6.1875 0.1328125 7.1875 1.1328125 C7.27533542 3.35136514 7.29444609 5.57269746 7.28515625 7.79296875 C7.2837413 8.45743515 7.28232635 9.12190155 7.28086853 9.8065033 C7.27525518 11.93615149 7.26270054 14.06569589 7.25 16.1953125 C7.24498671 17.63606619 7.24042351 19.07682153 7.23632812 20.51757812 C7.22528145 24.05602352 7.20800792 27.59440789 7.1875 31.1328125 C6.1975 31.4628125 5.2075 31.7928125 4.1875 32.1328125 C4.1875 22.5628125 4.1875 12.9928125 4.1875 3.1328125 C2.8675 3.1328125 1.5475 3.1328125 0.1875 3.1328125 C0.19797363 3.97054199 0.20844727 4.80827148 0.21923828 5.67138672 C0.25330019 8.77619414 0.27838911 11.88090642 0.29736328 14.98583984 C0.31238107 16.9919261 0.33778981 18.99792574 0.36328125 21.00390625 C0.36972656 22.26074219 0.37617187 23.51757812 0.3828125 24.8125 C0.39328613 25.97507324 0.40375977 27.13764648 0.41455078 28.33544922 C0.1875 31.1328125 0.1875 31.1328125 -1.8125 33.1328125 C-2.94574094 29.73308967 -2.94192456 27.11424149 -2.9453125 23.53125 C-2.94660156 22.23703125 -2.94789063 20.9428125 -2.94921875 19.609375 C-2.94712402 18.93680664 -2.9450293 18.26423828 -2.94287109 17.57128906 C-2.9375015 15.50838935 -2.9428336 13.44570561 -2.94921875 11.3828125 C-2.94792969 10.09117187 -2.94664062 8.79953125 -2.9453125 7.46875 C-2.94418457 6.27813965 -2.94305664 5.0875293 -2.94189453 3.86083984 C-2.76839074 0.20285622 -2.76839074 0.20285622 0 0 Z " fill="#3F5437" transform="translate(747.8125,663.8671875)"/>
<path d="M0 0 C9.9 0 19.8 0 30 0 C30 2.64 30 5.28 30 8 C23.07 8 16.14 8 9 8 C9 7.67 9 7.34 9 7 C15.6 7 22.2 7 29 7 C29 5.35 29 3.7 29 2 C20.09 2 11.18 2 2 2 C2 15.86 2 29.72 2 44 C3.98 44 5.96 44 8 44 C8 38.39 8 32.78 8 27 C8.33 27 8.66 27 9 27 C9 32.94 9 38.88 9 45 C6.03 45 3.06 45 0 45 C0 30.15 0 15.3 0 0 Z " fill="#30422C" transform="translate(969,664)"/>
<path d="M0 0 C5.28 0 10.56 0 16 0 C16 25.41 16 50.82 16 77 C10.72 77 5.44 77 0 77 C0 76.67 0 76.34 0 76 C4.62 76 9.24 76 14 76 C14 51.58 14 27.16 14 2 C9.38 2 4.76 2 0 2 C0 1.34 0 0.68 0 0 Z " fill="#A73434" transform="translate(876,535)"/>
<path d="M0 0 C10.31686258 -0.36845938 10.31686258 -0.36845938 13.33203125 1.2578125 C15 3 15 3 15.49609375 4.97265625 C15.43959515 6.98777281 15.22261985 8.99642139 15 11 C10.25368713 14.16420858 5.63243123 13.12112755 0 13 C0 8.71 0 4.42 0 0 Z " fill="#F9FAF8" transform="translate(1022,672)"/>
<path d="M0 0 C16.83 0 33.66 0 51 0 C51 4.62 51 9.24 51 14 C38.79 14 26.58 14 14 14 C14 13.67 14 13.34 14 13 C25.55 13 37.1 13 49 13 C49 9.37 49 5.74 49 2 C32.83 2 16.66 2 0 2 C0 1.34 0 0.68 0 0 Z " fill="#990303" transform="translate(898,315)"/>
<path d="M0 0 C2.97 0 5.94 0 9 0 C9 14.85 9 29.7 9 45 C6.36 45 3.72 45 1 45 C1 39.06 1 33.12 1 27 C1.33 27 1.66 27 2 27 C2 32.61 2 38.22 2 44 C3.65 44 5.3 44 7 44 C7 30.14 7 16.28 7 2 C5.35 2 3.7 2 2 2 C2 7.61 2 13.22 2 19 C1.67 19 1.34 19 1 19 C0.67 12.73 0.34 6.46 0 0 Z " fill="#102C06" transform="translate(869,664)"/>
<path d="M0 0 C0.66 0 1.32 0 2 0 C2.83887056 2.43572059 3.67126529 4.87333217 4.5 7.3125 C4.73847656 8.00279297 4.97695313 8.69308594 5.22265625 9.40429688 C6.23208263 12.38931489 7 14.82658914 7 18 C3.04 18 -0.92 18 -5 18 C-1.85714286 5.14285714 -1.85714286 5.14285714 0 0 Z " fill="#F3F5F2" transform="translate(935,675)"/>
<path d="M0 0 C19.8 0 39.6 0 60 0 C60 0.33 60 0.66 60 1 C54.31158511 1.14498671 48.62311071 1.28727029 42.93457031 1.42724609 C41.00681821 1.47503895 39.07908303 1.52352016 37.15136719 1.57275391 C25.43104856 1.87155495 13.72448467 2.07558765 2 2 C2 5.63 2 9.26 2 13 C8.93 13 15.86 13 23 13 C23 13.33 23 13.66 23 14 C15.41 14 7.82 14 0 14 C0 9.38 0 4.76 0 0 Z " fill="#AD3B3B" transform="translate(982,535)"/>
<path d="M0 0 C1.99775873 2.99663809 2.98997415 5.53662626 4.125 8.9375 C4.47820312 9.97777344 4.83140625 11.01804687 5.1953125 12.08984375 C6 15 6 15 6 19 C2.04 19 -1.92 19 -6 19 C-4.11409966 12.62386075 -2.14364744 6.29411375 0 0 Z " fill="#F3F5F2" transform="translate(1154,674)"/>
<path d="M0 0 C4.95 0 9.9 0 15 0 C14.67 25.08 14.34 50.16 14 76 C13.67 76 13.34 76 13 76 C13 51.91 13 27.82 13 3 C9.37 3 5.74 3 2 3 C1.34 2.67 0.68 2.34 0 2 C0 1.34 0 0.68 0 0 Z " fill="#A92B2B" transform="translate(1058,535)"/>
<path d="M0 0 C2.97 0 5.94 0 9 0 C8.67 0.99 8.34 1.98 8 3 C6.35 3 4.7 3 3 3 C3 16.53 3 30.06 3 44 C1.515 44.495 1.515 44.495 0 45 C0 30.15 0 15.3 0 0 Z " fill="#39512C" transform="translate(1061,664)"/>
<path d="M0 0 C11.55 0 23.1 0 35 0 C35 2.64 35 5.28 35 8 C30.71 8 26.42 8 22 8 C22 7.67 22 7.34 22 7 C25.63 7 29.26 7 33 7 C33 5.35 33 3.7 33 2 C22.11 2 11.22 2 0 2 C0 1.34 0 0.68 0 0 Z " fill="#2F4329" transform="translate(794,664)"/>
<path d="M0 0 C3.27075883 -0.0580476 6.54138524 -0.09361165 9.8125 -0.125 C10.74126953 -0.14175781 11.67003906 -0.15851562 12.62695312 -0.17578125 C13.51962891 -0.18222656 14.41230469 -0.18867187 15.33203125 -0.1953125 C16.15421143 -0.20578613 16.9763916 -0.21625977 17.82348633 -0.22705078 C20 0 20 0 23 2 C20.29283758 2.90238747 18.76223232 3.11851302 15.98828125 3.09765625 C14.96408081 3.09390991 14.96408081 3.09390991 13.91918945 3.09008789 C13.05898193 3.08098389 12.19877441 3.07187988 11.3125 3.0625 C8.569375 3.041875 5.82625 3.02125 3 3 C3 9.6 3 16.2 3 23 C2.67 23 2.34 23 2 23 C2 16.07 2 9.14 2 2 C1.34 2 0.68 2 0 2 C0 1.34 0 0.68 0 0 Z " fill="#394E2D" transform="translate(1013,664)"/>
<path d="M0 0 C0.33 0 0.66 0 1 0 C1.04976954 4.14427102 1.08589288 8.28837953 1.10986328 12.43286133 C1.11986557 13.84011876 1.13347178 15.2473557 1.15087891 16.65454102 C1.17538366 18.68771448 1.18654083 20.72061106 1.1953125 22.75390625 C1.20578613 23.97408447 1.21625977 25.1942627 1.22705078 26.45141602 C0.98048118 30.30506028 0.18578175 33.34213 -1 37 C-1.66 37 -2.32 37 -3 37 C-3.33 38.32 -3.66 39.64 -4 41 C-5.32100393 37.03698822 -4.31718423 35.17926167 -3.125 31.1875 C-0.27284382 20.95072892 -0.16947764 10.56605439 0 0 Z " fill="#E0BD28" transform="translate(517,445)"/>
<path d="M0 0 C0.33 0 0.66 0 1 0 C1.33 10.23 1.66 20.46 2 31 C-0.97401336 32.48700668 -3.94818926 32.00619932 -7.1953125 31.87890625 C-8.25647781 31.84348976 -8.25647781 31.84348976 -9.33908081 31.80735779 C-11.60125755 31.73071166 -13.86309273 31.64669188 -16.125 31.5625 C-17.6575353 31.50928023 -19.19008734 31.45653982 -20.72265625 31.40429688 C-24.48198761 31.27509533 -28.24102908 31.13927963 -32 31 C-32 30.67 -32 30.34 -32 30 C-21.44 30 -10.88 30 0 30 C0 20.1 0 10.2 0 0 Z " fill="#B54242" transform="translate(1061,427)"/>
<path d="M0 0 C1 2 1 2 0.44140625 3.9453125 C-0.37239583 5.96354167 -1.18619792 7.98177083 -2 10 C4.435 9.505 4.435 9.505 11 9 C11.99 6.36 12.98 3.72 14 1 C15.478746 5.436238 13.74833678 7.73405826 12 12 C6.39 12 0.78 12 -5 12 C-1.125 1.125 -1.125 1.125 0 0 Z " fill="#970909" transform="translate(1182,492)"/>
<path d="M0 0 C1.65 0.33 3.3 0.66 5 1 C4.01 2.485 4.01 2.485 3 4 C10.54047904 5.07859862 10.54047904 5.07859862 18 4 C17 6 17 6 15.0625 7.125 C10.74575302 8.35835628 6.46098847 8.51414782 2 8 C1.01 7.34 0.02 6.68 -1 6 C-0.67 4.02 -0.34 2.04 0 0 Z " fill="#2E4228" transform="translate(653,702)"/>
<path d="M0 0 C5.61 0 11.22 0 17 0 C17 1.32 17 2.64 17 4 C10.07 3.505 10.07 3.505 3 3 C3 3.66 3 4.32 3 5 C2.34 5 1.68 5 1 5 C0.67 3.35 0.34 1.7 0 0 Z " fill="#A83131" transform="translate(1089,535)"/>
<path d="M0 0 C0.33 0 0.66 0 1 0 C1 8.58 1 17.16 1 26 C5.29 26 9.58 26 14 26 C14 26.66 14 27.32 14 28 C9.05 28 4.1 28 -1 28 C-0.67 18.76 -0.34 9.52 0 0 Z " fill="#9B0D0D" transform="translate(1188,366)"/>
<path d="M0 0 C0.66 0 1.32 0 2 0 C3.65 4.29 5.3 8.58 7 13 C1.39 13 -4.22 13 -10 13 C-10.33 11.35 -10.66 9.7 -11 8 C-10.63261719 8.49113281 -10.26523438 8.98226563 -9.88671875 9.48828125 C-7.19167724 11.64766233 -5.21290785 11.29719058 -1.8125 11.1875 C1.0646875 11.0946875 1.0646875 11.0946875 4 11 C2.68 7.37 1.36 3.74 0 0 Z " fill="#970A0B" transform="translate(1246,491)"/>
<path d="M0 0 C10.89 0 21.78 0 33 0 C33 0.33 33 0.66 33 1 C23.1 1 13.2 1 3 1 C3 2.32 3 3.64 3 5 C2.01 5 1.02 5 0 5 C0 3.35 0 1.7 0 0 Z " fill="#344D23" transform="translate(794,666)"/>
<path d="M0 0 C1.64696604 0.4752588 3.29254728 0.95531891 4.9375 1.4375 C6.31228516 1.83775391 6.31228516 1.83775391 7.71484375 2.24609375 C10 3 10 3 11 4 C12.41120902 4.22571184 13.83176043 4.39388349 15.25390625 4.53515625 C16.53491211 4.66567383 16.53491211 4.66567383 17.84179688 4.79882812 C18.73962891 4.88583984 19.63746094 4.97285156 20.5625 5.0625 C21.91504883 5.19881836 21.91504883 5.19881836 23.29492188 5.33789062 C25.52958434 5.56253923 27.76457839 5.78305769 30 6 C30 6.33 30 6.66 30 7 C10.2900755 7.83183738 10.2900755 7.83183738 2 3 C1.34 2.01 0.68 1.02 0 0 Z " fill="#09573F" transform="translate(243,613)"/>
<path d="M0 0 C5.61 0 11.22 0 17 0 C16.67 0.99 16.34 1.98 16 3 C14.41058594 2.96519531 14.41058594 2.96519531 12.7890625 2.9296875 C11.4010487 2.91093056 10.0130273 2.89273028 8.625 2.875 C7.92632813 2.85824219 7.22765625 2.84148437 6.5078125 2.82421875 C4.67102514 2.80655733 2.83398037 2.89696739 1 3 C0.34 3.66 -0.32 4.32 -1 5 C-0.67 3.35 -0.34 1.7 0 0 Z " fill="#980808" transform="translate(1124,315)"/>
<path d="M0 0 C3.3 0 6.6 0 10 0 C10 1.32 10 2.64 10 4 C6.7 4 3.4 4 0 4 C-0.33 4.66 -0.66 5.32 -1 6 C-0.67 4.02 -0.34 2.04 0 0 Z " fill="#35482B" transform="translate(931,664)"/>
<path d="M0 0 C0.33 0.66 0.66 1.32 1 2 C5.62 2 10.24 2 15 2 C15.33 1.34 15.66 0.68 16 0 C16.33 1.32 16.66 2.64 17 4 C11.72 4 6.44 4 1 4 C0.67 2.68 0.34 1.36 0 0 Z " fill="#970505" transform="translate(859,500)"/>
<path d="M0 0 C0.33 0.99 0.66 1.98 1 3 C-5.52564714 6.93368449 -9.994488 7.43727799 -17.5 6.75 C-18.4178125 6.68425781 -19.335625 6.61851562 -20.28125 6.55078125 C-22.52319405 6.38730616 -24.76138548 6.20339412 -27 6 C-27 5.67 -27 5.34 -27 5 C-26.35973877 4.9906543 -25.71947754 4.98130859 -25.05981445 4.97167969 C-22.14327625 4.91781153 -19.22831375 4.83419801 -16.3125 4.75 C-15.30509766 4.73582031 -14.29769531 4.72164063 -13.25976562 4.70703125 C-7.19599345 4.52687942 -7.19599345 4.52687942 -1.79296875 1.953125 C-1.20128906 1.30859375 -0.60960937 0.6640625 0 0 Z " fill="#AF3232" transform="translate(1230,346)"/>
<path d="M0 0 C2 2 2 2 2 5 C-3.28 5 -8.56 5 -14 5 C-14 4.34 -14 3.68 -14 3 C-9.38 3 -4.76 3 0 3 C0 2.01 0 1.02 0 0 Z " fill="#9C1414" transform="translate(878,389)"/>
<path d="M0 0 C0.99 0 1.98 0 3 0 C3.05398987 2.27057377 3.09278742 4.54151288 3.125 6.8125 C3.14820313 8.07707031 3.17140625 9.34164063 3.1953125 10.64453125 C3 14 3 14 1 17 C0.09586327 13.16275828 -0.10576898 9.62497726 -0.0625 5.6875 C-0.05347656 4.61886719 -0.04445313 3.55023438 -0.03515625 2.44921875 C-0.02355469 1.64097656 -0.01195312 0.83273437 0 0 Z " fill="#A52222" transform="translate(1012,347)"/>
<path d="M0 0 C2.97 0 5.94 0 9 0 C9 0.66 9 1.32 9 2 C6.69 2 4.38 2 2 2 C2 7.61 2 13.22 2 19 C1.67 19 1.34 19 1 19 C0.67 12.73 0.34 6.46 0 0 Z " fill="#22391B" transform="translate(869,664)"/>
<path d="M0 0 C3.83947838 2.8001713 6.2649689 5.52157554 8.75 9.5625 C9.34296875 10.51253906 9.9359375 11.46257812 10.546875 12.44140625 C12 15 12 15 13 18 C12.01 17.67 11.02 17.34 10 17 C9.67 16.01 9.34 15.02 9 14 C8.34 13.67 7.68 13.34 7 13 C6.731875 12.278125 6.46375 11.55625 6.1875 10.8125 C5.10451794 8.24754249 4.16377399 6.86833039 2.375 4.8125 C0 2 0 2 0 0 Z " fill="#135C3E" transform="translate(417,429)"/>
<path d="M0 0 C2 2 2 2 2.265625 4.05859375 C2.25789063 5.23615234 2.25789063 5.23615234 2.25 6.4375 C2.25515625 7.21996094 2.2603125 8.00242187 2.265625 8.80859375 C2 11 2 11 0 14 C-1.24377393 11.51245214 -1.13306235 9.77344699 -1.125 7 C-1.12757812 6.113125 -1.13015625 5.22625 -1.1328125 4.3125 C-1 2 -1 2 0 0 Z " fill="#A52424" transform="translate(1246,333)"/>
<path d="M0 0 C1.32 0.66 2.64 1.32 4 2 C2.86695008 5.39914975 1.87481525 6.05254451 -1 8 C-4.16115776 6.63016497 -4.9927092 6.0109362 -7 3 C-5.02 3.66 -3.04 4.32 -1 5 C-0.67 3.35 -0.34 1.7 0 0 Z " fill="#1B2E10" transform="translate(1120,670)"/>
<path d="M0 0 C2.97 0 5.94 0 9 0 C8.67 0.99 8.34 1.98 8 3 C5.69 3 3.38 3 1 3 C0.67 3.66 0.34 4.32 0 5 C0 3.35 0 1.7 0 0 Z " fill="#394E2F" transform="translate(1150,664)"/>
<path d="M0 0 C1.65 0.33 3.3 0.66 5 1 C4.01 2.485 4.01 2.485 3 4 C5.64 4.33 8.28 4.66 11 5 C11 5.33 11 5.66 11 6 C5.06 6.495 5.06 6.495 -1 7 C-0.67 4.69 -0.34 2.38 0 0 Z " fill="#364E26" transform="translate(653,702)"/>
<path d="M0 0 C1.39214652 4.17643955 -0.29335734 6.83437793 -1.9375 10.6875 C-2.22818359 11.38939453 -2.51886719 12.09128906 -2.81835938 12.81445312 C-3.53710313 14.54650775 -4.26745331 16.27373781 -5 18 C-6.15941038 14.52176885 -5.70820884 12.54104422 -5 9 C-4.34 9 -3.68 9 -3 9 C-2.01 6.03 -1.02 3.06 0 0 Z " fill="#970E0D" transform="translate(1156,553)"/>
<path d="M0 0 C0.66 0.33 1.32 0.66 2 1 C2.625 3.5625 2.625 3.5625 3 6 C0.03 6 -2.94 6 -6 6 C-4.68 5.34 -3.36 4.68 -2 4 C-1.67 3.01 -1.34 2.02 -1 1 C-0.67 0.67 -0.34 0.34 0 0 Z " fill="#1B3013" transform="translate(955,703)"/>
<path d="M0 0 C0.66 0.33 1.32 0.66 2 1 C1.04882866 2.1725131 0.08882991 3.33787015 -0.875 4.5 C-1.40867187 5.1496875 -1.94234375 5.799375 -2.4921875 6.46875 C-2.98976563 6.9740625 -3.48734375 7.479375 -4 8 C-4.66 8 -5.32 8 -6 8 C-6.66 9.32 -7.32 10.64 -8 12 C-8.33 11.01 -8.66 10.02 -9 9 C-6.03 6.03 -3.06 3.06 0 0 Z " fill="#07593E" transform="translate(272,366)"/>
<path d="M0 0 C1.41687119 4.25061356 0.19320039 6.71851625 -1 11 C-1.66 11 -2.32 11 -3 11 C-3.33 11.99 -3.66 12.98 -4 14 C-3.46148032 8.72250715 -2.22656164 4.74354436 0 0 Z " fill="#9A1010" transform="translate(1107,360)"/>
<path d="M0 0 C1.60031344 3.20062687 0.03173691 5.72271806 -1 9 C-1.99 9 -2.98 9 -4 9 C-2.94124926 5.59687262 -1.99097846 2.98646769 0 0 Z " fill="#0E5D3E" transform="translate(238,470)"/>
</svg>
