<svg version="1.1" id="Layer_1" xmlns="http://www.w3.org/2000/svg" xmlns:xlink="http://www.w3.org/1999/xlink" x="0px" y="0px"
	 width="100%" viewBox="0 0 1248 832" enable-background="new 0 0 1248 832" xml:space="preserve">
<path fill="#000000" opacity="1.000000" stroke="none" 
	d="
M710.000000,833.000000 
	C473.361664,833.000000 237.223343,833.000000 1.042504,833.000000 
	C1.042504,555.728271 1.042504,278.456573 1.042504,1.092418 
	C416.888458,1.092418 832.776917,1.092418 1248.832764,1.092418 
	C1248.832764,278.333252 1248.832764,555.666626 1248.832764,833.000000 
	C1069.456299,833.000000 889.978149,833.000000 710.000000,833.000000 
M388.733063,533.926025 
	C390.070038,533.257202 391.418671,532.610596 392.742401,531.916443 
	C459.835815,496.734589 492.389465,424.874451 472.968719,352.544708 
	C462.161224,312.293671 436.633514,282.618073 401.360199,261.329895 
	C360.621155,236.743042 316.403229,229.941986 269.664368,237.020966 
	C239.076630,241.653717 211.098831,252.650070 186.815689,271.823853 
	C135.801254,312.104523 114.284584,364.184052 128.315323,428.417175 
	C138.644958,475.706573 168.108139,509.216797 210.109024,532.079285 
	C227.000275,541.273743 244.765869,548.305481 264.570221,551.631714 
	C273.295441,552.707520 281.993256,554.274658 290.751221,554.762817 
	C313.012054,556.003845 334.989990,553.592285 356.236084,546.821106 
	C367.087982,543.362671 377.441254,538.339661 388.733063,533.926025 
M556.395203,497.836487 
	C559.148438,498.144989 561.904663,498.428802 564.654053,498.768311 
	C567.977173,499.178680 569.136597,497.667236 568.896973,494.452484 
	C568.686951,491.635620 568.797424,488.793701 568.794373,485.962799 
	C568.785706,477.901459 568.791382,469.840088 568.791382,461.778748 
	C571.945007,464.003082 573.890198,466.588257 575.821533,469.183746 
	C582.480225,478.131866 589.103516,487.106506 595.809814,496.018738 
	C597.627930,498.434845 605.613220,500.330292 608.105652,498.294128 
	C609.526245,497.133636 609.756897,493.983276 609.774048,491.723236 
	C609.900696,475.071350 609.646301,458.414551 609.951538,441.767334 
	C610.043823,436.736267 608.682190,434.937744 603.545593,435.260742 
	C597.050476,435.669189 597.029541,435.355804 597.030579,442.024323 
	C597.030945,444.522247 597.041260,447.020203 597.041687,449.518127 
	C597.043091,458.069244 597.042175,466.620331 597.042175,475.171448 
	C593.796509,472.432190 591.617554,469.376312 589.435181,466.322845 
	C582.756348,456.978149 576.012329,447.679138 569.424500,438.270721 
	C566.319153,433.835907 561.881958,435.345978 558.058105,435.957123 
	C557.013855,436.124023 556.006775,440.237549 555.992615,442.546051 
	C555.881287,460.695129 556.015259,478.845703 556.395203,497.836487 
M526.246765,293.499939 
	C526.258362,301.498718 526.327820,309.498047 526.249146,317.495941 
	C526.222656,320.190430 527.034058,321.420868 529.982971,321.341248 
	C537.975586,321.125488 545.977112,321.255066 553.971252,321.075409 
	C570.047363,320.714203 581.459473,310.177826 583.416321,294.034546 
	C585.501648,276.831848 576.845886,261.486237 561.411926,258.526398 
	C550.161255,256.368835 538.363098,257.066315 526.243347,256.462860 
	C526.243347,269.258209 526.243347,280.879089 526.246765,293.499939 
M1009.901855,262.586792 
	C1005.847961,258.684631 1000.966858,256.974213 995.385193,256.996857 
	C987.224243,257.029938 979.058838,257.149536 970.903687,256.927246 
	C967.344727,256.830231 965.900208,257.671051 965.946960,261.590363 
	C966.141785,277.910095 965.930420,294.234192 966.035522,310.555603 
	C966.108276,321.858612 966.230957,321.861755 977.594055,320.987732 
	C978.067261,320.951355 978.525085,320.713470 979.783813,320.323639 
	C979.783813,314.418091 979.713562,308.303223 979.838257,302.192352 
	C979.865906,300.837982 980.161194,298.954437 981.062683,298.255737 
	C983.484436,296.378845 989.810242,298.193481 991.446899,301.010254 
	C994.708984,306.624115 997.784119,312.349030 1001.151917,317.897308 
	C1002.001526,319.297058 1003.574951,321.028229 1004.970886,321.179962 
	C1009.022156,321.620300 1013.152222,321.335999 1018.556702,321.335999 
	C1015.558960,316.325195 1013.289612,312.531830 1011.020142,308.738525 
	C1008.638550,304.757935 1006.256714,300.777466 1003.903625,296.844727 
	C1017.502319,285.881256 1019.661255,274.263367 1009.901855,262.586792 
M1031.854980,370.575562 
	C1031.881226,382.560638 1031.992310,394.546509 1031.877563,406.530212 
	C1031.846680,409.760162 1032.884888,411.095490 1036.178101,410.849579 
	C1038.933960,410.643768 1041.717529,410.807343 1045.117798,410.807343 
	C1045.117798,402.836884 1045.117798,395.599640 1045.117798,388.497650 
	C1054.050293,386.983490 1054.160522,387.044281 1058.102417,393.797089 
	C1060.870850,398.539642 1063.607178,403.303894 1066.518677,407.957886 
	C1067.237549,409.107086 1068.526611,410.588196 1069.648560,410.674072 
	C1073.852295,410.995911 1078.095581,410.802887 1083.232178,410.802887 
	C1078.046265,402.248413 1073.435425,394.642456 1068.755371,386.922363 
	C1069.680054,386.286011 1070.187866,385.889008 1070.738403,385.564697 
	C1078.242310,381.145691 1082.004272,373.679016 1080.682739,364.934265 
	C1079.395386,356.415161 1074.755493,349.761017 1066.094727,348.668579 
	C1055.606079,347.345520 1044.891357,347.739349 1034.272705,347.674652 
	C1033.478271,347.669830 1032.026245,349.918335 1031.976807,351.162933 
	C1031.733032,357.301514 1031.858887,363.454834 1031.854980,370.575562 
M580.088989,360.511230 
	C580.088989,356.378326 580.088989,352.245392 580.088989,347.736816 
	C575.545532,347.736816 571.491516,347.736816 566.813110,347.736816 
	C566.813110,354.653442 566.726746,361.281525 566.853271,367.905518 
	C566.908203,370.783478 566.089233,372.204193 562.922363,372.129089 
	C556.430359,371.975037 549.931030,372.016327 543.436890,372.117279 
	C540.652832,372.160583 539.565735,371.034515 539.622559,368.267517 
	C539.735474,362.773529 539.498169,357.269165 539.719299,351.781708 
	C539.862610,348.223816 538.444397,346.912964 535.037109,347.264618 
	C533.718140,347.400696 532.361877,347.416382 531.044373,347.278564 
	C527.376831,346.894958 526.108337,348.393188 526.141174,352.120636 
	C526.302673,370.440399 526.225159,388.762177 526.269470,407.083160 
	C526.272156,408.193817 526.597290,409.303650 526.841003,410.848450 
	C529.342163,410.848450 531.666321,410.631592 533.934631,410.895050 
	C538.242188,411.395325 539.927856,409.901031 539.651611,405.376160 
	C539.307434,399.736877 539.497559,394.049896 539.777405,388.399384 
	C539.838806,387.158600 541.216064,384.964844 542.043457,384.937958 
	C550.129150,384.675537 558.226685,384.779877 566.894897,384.779877 
	C566.894897,393.747498 566.894897,401.993927 566.894897,410.863708 
	C570.093445,410.863708 572.730530,410.639923 575.314697,410.914154 
	C579.609741,411.369873 580.638672,409.499084 580.547852,405.462982 
	C580.218384,390.814911 580.215027,376.159454 580.088989,360.511230 
M837.050720,356.552551 
	C837.050720,353.641022 837.050720,350.729492 837.050720,347.749512 
	C832.252869,347.749512 828.357910,347.749512 824.052673,347.749512 
	C824.052673,368.109802 824.016846,388.061737 824.166626,408.012299 
	C824.173584,408.936432 825.771179,410.537476 826.750916,410.639252 
	C829.980469,410.974731 833.266602,410.765594 837.123291,410.765594 
	C837.123291,402.868317 837.019409,395.735657 837.218872,388.611511 
	C837.254883,387.324402 838.501587,384.994293 839.249512,384.969604 
	C847.306396,384.703888 855.375366,384.803955 863.940063,384.803955 
	C863.940063,391.504089 863.897339,397.304596 863.950195,403.104187 
	C864.026550,411.492126 862.378967,410.676208 872.081665,410.992462 
	C876.160828,411.125458 877.114563,409.657928 877.077087,405.838409 
	C876.903625,388.193054 877.004639,370.545013 876.976013,352.898041 
	C876.973145,351.152588 876.757141,349.407471 876.645386,347.741699 
	C872.141785,347.741699 868.242065,347.741699 863.869263,347.741699 
	C863.869263,351.483673 863.897217,354.789978 863.861511,358.095551 
	C863.825562,361.423096 863.724426,364.749878 863.655212,368.077057 
	C863.604431,370.521088 862.940186,372.184540 859.931152,372.126617 
	C853.440979,372.001678 846.945251,372.038818 840.454163,372.149261 
	C837.793457,372.194519 836.959106,370.996216 837.029602,368.520081 
	C837.133789,364.860504 837.050598,361.195587 837.050720,356.552551 
M1135.021851,373.369751 
	C1129.535889,373.266663 1124.049316,373.187927 1118.564087,373.055145 
	C1108.750366,372.817657 1109.980957,374.911346 1109.749878,363.827454 
	C1109.685181,360.718903 1110.869141,359.734558 1113.839478,359.834595 
	C1118.831055,360.002686 1123.831909,359.903656 1128.828857,359.905365 
	C1140.110962,359.909210 1140.114380,359.905884 1138.738037,348.634674 
	C1138.704102,348.356323 1138.377930,348.113617 1137.808350,347.335754 
	C1125.224976,347.335754 1112.265747,347.241882 1099.314087,347.507050 
	C1098.232666,347.529205 1096.296875,349.961639 1096.282227,351.291077 
	C1096.078247,369.777618 1096.203735,388.267578 1096.081055,406.755554 
	C1096.058716,410.117615 1097.329712,410.993561 1100.500000,410.950378 
	C1111.324585,410.802887 1122.152710,410.912048 1132.979492,410.907684 
	C1140.171753,410.904755 1140.064697,410.886780 1140.481812,403.550476 
	C1140.685669,399.968201 1139.527100,398.276428 1135.745605,398.381500 
	C1130.253296,398.534119 1124.751587,398.501343 1119.257080,398.388641 
	C1108.642700,398.170929 1110.083374,400.245148 1109.794922,388.713806 
	C1109.716919,385.592072 1110.948730,384.629181 1113.905518,384.746674 
	C1118.062866,384.911865 1122.232056,384.772614 1126.396240,384.766571 
	C1137.070923,384.751099 1137.070923,384.751770 1135.021851,373.369751 
M635.978943,373.409973 
	C630.992188,373.305664 626.005798,373.137970 621.018616,373.109833 
	C609.458252,373.044556 609.455200,373.071716 610.292725,361.347321 
	C610.313721,361.053192 610.580017,360.776642 611.080627,359.837952 
	C617.842407,359.837952 624.958557,359.867554 632.074341,359.830109 
	C640.168396,359.787567 640.009216,359.765472 639.804688,351.532379 
	C639.720459,348.143616 638.323669,347.301025 635.250488,347.329590 
	C624.089844,347.433228 612.926819,347.436035 601.766418,347.311859 
	C598.456970,347.275055 596.997986,348.217316 597.026489,351.837402 
	C597.170654,370.161194 597.171204,388.487244 597.038391,406.811188 
	C597.013428,410.256866 598.393982,410.971619 601.488770,410.936646 
	C613.315369,410.803070 625.144836,410.828217 636.972107,410.928284 
	C639.915344,410.953156 642.107422,410.401581 641.593323,406.913086 
	C641.133118,403.790283 643.744446,398.899414 637.409302,398.781921 
	C630.084839,398.646057 622.758362,398.602783 615.435547,398.412537 
	C614.011902,398.375580 611.422424,397.983429 611.370117,397.526337 
	C610.943115,393.794006 610.712891,389.975403 611.139893,386.265594 
	C611.220642,385.564117 614.476196,384.840576 616.283875,384.794373 
	C623.051758,384.621338 629.826660,384.725128 637.159180,384.725128 
	C636.961243,380.586609 636.804260,377.304047 635.978943,373.409973 
M634.405151,257.029663 
	C622.639282,257.029663 610.873352,257.029663 599.284363,257.029663 
	C598.896790,258.103790 598.586121,258.565582 598.583801,259.028900 
	C598.483337,278.671906 598.444031,298.315308 598.301575,317.957947 
	C598.277222,321.320129 600.394714,321.113800 602.639038,321.108948 
	C613.627136,321.085114 624.615234,321.070160 635.603271,321.089447 
	C643.500427,321.103302 643.359497,321.133514 643.130554,313.058777 
	C643.042725,309.962555 641.878357,309.002289 638.946594,309.068878 
	C633.289307,309.197327 627.626465,309.074768 621.965942,309.070526 
	C611.108826,309.062317 611.196106,309.072174 611.915161,298.158356 
	C612.087402,295.544006 613.069397,294.661255 615.541870,294.706787 
	C620.201721,294.792603 624.864380,294.710144 629.525818,294.730499 
	C639.901794,294.775787 639.905334,294.783661 638.739685,284.184052 
	C638.708496,283.900452 638.392029,283.648193 637.803528,282.791901 
	C629.642944,282.791901 621.069824,282.791901 612.352905,282.791901 
	C612.352905,277.990051 612.352905,273.791229 612.352905,269.104126 
	C619.214111,269.104126 625.675293,269.117523 632.136414,269.101074 
	C642.662415,269.074249 642.665588,269.065704 641.693176,258.422516 
	C641.666443,258.129517 641.392334,257.859100 640.921570,257.025970 
	C639.276550,257.025970 637.325439,257.025970 634.405151,257.029663 
M982.534668,447.775360 
	C987.700317,447.776062 992.868103,447.687836 998.030640,447.813934 
	C1000.733765,447.879913 1002.128296,447.045288 1001.876404,444.122467 
	C1001.719543,442.301941 1002.182373,440.352692 1001.684998,438.661835 
	C1001.320618,437.423401 999.861816,435.606873 998.865845,435.590698 
	C986.076538,435.383179 973.282776,435.453644 960.909424,435.453644 
	C960.413452,436.240479 960.251465,436.377594 960.250427,436.515869 
	C960.104858,456.305542 959.928162,476.095367 959.971558,495.884735 
	C959.973633,496.807159 961.933228,498.509064 963.001465,498.525452 
	C975.162537,498.711853 987.328613,498.709229 999.489868,498.527557 
	C1000.650085,498.510254 1002.633850,497.066864 1002.776978,496.075134 
	C1003.212952,493.053436 1002.935059,489.928741 1002.935059,486.352905 
	C995.378296,486.352905 988.575989,486.431793 981.776184,486.334229 
	C971.836182,486.191620 972.863403,488.379181 972.720276,476.833435 
	C972.680176,473.601898 974.140808,472.876221 976.973694,472.965515 
	C981.134705,473.096680 985.303955,472.978821 989.469604,472.952393 
	C999.781860,472.886963 999.785339,472.883270 998.754211,462.489258 
	C998.725952,462.204163 998.424988,461.946106 997.860168,461.066742 
	C991.126038,461.066742 983.997437,461.167938 976.876709,460.976501 
	C975.544983,460.940704 973.404358,460.019501 973.063599,459.020416 
	C970.450439,451.358093 973.085327,447.807770 981.046631,447.775177 
	C981.213257,447.774506 981.379883,447.775177 982.534668,447.775360 
M1031.900024,270.509277 
	C1031.886841,285.492828 1032.018799,300.478790 1031.768188,315.458344 
	C1031.697144,319.699585 1032.643188,321.327881 1037.236450,321.192535 
	C1048.381104,320.864288 1059.556519,320.752045 1070.690552,321.229889 
	C1076.448853,321.477020 1076.005615,318.430847 1076.239624,314.518890 
	C1076.508667,310.022156 1074.944214,308.780731 1070.578247,308.954926 
	C1062.312378,309.284760 1054.023804,309.050323 1045.119019,309.050323 
	C1045.119019,305.774658 1045.399292,302.959686 1045.056030,300.222900 
	C1044.483398,295.658722 1046.430908,294.494141 1050.693481,294.677460 
	C1057.624146,294.975525 1064.577148,294.757874 1071.688721,294.757874 
	C1071.688721,290.402557 1071.688721,286.857025 1071.688721,282.734985 
	C1062.750244,282.734985 1054.179077,282.734985 1045.508301,282.734985 
	C1045.508301,277.962311 1045.508301,273.776764 1045.508301,269.154541 
	C1053.234619,269.154541 1060.544922,269.163086 1067.855225,269.152252 
	C1076.084106,269.140076 1075.904419,269.134033 1075.833374,260.971924 
	C1075.802734,257.453033 1074.286865,256.877991 1071.279541,256.924927 
	C1062.291504,257.065216 1053.300049,256.975616 1044.309937,256.985931 
	C1031.814087,257.000244 1031.814087,257.004150 1031.900024,270.509277 
M903.723572,320.872681 
	C904.248962,320.268127 905.163574,319.709930 905.241943,319.052124 
	C906.579590,307.825439 913.601501,306.165070 923.431763,306.927673 
	C934.124023,307.757172 934.110107,307.126862 937.885925,317.126312 
	C938.448242,318.615356 939.827454,320.717041 941.038513,320.869598 
	C944.879517,321.353394 948.819824,321.048462 953.259888,321.048462 
	C952.691284,318.878723 952.481262,317.588654 952.020996,316.394989 
	C945.555481,299.625763 939.123230,282.843170 932.538208,266.120789 
	C928.891663,256.860565 928.768127,257.058777 918.832092,256.917084 
	C915.588501,256.870850 914.211609,257.997192 913.147644,260.963715 
	C909.159485,272.083008 904.856018,283.088806 900.720764,294.155884 
	C897.476746,302.838043 894.306458,311.547760 890.812622,321.035004 
	C895.345093,321.035004 899.110718,321.035004 903.723572,320.872681 
M670.674377,314.283508 
	C671.721619,308.600677 674.890137,306.121155 680.811218,307.085571 
	C683.405701,307.508148 686.126160,307.150513 688.789429,307.158966 
	C698.196716,307.188782 698.127686,307.216248 701.477600,316.265076 
	C702.109863,317.972931 703.365906,320.538055 704.626038,320.723450 
	C708.573730,321.304291 712.661011,320.936951 717.342529,320.936951 
	C716.399353,318.278748 715.838989,316.568359 715.190552,314.892059 
	C708.949463,298.757111 702.642212,282.647522 696.461060,266.489685 
	C692.786011,256.882965 692.871338,256.977966 682.498657,256.913422 
	C679.310852,256.893616 677.890747,257.935211 676.797974,260.955872 
	C671.875061,274.564423 666.622620,288.053345 661.554077,301.609772 
	C659.244629,307.786591 657.086121,314.019897 654.840271,320.280121 
	C665.468689,322.718292 667.851746,321.865601 670.674377,314.283508 
M705.632874,410.835449 
	C708.186829,410.835449 710.740723,410.835449 713.071899,410.835449 
	C713.277588,409.758545 713.376526,409.574860 713.328003,409.447327 
	C705.764648,389.560669 698.232117,369.661896 690.510132,349.836914 
	C690.065491,348.695374 688.162659,347.709747 686.784180,347.440247 
	C684.699646,347.032745 682.457764,347.509888 680.321533,347.268372 
	C676.681641,346.856842 675.072388,348.484497 673.885254,351.855286 
	C670.407959,361.729065 666.498901,371.450012 662.827515,381.256439 
	C659.237549,390.845459 655.731812,400.466034 651.916138,410.813141 
	C655.942200,410.813141 659.123962,411.194641 662.145447,410.664001 
	C663.843567,410.365784 666.036804,408.896912 666.707581,407.380646 
	C671.344727,396.899536 671.234802,396.850891 682.930847,396.902802 
	C683.429932,396.905029 683.929077,396.908234 684.428162,396.910492 
	C694.565796,396.956207 694.738220,396.893036 698.248291,406.475891 
	C699.491272,409.869354 701.188599,411.438690 705.632874,410.835449 
M975.370483,400.860840 
	C975.956177,397.973724 977.575684,396.704315 980.650818,396.901672 
	C983.964050,397.114288 987.304871,396.884155 990.633789,396.866730 
	C1000.742310,396.813843 1000.667480,396.847321 1004.500061,406.472260 
	C1005.155090,408.117310 1006.595093,410.414276 1007.953735,410.628754 
	C1011.623962,411.208069 1015.445801,410.827087 1019.936951,410.827087 
	C1019.011597,408.219147 1018.404968,406.374115 1017.707336,404.564209 
	C1011.484863,388.421600 1005.324280,372.254486 998.984680,356.157928 
	C994.853394,345.668274 997.247986,347.600555 985.993469,347.261902 
	C982.556274,347.158478 981.084656,348.542633 979.934265,351.691284 
	C973.370544,369.656555 966.562500,387.532562 959.857422,405.446350 
	C959.294861,406.949310 958.879028,408.507202 958.452454,409.857605 
	C958.888123,410.260742 958.992432,410.444366 959.123962,410.466553 
	C970.383606,412.365021 971.360718,411.821503 975.370483,400.860840 
M798.656921,498.602722 
	C798.804932,497.336090 799.432373,495.886810 799.029663,494.830017 
	C791.984192,476.338318 784.717529,457.930420 777.751038,439.409454 
	C776.405579,435.832306 774.224060,434.889404 770.926331,435.343048 
	C767.322327,435.838867 762.997986,433.619781 760.962341,439.274445 
	C755.218567,455.230164 749.028320,471.024963 743.041382,486.893494 
	C741.661255,490.551575 740.390686,494.251007 739.046082,497.997345 
	C750.424927,500.323395 751.807129,499.627289 755.544189,490.109406 
	C755.605103,489.954529 755.685913,489.803162 755.718506,489.642242 
	C756.356079,486.498322 758.238220,485.391663 761.439026,485.536346 
	C766.420959,485.761475 771.440125,485.870148 776.406311,485.512268 
	C780.379639,485.225952 782.402893,486.598114 783.780029,490.349915 
	C786.907166,498.869202 787.082825,498.805237 796.336975,498.756104 
	C796.836060,498.753448 797.334961,498.731171 798.656921,498.602722 
M824.183838,295.929535 
	C828.612244,312.240753 838.718750,320.869720 853.526245,322.047974 
	C867.080017,323.126465 880.483398,315.774567 882.395508,308.385040 
	C879.493408,306.187225 876.493958,303.915710 873.609192,301.731049 
	C861.009766,311.525238 850.920349,312.168640 843.108643,303.978302 
	C836.029358,296.555756 836.090149,281.984772 843.233093,274.180511 
	C850.509399,266.230499 860.230103,267.080902 873.359314,276.959045 
	C876.511108,274.795258 879.729248,272.585938 882.855652,270.439575 
	C877.277588,257.687683 858.163330,252.272003 843.317871,258.551910 
	C831.802673,263.423035 822.046814,274.734222 824.183838,295.929535 
M948.311523,400.039215 
	C945.591553,397.069733 942.871521,394.100281 940.250183,391.238525 
	C927.542908,401.131866 916.252502,401.660522 909.188721,393.373627 
	C902.750916,385.821136 903.169189,371.159607 910.019470,364.255951 
	C917.674072,356.541626 928.545166,357.707855 939.272583,367.522217 
	C942.437317,365.271149 945.632507,362.998413 948.743652,360.785431 
	C943.859741,348.887421 926.760071,344.075562 913.354004,348.180908 
	C897.748779,352.959625 890.580872,364.268524 891.173950,381.883087 
	C891.621155,395.166382 899.546204,405.856537 912.072327,410.073120 
	C925.009949,414.428223 939.990784,410.496033 948.311523,400.039215 
M944.116760,446.706299 
	C945.425171,443.215027 946.733521,439.723755 948.366943,435.365112 
	C944.964661,435.365112 942.637329,435.596710 940.373535,435.315857 
	C935.973938,434.770020 933.902283,436.546753 932.550781,440.815826 
	C928.983643,452.082672 924.874817,463.177795 920.998474,474.347046 
	C919.935913,477.408539 918.932434,480.490509 917.607544,484.440735 
	C916.777527,482.629333 916.302612,481.772369 915.979919,480.861481 
	C911.475647,468.148407 906.977661,455.433075 902.509277,442.707336 
	C899.830872,435.079376 894.023254,432.896362 886.436768,436.781525 
	C893.355713,454.784668 900.312256,472.782959 907.185486,490.813019 
	C910.685059,499.993011 908.584290,498.371124 918.139465,498.829224 
	C922.706665,499.048187 924.918152,497.601593 926.503296,493.206818 
	C932.039185,477.858704 938.038269,462.677704 944.116760,446.706299 
M742.837646,312.432129 
	C742.837646,307.154480 742.837646,301.876862 742.837646,296.947021 
	C743.758667,296.442719 744.039490,296.156403 744.324097,296.152557 
	C751.477600,296.055206 758.638550,295.765472 765.782654,295.995300 
	C770.307007,296.140839 770.144104,293.434448 769.825745,290.514771 
	C769.529236,287.795135 771.488831,283.668823 765.850647,283.952332 
	C761.533569,284.169464 757.195312,283.964874 752.866516,283.949951 
	C742.356812,283.913727 742.469299,283.917328 742.759155,273.545990 
	C742.844543,270.490448 743.912354,269.501984 746.874573,269.501587 
	C754.360901,269.500580 761.847107,269.161011 769.333679,269.147095 
	C772.101868,269.141968 773.289062,268.194489 773.121704,265.368530 
	C772.967712,262.767792 773.088989,260.150787 773.088989,257.325653 
	C758.225769,257.325653 744.017517,257.325653 729.199707,257.325653 
	C729.199707,259.462433 729.202087,261.244965 729.199280,263.027527 
	C729.174988,278.677551 728.979065,294.329773 729.178467,309.976959 
	C729.340210,322.669861 726.126831,321.089325 741.041748,320.940613 
	C741.482117,320.936218 741.918823,320.566925 742.837036,320.149811 
	C742.837036,317.987762 742.837036,315.695892 742.837646,312.432129 
M794.630859,396.492462 
	C794.629211,385.829803 794.736267,375.165405 794.562622,364.505554 
	C794.507263,361.107880 795.476929,359.573822 799.052185,359.831146 
	C802.034851,360.045776 805.073853,359.597229 808.039185,359.907318 
	C812.673706,360.391968 812.828064,357.618866 812.599060,354.327606 
	C812.373840,351.090912 813.882629,347.147156 807.875061,347.299713 
	C795.554260,347.612671 783.220032,347.384033 770.891296,347.394104 
	C763.053040,347.400482 763.234863,347.415649 763.126831,355.350189 
	C763.078613,358.891785 764.233582,360.083466 767.705750,359.891449 
	C771.967773,359.655792 776.252747,359.835266 781.107422,359.835266 
	C781.107422,362.302246 781.103821,364.093353 781.108032,365.884460 
	C781.136597,378.046539 781.088257,390.209473 781.221130,402.370422 
	C781.327332,412.084808 779.590576,410.649841 790.125305,410.969879 
	C794.059875,411.089355 795.073425,409.551666 794.733643,405.979492 
	C794.466431,403.170990 794.646667,400.319885 794.630859,396.492462 
M802.233887,435.527222 
	C801.407349,435.957397 799.889954,436.351562 799.865356,436.823517 
	C799.694214,440.106842 799.248718,443.589874 800.194336,446.599365 
	C800.517456,447.627563 804.570740,447.575500 806.939575,447.837402 
	C808.585144,448.019348 810.287964,448.078339 811.924316,447.870575 
	C816.117432,447.338257 817.304565,449.104279 817.243530,453.204132 
	C817.040283,466.848114 817.272095,480.497986 817.176025,494.144501 
	C817.152100,497.546021 818.271423,499.158295 821.800415,498.747894 
	C822.950378,498.614105 824.147522,498.580017 825.289673,498.739685 
	C829.493958,499.327545 830.683472,497.505585 830.628540,493.406738 
	C830.450256,480.095184 830.854065,466.774139 830.569946,453.466614 
	C830.467896,448.685913 832.137207,447.371552 836.563293,447.728333 
	C840.474304,448.043610 844.430786,447.794312 848.668945,447.794312 
	C848.772644,445.459351 848.892883,443.832916 848.908997,442.205444 
	C848.976074,435.417511 848.964539,435.405182 842.037720,435.415405 
	C829.055969,435.434540 816.074158,435.469360 802.233887,435.527222 
M682.496155,435.417206 
	C674.668213,435.445160 666.840271,435.472137 659.012329,435.501312 
	C652.107849,435.527069 652.434326,435.548401 652.022400,442.194916 
	C651.726562,446.968109 653.461548,448.445343 657.925354,447.912659 
	C660.059021,447.658051 662.277649,448.109253 664.409668,447.847809 
	C668.718506,447.319366 670.196167,448.825806 670.107544,453.328705 
	C669.842102,466.813965 670.193481,480.310760 669.978455,493.797852 
	C669.913574,497.867004 671.302368,499.290833 675.157837,498.714172 
	C675.809937,498.616638 676.499084,498.614502 677.152710,498.703278 
	C681.406311,499.281006 682.998169,497.730743 682.910156,493.194153 
	C682.654907,480.042053 682.867371,466.880646 682.920593,453.722992 
	C682.927795,451.947540 683.073303,450.172638 683.181335,447.817688 
	C686.743713,447.817688 689.865051,447.824249 692.986389,447.816376 
	C701.211792,447.795685 701.073242,447.798248 700.772888,439.549438 
	C700.658813,436.415924 699.275391,435.474518 696.484436,435.492065 
	C692.154480,435.519287 687.823975,435.450714 682.496155,435.417206 
M725.291016,357.570404 
	C725.294495,373.717712 725.437256,389.867035 725.205566,406.010956 
	C725.145874,410.172760 726.677979,411.106903 730.429138,410.953735 
	C736.578613,410.702698 742.745239,410.864868 748.904602,410.859222 
	C754.323425,410.854279 759.742188,410.858185 765.731506,410.858185 
	C765.731506,407.896332 765.530273,405.743713 765.773682,403.642578 
	C766.268982,399.367493 764.349426,398.137054 760.324951,398.320221 
	C754.843506,398.569794 749.326538,398.103394 743.852173,398.418976 
	C739.759155,398.654938 738.784424,397.049896 738.840881,393.244568 
	C739.033325,380.262695 738.935669,367.276367 738.922302,354.291718 
	C738.915161,347.377319 738.890625,347.377350 732.203308,347.386688 
	C725.309998,347.396301 725.309753,347.396301 725.293396,354.099945 
	C725.291382,354.932281 725.293030,355.764648 725.291016,357.570404 
M526.049377,459.500031 
	C526.060669,470.133026 526.059265,480.766052 526.087524,491.399017 
	C526.107361,498.868591 526.125366,498.868317 533.722595,498.749512 
	C534.220947,498.741730 534.723694,498.694855 535.217041,498.742340 
	C538.060669,499.015991 538.952209,497.649628 538.944214,494.921478 
	C538.889709,476.314026 539.005432,457.705597 538.807861,439.100220 
	C538.794739,437.863892 536.862366,436.180969 535.447510,435.558929 
	C534.054138,434.946320 532.173584,435.533722 530.524048,435.392639 
	C527.033508,435.094086 525.845581,436.635681 525.960388,440.060608 
	C526.166321,446.201141 526.036560,452.352966 526.049377,459.500031 
M1206.258789,782.647095 
	C1209.818237,780.804016 1213.377686,778.960938 1217.909058,776.614563 
	C1204.886841,772.883789 1197.130859,764.930420 1192.948853,752.707214 
	C1189.070190,765.179626 1180.829590,772.814819 1168.762939,777.076904 
	C1181.246582,780.990479 1188.770874,789.351318 1192.244385,799.951050 
	C1196.762573,794.260132 1201.210815,788.657349 1206.258789,782.647095 
M632.513123,498.731995 
	C639.792664,498.647949 639.720825,498.648804 639.639160,491.702240 
	C639.459045,476.388947 639.326599,461.074829 639.236938,445.760712 
	C639.172180,434.694519 639.216431,434.691071 628.163818,436.143097 
	C627.879089,436.180542 627.629456,436.484711 626.879089,436.991852 
	C626.879089,457.091461 626.879089,477.505310 626.879089,498.316498 
	C628.715088,498.479584 630.160767,498.608002 632.513123,498.731995 
M713.024841,474.500000 
	C713.024841,482.417084 713.024841,490.334167 713.024841,498.747406 
	C716.741760,498.747406 719.702209,498.664490 722.655640,498.772308 
	C725.257507,498.867310 726.150146,497.692108 726.139954,495.183685 
	C726.064453,476.547302 726.108337,457.910187 725.922729,439.275177 
	C725.911621,438.160675 724.354797,436.240814 723.334778,436.109192 
	C720.128723,435.695435 716.835510,435.956879 713.026917,435.956879 
	C713.026917,448.949280 713.026917,461.224640 713.024841,474.500000 
M861.977661,436.312775 
	C861.649353,438.212860 861.043945,440.111755 861.036011,442.013184 
	C860.964539,459.175781 861.181458,476.341980 860.881836,493.499603 
	C860.798279,498.284668 862.691101,499.162781 866.743896,498.848328 
	C870.440308,498.561523 874.322266,499.900146 874.137085,493.405304 
	C873.690735,477.754730 874.029297,462.082733 873.976868,446.419617 
	C873.940918,435.696686 873.884888,435.696869 861.977661,436.312775 
M579.373291,578.022278 
	C587.668579,577.441772 593.653870,572.979858 595.816650,565.763977 
	C598.383728,557.199219 596.058044,548.517944 589.992310,544.022461 
	C583.168152,538.964905 574.287231,538.696289 567.547363,543.343628 
	C561.286499,547.660522 558.103271,557.374756 560.351440,565.302856 
	C562.671448,573.484314 568.745361,577.745850 579.373291,578.022278 
M841.622681,540.487244 
	C837.308044,540.363586 832.988708,540.326660 828.680359,540.088989 
	C825.204285,539.897217 823.967773,541.431946 824.016296,544.820557 
	C824.149536,554.133057 824.142883,563.449036 824.055481,572.762390 
	C824.029236,575.561218 824.659607,577.020935 827.903320,577.062988 
	C831.376831,577.108032 832.253906,575.566345 832.003174,572.526184 
	C831.866943,570.873901 831.726990,569.151367 832.051636,567.554626 
	C832.302124,566.322266 833.166138,564.373108 833.947998,564.275940 
	C835.324585,564.104736 837.354248,564.682373 838.202698,565.701843 
	C839.986206,567.844666 841.344910,570.397034 842.582336,572.925903 
	C844.796570,577.451111 848.264343,577.737732 853.104370,576.253296 
	C851.110352,572.678467 849.056152,569.500488 847.576233,566.074402 
	C847.043152,564.840332 847.329712,562.518799 848.196350,561.529175 
	C855.401123,553.303101 853.044312,544.528809 841.622681,540.487244 
M710.738708,540.170227 
	C709.761597,541.058350 708.108398,541.833862 707.937988,542.856384 
	C707.483398,545.585144 707.355835,548.455872 707.672791,551.203918 
	C708.085144,554.778992 707.227112,556.240540 703.372498,555.465271 
	C700.180176,554.823120 695.456055,555.823730 694.006958,554.015625 
	C692.237244,551.807617 693.004639,547.425903 693.004578,543.984253 
	C693.004517,541.261780 692.132141,540.008789 689.265442,540.111389 
	C686.752380,540.201294 685.054993,540.816223 685.060913,543.735413 
	C685.081177,553.714111 684.955750,563.695251 685.192017,573.668274 
	C685.218506,574.786621 687.050903,576.571228 688.297852,576.829224 
	C693.786804,577.965271 692.948975,573.890930 692.967285,570.631409 
	C693.011047,562.837097 693.013062,562.837097 700.786255,562.855652 
	C707.630310,562.872009 707.812195,563.048584 707.892212,569.794678 
	C707.906067,570.958801 707.509583,572.342834 708.004395,573.236816 
	C708.785034,574.647156 709.960144,576.399475 711.326111,576.806641 
	C714.008545,577.606384 715.097717,575.934143 715.071472,573.183533 
	C714.977905,563.371704 715.142639,553.555237 714.862976,543.750366 
	C714.827942,542.522095 712.723389,541.352905 710.738708,540.170227 
M636.313110,568.381042 
	C636.541931,559.918213 636.908386,551.453735 636.812378,542.994629 
	C636.801270,542.018616 634.186523,540.285217 632.835144,540.338135 
	C631.548218,540.388550 629.327698,542.257019 629.257202,543.430603 
	C628.878845,549.734619 629.068909,556.071350 629.012939,562.396362 
	C628.960938,568.275513 626.936646,570.852661 622.344238,571.014099 
	C617.706360,571.177124 615.126221,568.222473 615.018982,562.341003 
	C614.909729,556.350281 614.885010,550.354858 614.996216,544.364746 
	C615.048157,541.569946 614.414001,540.072571 611.165649,540.037720 
	C607.786560,540.001587 606.856445,541.378906 606.944763,544.512939 
	C607.113464,550.500732 606.975342,556.496704 607.011353,562.488892 
	C607.063782,571.198181 610.348938,575.664673 617.938782,577.435120 
	C626.309448,579.387756 632.177612,576.709351 636.313110,568.381042 
M944.018738,569.914124 
	C945.354370,570.923035 947.456543,571.678284 947.889282,572.985962 
	C949.527527,577.937012 952.792053,577.448792 956.474854,576.453796 
	C956.599487,575.900940 956.816895,575.528687 956.722046,575.271729 
	C952.747131,564.504578 948.908691,553.680359 944.557251,543.066589 
	C943.945496,541.574585 940.827576,540.468140 938.829773,540.402832 
	C937.401794,540.356140 935.248352,542.037842 934.561707,543.489136 
	C932.217590,548.443848 930.268860,553.597290 928.376953,558.751099 
	C926.239563,564.573669 924.326782,570.478577 922.154907,576.818848 
	C926.020325,576.770508 929.663635,578.412903 930.858704,573.930603 
	C931.869019,570.140991 934.332275,569.575073 937.630737,569.869385 
	C939.448975,570.031555 941.293152,569.902100 944.018738,569.914124 
M775.562866,576.989136 
	C776.908508,576.812073 778.254211,576.635010 780.220886,576.376221 
	C775.749146,565.004089 771.697266,554.313171 767.246521,543.790955 
	C766.566589,542.183533 763.946289,540.296204 762.395996,540.437134 
	C760.473267,540.611816 758.298523,542.442566 757.024353,544.149109 
	C755.582825,546.079712 754.958740,548.643066 754.084778,550.970947 
	C750.957092,559.301453 747.874207,567.648682 744.654724,576.311279 
	C749.018005,577.249390 752.396851,578.249268 753.943848,573.048462 
	C754.344482,571.701416 756.560364,570.473877 758.175476,570.019409 
	C760.020874,569.500122 762.140686,570.058105 764.115906,569.875122 
	C767.824463,569.531616 770.571899,570.250122 771.572815,574.489258 
	C771.814331,575.512268 773.652100,576.158264 775.562866,576.989136 
M900.550049,570.954956 
	C894.689270,570.582703 891.465393,567.216003 890.415894,561.689514 
	C889.565186,557.210022 890.159485,552.864929 894.071289,549.981628 
	C899.877014,545.702271 905.305969,547.848999 910.173157,551.794678 
	C916.202271,547.820374 916.101013,545.655396 910.023438,542.495667 
	C898.111755,536.302734 885.069214,542.544739 882.364929,555.732727 
	C880.907654,562.839783 884.372070,571.440491 890.132263,575.015747 
	C897.129822,579.359009 906.039001,579.054626 912.107056,574.092896 
	C913.775208,572.728943 916.448730,571.285706 913.772583,568.540100 
	C911.877319,566.595764 910.073425,565.509460 907.457336,568.042664 
	C905.920227,569.531006 903.416199,570.020874 900.550049,570.954956 
M527.159424,544.809204 
	C523.361023,552.300537 524.857666,557.045715 532.255676,560.623901 
	C534.644958,561.779419 537.321228,562.426514 539.535339,563.828674 
	C540.979614,564.743225 541.827454,566.599487 542.942505,568.033936 
	C541.274414,569.044006 539.623291,570.837830 537.934204,570.874268 
	C535.602173,570.924438 533.048889,570.003174 530.940796,568.854797 
	C528.133484,567.325378 526.586792,568.835327 525.879028,570.843689 
	C525.481445,571.971680 526.355164,574.268860 527.398682,575.059692 
	C532.126648,578.642822 537.646301,578.825134 543.077271,577.237427 
	C547.460632,575.955994 550.646667,573.163391 551.019531,568.090698 
	C551.413818,562.727173 549.012817,559.145630 544.188965,557.118713 
	C541.436829,555.962402 538.494385,555.216919 535.846558,553.874390 
	C534.734863,553.310791 533.299988,551.426758 533.545227,550.594910 
	C533.931335,549.284790 535.454285,547.780151 536.786194,547.414124 
	C538.403748,546.969666 540.557373,547.146729 542.065918,547.891602 
	C546.135620,549.901062 548.187744,548.261902 549.658875,544.720337 
	C543.541199,538.520569 534.419312,538.368225 527.159424,544.809204 
M813.824097,546.160950 
	C814.924622,541.225586 812.827576,539.645386 807.997864,539.986938 
	C802.865601,540.349915 797.677307,539.912109 792.542786,540.258667 
	C791.300781,540.342529 789.174683,542.112061 789.149231,543.148010 
	C788.896179,553.454773 788.884644,563.773499 789.181641,574.078003 
	C789.210632,575.084167 791.711487,576.671326 793.155945,576.779907 
	C794.331177,576.868408 796.493591,575.326294 796.735229,574.191528 
	C797.477112,570.707642 796.219177,565.699036 798.166687,563.873596 
	C800.196716,561.970886 805.093506,563.335815 808.646179,562.735168 
	C809.889343,562.525085 811.460510,560.890869 811.829163,559.605164 
	C812.500427,557.263855 811.201721,555.897827 808.556152,556.011658 
	C806.065796,556.118958 803.560974,555.920349 801.073303,556.055420 
	C798.202576,556.211304 796.840576,555.296875 796.830688,552.131470 
	C796.820435,548.847595 798.072937,547.812866 801.262512,547.810852 
	C805.338867,547.808228 809.414856,547.270264 813.824097,546.160950 
M664.903381,561.505066 
	C664.907898,560.506287 664.907288,559.507507 664.917969,558.508789 
	C664.948181,555.680054 663.980286,552.157410 665.314636,550.229248 
	C666.508240,548.504578 670.416870,548.875244 672.781006,547.651794 
	C673.940369,547.051819 674.872253,544.929382 674.863647,543.502441 
	C674.856750,542.386169 673.273682,540.347229 672.337524,540.315979 
	C664.689758,540.060425 657.023865,540.037537 649.379150,540.340515 
	C648.237671,540.385742 646.501709,542.347290 646.205261,543.681091 
	C645.249451,547.981323 648.324524,548.249573 651.360474,547.880798 
	C655.692993,547.354614 657.281372,548.929199 657.050842,553.414490 
	C656.709534,560.054382 657.085022,566.727905 656.970398,573.383911 
	C656.919861,576.319336 658.264587,577.079224 660.916138,577.059082 
	C663.468811,577.039734 665.078918,576.520081 664.950867,573.484070 
	C664.796631,569.828247 664.904968,566.161377 664.903381,561.505066 
M812.170776,287.423798 
	C806.143982,287.090088 800.119812,286.546143 794.089722,286.469788 
	C783.948303,286.341370 783.813171,286.621094 785.282227,296.694061 
	C785.302307,296.831818 785.463745,296.948975 786.087341,297.777008 
	C791.626648,297.777008 797.708740,297.775787 803.790833,297.777313 
	C813.080811,297.779663 813.080811,297.780457 812.170776,287.423798 
M868.398193,540.151428 
	C864.618591,539.659668 862.949890,541.107666 863.033569,545.120605 
	C863.223755,554.245361 863.169556,563.377441 863.066772,572.504822 
	C863.033264,575.479004 863.642578,577.128357 867.161133,577.067627 
	C870.395264,577.011780 871.016357,575.552429 870.993835,572.767090 
	C870.917236,563.307312 871.070435,553.845276 870.940186,544.386780 
	C870.921082,543.000549 869.840271,541.628967 868.398193,540.151428 
z"/>
<path fill="#07673A" opacity="1.000000" stroke="none" 
	d="
M388.019897,534.023743 
	C377.441254,538.339661 367.087982,543.362671 356.236084,546.821106 
	C334.989990,553.592285 313.012054,556.003845 290.751221,554.762817 
	C281.993256,554.274658 273.295441,552.707520 264.312378,550.923828 
	C262.965149,538.472656 262.334839,526.663147 260.653290,515.005249 
	C259.068176,504.015930 255.558182,501.713898 244.395309,502.238037 
	C242.403519,502.331573 240.425842,502.692871 238.435852,502.862610 
	C230.482880,503.540955 222.486359,505.055756 214.581665,504.677856 
	C197.077881,503.840973 191.735382,496.646851 195.607895,480.733093 
	C196.353027,477.670959 196.063095,473.254517 194.310013,470.920227 
	C190.835022,466.292969 188.099548,462.243286 192.169617,457.110382 
	C186.941040,452.503967 186.895294,452.223572 189.580643,444.347900 
	C192.517548,435.734467 192.183624,435.086090 183.643021,432.733124 
	C182.680374,432.467896 181.732666,432.148254 180.778976,431.850800 
	C169.175964,428.232086 167.174469,422.780273 173.965347,412.647491 
	C176.648743,408.643555 179.792511,404.950348 182.671646,401.074768 
	C185.350586,397.468658 187.910553,393.773895 190.604034,390.178925 
	C196.058701,382.898560 197.113190,374.667358 195.775040,365.985138 
	C194.218506,355.886047 195.396118,345.960754 198.416138,336.400360 
	C209.354065,301.774384 235.076797,283.502411 268.730103,275.225189 
	C290.611969,269.843231 312.914978,270.018372 335.078003,274.605408 
	C355.981110,278.931702 374.941559,287.361206 390.800110,301.857788 
	C411.229401,320.532562 422.705780,343.396851 421.779999,371.574951 
	C421.169617,390.153076 414.065918,406.422424 403.442322,421.419983 
	C398.542480,428.337250 393.808289,435.418579 389.602417,442.770691 
	C381.396667,457.114716 377.049866,472.959259 378.680420,489.202820 
	C380.196228,504.303467 384.784363,519.095703 388.019897,534.023743 
M305.706573,353.383881 
	C304.906006,352.925201 304.109985,352.077484 303.304108,352.067993 
	C295.177368,351.972412 287.048187,351.961731 278.922150,352.086823 
	C277.958771,352.101654 277.010040,353.069977 275.854462,354.439178 
	C275.854462,364.030792 275.854462,373.622437 275.854462,383.945312 
	C265.404144,383.945312 255.480087,383.945312 244.705643,384.136505 
	C244.165070,384.878326 243.166870,385.612610 243.154510,386.363098 
	C243.027069,394.096771 242.963318,401.835449 243.153229,409.566040 
	C243.180664,410.683167 244.639633,411.765167 246.316193,412.939728 
	C256.018036,412.939728 265.719910,412.939728 275.947052,412.939728 
	C275.947052,423.260925 275.947052,432.789490 275.947052,442.908875 
	C286.210846,442.908875 295.942444,442.908875 306.347443,442.503143 
	C306.892639,440.649933 307.833008,438.812500 307.907928,436.940491 
	C308.120972,431.615753 308.301483,426.251892 307.887238,420.950928 
	C307.496307,415.948273 309.460022,414.572388 314.156647,414.901917 
	C319.297791,415.262573 324.488281,415.094727 329.647980,414.905029 
	C331.097260,414.851746 332.513885,413.910767 334.723145,413.010193 
	C335.045685,412.674805 335.648163,412.340942 335.649994,412.003815 
	C335.700897,402.679932 335.690796,393.355682 335.690796,383.802338 
	C332.525848,383.576477 329.774261,383.380127 326.795074,382.399506 
	C324.309052,381.936462 321.832336,381.135773 319.335480,381.067261 
	C306.686646,380.720276 307.046204,383.340027 306.968964,368.647125 
	C306.943298,363.763275 306.251343,358.882935 305.983337,354.045349 
	C305.983337,354.045349 305.934937,354.163116 305.706573,353.383881 
M348.471863,305.014709 
	C334.612305,298.183014 320.175049,294.087006 304.711609,294.898468 
	C304.711609,300.131195 304.711609,304.509766 304.711609,309.033295 
	C307.805695,309.330292 310.450623,309.495239 313.069794,309.850220 
	C328.569489,311.950867 342.742584,317.156494 354.571869,327.767212 
	C370.297791,341.873138 379.386688,359.164368 380.108612,380.561554 
	C380.149506,381.772491 381.503143,383.879669 382.391663,383.960236 
	C386.453613,384.328278 390.567657,384.121887 394.582336,384.121887 
	C397.029633,358.395355 381.757812,323.246857 348.471863,305.014709 
M346.144226,338.349091 
	C334.150848,328.350464 320.512085,323.059479 304.678558,323.093933 
	C304.678558,327.627258 304.678558,331.372894 304.678558,335.149475 
	C334.971283,337.607147 352.039673,353.413818 354.940674,383.664001 
	C359.005371,383.664001 362.879730,383.664001 366.998718,383.664001 
	C366.621796,365.479950 359.640137,350.800690 346.144226,338.349091 
z"/>
<path fill="#F6BB29" opacity="1.000000" stroke="none" 
	d="
M388.376465,533.974854 
	C384.784363,519.095703 380.196228,504.303467 378.680420,489.202820 
	C377.049866,472.959259 381.396667,457.114716 389.602417,442.770691 
	C393.808289,435.418579 398.542480,428.337250 403.442322,421.419983 
	C414.065918,406.422424 421.169617,390.153076 421.779999,371.574951 
	C422.705780,343.396851 411.229401,320.532562 390.800110,301.857788 
	C374.941559,287.361206 355.981110,278.931702 335.078003,274.605408 
	C312.914978,270.018372 290.611969,269.843231 268.730103,275.225189 
	C235.076797,283.502411 209.354065,301.774384 198.416138,336.400360 
	C195.396118,345.960754 194.218506,355.886047 195.775040,365.985138 
	C197.113190,374.667358 196.058701,382.898560 190.604034,390.178925 
	C187.910553,393.773895 185.350586,397.468658 182.671646,401.074768 
	C179.792511,404.950348 176.648743,408.643555 173.965347,412.647491 
	C167.174469,422.780273 169.175964,428.232086 180.778976,431.850800 
	C181.732666,432.148254 182.680374,432.467896 183.643021,432.733124 
	C192.183624,435.086090 192.517548,435.734467 189.580643,444.347900 
	C186.895294,452.223572 186.941040,452.503967 192.169617,457.110382 
	C188.099548,462.243286 190.835022,466.292969 194.310013,470.920227 
	C196.063095,473.254517 196.353027,477.670959 195.607895,480.733093 
	C191.735382,496.646851 197.077881,503.840973 214.581665,504.677856 
	C222.486359,505.055756 230.482880,503.540955 238.435852,502.862610 
	C240.425842,502.692871 242.403519,502.331573 244.395309,502.238037 
	C255.558182,501.713898 259.068176,504.015930 260.653290,515.005249 
	C262.334839,526.663147 262.965149,538.472656 264.004486,550.692383 
	C244.765869,548.305481 227.000275,541.273743 210.109024,532.079285 
	C168.108139,509.216797 138.644958,475.706573 128.315323,428.417175 
	C114.284584,364.184052 135.801254,312.104523 186.815689,271.823853 
	C211.098831,252.650070 239.076630,241.653717 269.664368,237.020966 
	C316.403229,229.941986 360.621155,236.743042 401.360199,261.329895 
	C436.633514,282.618073 462.161224,312.293671 472.968719,352.544708 
	C492.389465,424.874451 459.835815,496.734589 392.742401,531.916443 
	C391.418671,532.610596 390.070038,533.257202 388.376465,533.974854 
z"/>
<path fill="#9D1E1D" opacity="1.000000" stroke="none" 
	d="
M556.234436,497.416138 
	C556.015259,478.845703 555.881287,460.695129 555.992615,442.546051 
	C556.006775,440.237549 557.013855,436.124023 558.058105,435.957123 
	C561.881958,435.345978 566.319153,433.835907 569.424500,438.270721 
	C576.012329,447.679138 582.756348,456.978149 589.435181,466.322845 
	C591.617554,469.376312 593.796509,472.432190 597.042175,475.171448 
	C597.042175,466.620331 597.043091,458.069244 597.041687,449.518127 
	C597.041260,447.020203 597.030945,444.522247 597.030579,442.024323 
	C597.029541,435.355804 597.050476,435.669189 603.545593,435.260742 
	C608.682190,434.937744 610.043823,436.736267 609.951538,441.767334 
	C609.646301,458.414551 609.900696,475.071350 609.774048,491.723236 
	C609.756897,493.983276 609.526245,497.133636 608.105652,498.294128 
	C605.613220,500.330292 597.627930,498.434845 595.809814,496.018738 
	C589.103516,487.106506 582.480225,478.131866 575.821533,469.183746 
	C573.890198,466.588257 571.945007,464.003082 568.791382,461.778748 
	C568.791382,469.840088 568.785706,477.901459 568.794373,485.962799 
	C568.797424,488.793701 568.686951,491.635620 568.896973,494.452484 
	C569.136597,497.667236 567.977173,499.178680 564.654053,498.768311 
	C561.904663,498.428802 559.148438,498.144989 556.234436,497.416138 
z"/>
<path fill="#9D1E1D" opacity="1.000000" stroke="none" 
	d="
M526.245056,292.999939 
	C526.243347,280.879089 526.243347,269.258209 526.243347,256.462860 
	C538.363098,257.066315 550.161255,256.368835 561.411926,258.526398 
	C576.845886,261.486237 585.501648,276.831848 583.416321,294.034546 
	C581.459473,310.177826 570.047363,320.714203 553.971252,321.075409 
	C545.977112,321.255066 537.975586,321.125488 529.982971,321.341248 
	C527.034058,321.420868 526.222656,320.190430 526.249146,317.495941 
	C526.327820,309.498047 526.258362,301.498718 526.245056,292.999939 
M539.278687,272.941681 
	C539.260010,280.602203 539.212463,288.262817 539.228943,295.923279 
	C539.259583,310.193726 539.275085,310.193695 553.633850,308.895630 
	C562.925293,308.055695 569.103638,301.276733 569.898071,291.050354 
	C570.760315,279.949554 565.922058,272.016296 556.459839,270.156067 
	C551.781860,269.236389 546.863586,269.382996 542.056274,269.411713 
	C541.132141,269.417236 540.218201,271.121674 539.278687,272.941681 
z"/>
<path fill="#9D1D1D" opacity="1.000000" stroke="none" 
	d="
M1010.160034,262.842682 
	C1019.661255,274.263367 1017.502319,285.881256 1003.903625,296.844727 
	C1006.256714,300.777466 1008.638550,304.757935 1011.020142,308.738525 
	C1013.289612,312.531830 1015.558960,316.325195 1018.556702,321.335999 
	C1013.152222,321.335999 1009.022156,321.620300 1004.970886,321.179962 
	C1003.574951,321.028229 1002.001526,319.297058 1001.151917,317.897308 
	C997.784119,312.349030 994.708984,306.624115 991.446899,301.010254 
	C989.810242,298.193481 983.484436,296.378845 981.062683,298.255737 
	C980.161194,298.954437 979.865906,300.837982 979.838257,302.192352 
	C979.713562,308.303223 979.783813,314.418091 979.783813,320.323639 
	C978.525085,320.713470 978.067261,320.951355 977.594055,320.987732 
	C966.230957,321.861755 966.108276,321.858612 966.035522,310.555603 
	C965.930420,294.234192 966.141785,277.910095 965.946960,261.590363 
	C965.900208,257.671051 967.344727,256.830231 970.903687,256.927246 
	C979.058838,257.149536 987.224243,257.029938 995.385193,256.996857 
	C1000.966858,256.974213 1005.847961,258.684631 1010.160034,262.842682 
M1000.546814,282.843872 
	C1003.048218,277.153259 1002.595032,272.065002 998.233582,270.858673 
	C992.677551,269.321960 986.597595,269.679291 980.743530,269.220154 
	C980.229980,273.461761 979.513184,277.693756 979.312683,281.950134 
	C979.242188,283.446625 980.410645,286.315399 981.058533,286.328522 
	C987.518127,286.459381 994.326172,288.232361 1000.546814,282.843872 
z"/>
<path fill="#9C1E1D" opacity="1.000000" stroke="none" 
	d="
M1031.854736,370.089233 
	C1031.858887,363.454834 1031.733032,357.301514 1031.976807,351.162933 
	C1032.026245,349.918335 1033.478271,347.669830 1034.272705,347.674652 
	C1044.891357,347.739349 1055.606079,347.345520 1066.094727,348.668579 
	C1074.755493,349.761017 1079.395386,356.415161 1080.682739,364.934265 
	C1082.004272,373.679016 1078.242310,381.145691 1070.738403,385.564697 
	C1070.187866,385.889008 1069.680054,386.286011 1068.755371,386.922363 
	C1073.435425,394.642456 1078.046265,402.248413 1083.232178,410.802887 
	C1078.095581,410.802887 1073.852295,410.995911 1069.648560,410.674072 
	C1068.526611,410.588196 1067.237549,409.107086 1066.518677,407.957886 
	C1063.607178,403.303894 1060.870850,398.539642 1058.102417,393.797089 
	C1054.160522,387.044281 1054.050293,386.983490 1045.117798,388.497650 
	C1045.117798,395.599640 1045.117798,402.836884 1045.117798,410.807343 
	C1041.717529,410.807343 1038.933960,410.643768 1036.178101,410.849579 
	C1032.884888,411.095490 1031.846680,409.760162 1031.877563,406.530212 
	C1031.992310,394.546509 1031.881226,382.560638 1031.854736,370.089233 
M1050.633301,376.855988 
	C1053.795532,376.790833 1057.006226,377.048859 1060.108276,376.582977 
	C1064.493652,375.924377 1066.691772,372.899475 1066.881592,368.549866 
	C1067.074463,364.133026 1065.030640,360.768188 1060.627808,360.265320 
	C1055.610107,359.692200 1050.476685,360.132751 1044.995605,360.132751 
	C1044.995605,364.628326 1045.205566,368.612366 1044.935181,372.563538 
	C1044.677979,376.322662 1046.469360,377.247437 1050.633301,376.855988 
z"/>
<path fill="#9F1D1D" opacity="1.000000" stroke="none" 
	d="
M580.088867,361.009033 
	C580.215027,376.159454 580.218384,390.814911 580.547852,405.462982 
	C580.638672,409.499084 579.609741,411.369873 575.314697,410.914154 
	C572.730530,410.639923 570.093445,410.863708 566.894897,410.863708 
	C566.894897,401.993927 566.894897,393.747498 566.894897,384.779877 
	C558.226685,384.779877 550.129150,384.675537 542.043457,384.937958 
	C541.216064,384.964844 539.838806,387.158600 539.777405,388.399384 
	C539.497559,394.049896 539.307434,399.736877 539.651611,405.376160 
	C539.927856,409.901031 538.242188,411.395325 533.934631,410.895050 
	C531.666321,410.631592 529.342163,410.848450 526.841003,410.848450 
	C526.597290,409.303650 526.272156,408.193817 526.269470,407.083160 
	C526.225159,388.762177 526.302673,370.440399 526.141174,352.120636 
	C526.108337,348.393188 527.376831,346.894958 531.044373,347.278564 
	C532.361877,347.416382 533.718140,347.400696 535.037109,347.264618 
	C538.444397,346.912964 539.862610,348.223816 539.719299,351.781708 
	C539.498169,357.269165 539.735474,362.773529 539.622559,368.267517 
	C539.565735,371.034515 540.652832,372.160583 543.436890,372.117279 
	C549.931030,372.016327 556.430359,371.975037 562.922363,372.129089 
	C566.089233,372.204193 566.908203,370.783478 566.853271,367.905518 
	C566.726746,361.281525 566.813110,354.653442 566.813110,347.736816 
	C571.491516,347.736816 575.545532,347.736816 580.088989,347.736816 
	C580.088989,352.245392 580.088989,356.378326 580.088867,361.009033 
z"/>
<path fill="#9E1D1D" opacity="1.000000" stroke="none" 
	d="
M837.048950,357.042755 
	C837.050598,361.195587 837.133789,364.860504 837.029602,368.520081 
	C836.959106,370.996216 837.793457,372.194519 840.454163,372.149261 
	C846.945251,372.038818 853.440979,372.001678 859.931152,372.126617 
	C862.940186,372.184540 863.604431,370.521088 863.655212,368.077057 
	C863.724426,364.749878 863.825562,361.423096 863.861511,358.095551 
	C863.897217,354.789978 863.869263,351.483673 863.869263,347.741699 
	C868.242065,347.741699 872.141785,347.741699 876.645386,347.741699 
	C876.757141,349.407471 876.973145,351.152588 876.976013,352.898041 
	C877.004639,370.545013 876.903625,388.193054 877.077087,405.838409 
	C877.114563,409.657928 876.160828,411.125458 872.081665,410.992462 
	C862.378967,410.676208 864.026550,411.492126 863.950195,403.104187 
	C863.897339,397.304596 863.940063,391.504089 863.940063,384.803955 
	C855.375366,384.803955 847.306396,384.703888 839.249512,384.969604 
	C838.501587,384.994293 837.254883,387.324402 837.218872,388.611511 
	C837.019409,395.735657 837.123291,402.868317 837.123291,410.765594 
	C833.266602,410.765594 829.980469,410.974731 826.750916,410.639252 
	C825.771179,410.537476 824.173584,408.936432 824.166626,408.012299 
	C824.016846,388.061737 824.052673,368.109802 824.052673,347.749512 
	C828.357910,347.749512 832.252869,347.749512 837.050720,347.749512 
	C837.050720,350.729492 837.050720,353.641022 837.048950,357.042755 
z"/>
<path fill="#991E1D" opacity="1.000000" stroke="none" 
	d="
M1135.362549,373.674927 
	C1137.070923,384.751770 1137.070923,384.751099 1126.396240,384.766571 
	C1122.232056,384.772614 1118.062866,384.911865 1113.905518,384.746674 
	C1110.948730,384.629181 1109.716919,385.592072 1109.794922,388.713806 
	C1110.083374,400.245148 1108.642700,398.170929 1119.257080,398.388641 
	C1124.751587,398.501343 1130.253296,398.534119 1135.745605,398.381500 
	C1139.527100,398.276428 1140.685669,399.968201 1140.481812,403.550476 
	C1140.064697,410.886780 1140.171753,410.904755 1132.979492,410.907684 
	C1122.152710,410.912048 1111.324585,410.802887 1100.500000,410.950378 
	C1097.329712,410.993561 1096.058716,410.117615 1096.081055,406.755554 
	C1096.203735,388.267578 1096.078247,369.777618 1096.282227,351.291077 
	C1096.296875,349.961639 1098.232666,347.529205 1099.314087,347.507050 
	C1112.265747,347.241882 1125.224976,347.335754 1137.808350,347.335754 
	C1138.377930,348.113617 1138.704102,348.356323 1138.738037,348.634674 
	C1140.114380,359.905884 1140.110962,359.909210 1128.828857,359.905365 
	C1123.831909,359.903656 1118.831055,360.002686 1113.839478,359.834595 
	C1110.869141,359.734558 1109.685181,360.718903 1109.749878,363.827454 
	C1109.980957,374.911346 1108.750366,372.817657 1118.564087,373.055145 
	C1124.049316,373.187927 1129.535889,373.266663 1135.362549,373.674927 
z"/>
<path fill="#9D1D1C" opacity="1.000000" stroke="none" 
	d="
M636.313110,373.715729 
	C636.804260,377.304047 636.961243,380.586609 637.159180,384.725128 
	C629.826660,384.725128 623.051758,384.621338 616.283875,384.794373 
	C614.476196,384.840576 611.220642,385.564117 611.139893,386.265594 
	C610.712891,389.975403 610.943115,393.794006 611.370117,397.526337 
	C611.422424,397.983429 614.011902,398.375580 615.435547,398.412537 
	C622.758362,398.602783 630.084839,398.646057 637.409302,398.781921 
	C643.744446,398.899414 641.133118,403.790283 641.593323,406.913086 
	C642.107422,410.401581 639.915344,410.953156 636.972107,410.928284 
	C625.144836,410.828217 613.315369,410.803070 601.488770,410.936646 
	C598.393982,410.971619 597.013428,410.256866 597.038391,406.811188 
	C597.171204,388.487244 597.170654,370.161194 597.026489,351.837402 
	C596.997986,348.217316 598.456970,347.275055 601.766418,347.311859 
	C612.926819,347.436035 624.089844,347.433228 635.250488,347.329590 
	C638.323669,347.301025 639.720459,348.143616 639.804688,351.532379 
	C640.009216,359.765472 640.168396,359.787567 632.074341,359.830109 
	C624.958557,359.867554 617.842407,359.837952 611.080627,359.837952 
	C610.580017,360.776642 610.313721,361.053192 610.292725,361.347321 
	C609.455200,373.071716 609.458252,373.044556 621.018616,373.109833 
	C626.005798,373.137970 630.992188,373.305664 636.313110,373.715729 
z"/>
<path fill="#9E1E1D" opacity="1.000000" stroke="none" 
	d="
M634.889771,257.027832 
	C637.325439,257.025970 639.276550,257.025970 640.921570,257.025970 
	C641.392334,257.859100 641.666443,258.129517 641.693176,258.422516 
	C642.665588,269.065704 642.662415,269.074249 632.136414,269.101074 
	C625.675293,269.117523 619.214111,269.104126 612.352905,269.104126 
	C612.352905,273.791229 612.352905,277.990051 612.352905,282.791901 
	C621.069824,282.791901 629.642944,282.791901 637.803528,282.791901 
	C638.392029,283.648193 638.708496,283.900452 638.739685,284.184052 
	C639.905334,294.783661 639.901794,294.775787 629.525818,294.730499 
	C624.864380,294.710144 620.201721,294.792603 615.541870,294.706787 
	C613.069397,294.661255 612.087402,295.544006 611.915161,298.158356 
	C611.196106,309.072174 611.108826,309.062317 621.965942,309.070526 
	C627.626465,309.074768 633.289307,309.197327 638.946594,309.068878 
	C641.878357,309.002289 643.042725,309.962555 643.130554,313.058777 
	C643.359497,321.133514 643.500427,321.103302 635.603271,321.089447 
	C624.615234,321.070160 613.627136,321.085114 602.639038,321.108948 
	C600.394714,321.113800 598.277222,321.320129 598.301575,317.957947 
	C598.444031,298.315308 598.483337,278.671906 598.583801,259.028900 
	C598.586121,258.565582 598.896790,258.103790 599.284363,257.029663 
	C610.873352,257.029663 622.639282,257.029663 634.889771,257.027832 
z"/>
<path fill="#9C1F1D" opacity="1.000000" stroke="none" 
	d="
M982.040588,447.775269 
	C981.379883,447.775177 981.213257,447.774506 981.046631,447.775177 
	C973.085327,447.807770 970.450439,451.358093 973.063599,459.020416 
	C973.404358,460.019501 975.544983,460.940704 976.876709,460.976501 
	C983.997437,461.167938 991.126038,461.066742 997.860168,461.066742 
	C998.424988,461.946106 998.725952,462.204163 998.754211,462.489258 
	C999.785339,472.883270 999.781860,472.886963 989.469604,472.952393 
	C985.303955,472.978821 981.134705,473.096680 976.973694,472.965515 
	C974.140808,472.876221 972.680176,473.601898 972.720276,476.833435 
	C972.863403,488.379181 971.836182,486.191620 981.776184,486.334229 
	C988.575989,486.431793 995.378296,486.352905 1002.935059,486.352905 
	C1002.935059,489.928741 1003.212952,493.053436 1002.776978,496.075134 
	C1002.633850,497.066864 1000.650085,498.510254 999.489868,498.527557 
	C987.328613,498.709229 975.162537,498.711853 963.001465,498.525452 
	C961.933228,498.509064 959.973633,496.807159 959.971558,495.884735 
	C959.928162,476.095367 960.104858,456.305542 960.250427,436.515869 
	C960.251465,436.377594 960.413452,436.240479 960.909424,435.453644 
	C973.282776,435.453644 986.076538,435.383179 998.865845,435.590698 
	C999.861816,435.606873 1001.320618,437.423401 1001.684998,438.661835 
	C1002.182373,440.352692 1001.719543,442.301941 1001.876404,444.122467 
	C1002.128296,447.045288 1000.733765,447.879913 998.030640,447.813934 
	C992.868103,447.687836 987.700317,447.776062 982.040588,447.775269 
z"/>
<path fill="#9D1E1E" opacity="1.000000" stroke="none" 
	d="
M1031.896973,270.011292 
	C1031.814087,257.004150 1031.814087,257.000244 1044.309937,256.985931 
	C1053.300049,256.975616 1062.291504,257.065216 1071.279541,256.924927 
	C1074.286865,256.877991 1075.802734,257.453033 1075.833374,260.971924 
	C1075.904419,269.134033 1076.084106,269.140076 1067.855225,269.152252 
	C1060.544922,269.163086 1053.234619,269.154541 1045.508301,269.154541 
	C1045.508301,273.776764 1045.508301,277.962311 1045.508301,282.734985 
	C1054.179077,282.734985 1062.750244,282.734985 1071.688721,282.734985 
	C1071.688721,286.857025 1071.688721,290.402557 1071.688721,294.757874 
	C1064.577148,294.757874 1057.624146,294.975525 1050.693481,294.677460 
	C1046.430908,294.494141 1044.483398,295.658722 1045.056030,300.222900 
	C1045.399292,302.959686 1045.119019,305.774658 1045.119019,309.050323 
	C1054.023804,309.050323 1062.312378,309.284760 1070.578247,308.954926 
	C1074.944214,308.780731 1076.508667,310.022156 1076.239624,314.518890 
	C1076.005615,318.430847 1076.448853,321.477020 1070.690552,321.229889 
	C1059.556519,320.752045 1048.381104,320.864288 1037.236450,321.192535 
	C1032.643188,321.327881 1031.697144,319.699585 1031.768188,315.458344 
	C1032.018799,300.478790 1031.886841,285.492828 1031.896973,270.011292 
z"/>
<path fill="#9D1E1D" opacity="1.000000" stroke="none" 
	d="
M903.299927,320.953857 
	C899.110718,321.035004 895.345093,321.035004 890.812622,321.035004 
	C894.306458,311.547760 897.476746,302.838043 900.720764,294.155884 
	C904.856018,283.088806 909.159485,272.083008 913.147644,260.963715 
	C914.211609,257.997192 915.588501,256.870850 918.832092,256.917084 
	C928.768127,257.058777 928.891663,256.860565 932.538208,266.120789 
	C939.123230,282.843170 945.555481,299.625763 952.020996,316.394989 
	C952.481262,317.588654 952.691284,318.878723 953.259888,321.048462 
	C948.819824,321.048462 944.879517,321.353394 941.038513,320.869598 
	C939.827454,320.717041 938.448242,318.615356 937.885925,317.126312 
	C934.110107,307.126862 934.124023,307.757172 923.431763,306.927673 
	C913.601501,306.165070 906.579590,307.825439 905.241943,319.052124 
	C905.163574,319.709930 904.248962,320.268127 903.299927,320.953857 
M921.511841,296.204803 
	C924.217224,296.204803 926.922607,296.204803 930.372192,296.204803 
	C927.507141,287.809570 925.016663,280.511810 922.526123,273.214081 
	C922.083008,273.286377 921.639893,273.358704 921.196777,273.431000 
	C918.692078,280.713074 916.187439,287.995148 913.362122,296.209656 
	C916.388977,296.209656 918.479065,296.209656 921.511841,296.204803 
z"/>
<path fill="#9D1D1C" opacity="1.000000" stroke="none" 
	d="
M670.538452,314.654297 
	C667.851746,321.865601 665.468689,322.718292 654.840271,320.280121 
	C657.086121,314.019897 659.244629,307.786591 661.554077,301.609772 
	C666.622620,288.053345 671.875061,274.564423 676.797974,260.955872 
	C677.890747,257.935211 679.310852,256.893616 682.498657,256.913422 
	C692.871338,256.977966 692.786011,256.882965 696.461060,266.489685 
	C702.642212,282.647522 708.949463,298.757111 715.190552,314.892059 
	C715.838989,316.568359 716.399353,318.278748 717.342529,320.936951 
	C712.661011,320.936951 708.573730,321.304291 704.626038,320.723450 
	C703.365906,320.538055 702.109863,317.972931 701.477600,316.265076 
	C698.127686,307.216248 698.196716,307.188782 688.789429,307.158966 
	C686.126160,307.150513 683.405701,307.508148 680.811218,307.085571 
	C674.890137,306.121155 671.721619,308.600677 670.538452,314.654297 
M683.046570,278.601654 
	C681.067444,284.307648 679.088379,290.013672 677.000854,296.032135 
	C683.009277,296.032135 688.296265,296.032135 694.190735,296.032135 
	C691.315369,287.729523 688.708923,280.203522 685.659241,271.397430 
	C684.512634,274.513641 683.893555,276.196259 683.046570,278.601654 
z"/>
<path fill="#9D1D1C" opacity="1.000000" stroke="none" 
	d="
M705.187012,410.836334 
	C701.188599,411.438690 699.491272,409.869354 698.248291,406.475891 
	C694.738220,396.893036 694.565796,396.956207 684.428162,396.910492 
	C683.929077,396.908234 683.429932,396.905029 682.930847,396.902802 
	C671.234802,396.850891 671.344727,396.899536 666.707581,407.380646 
	C666.036804,408.896912 663.843567,410.365784 662.145447,410.664001 
	C659.123962,411.194641 655.942200,410.813141 651.916138,410.813141 
	C655.731812,400.466034 659.237549,390.845459 662.827515,381.256439 
	C666.498901,371.450012 670.407959,361.729065 673.885254,351.855286 
	C675.072388,348.484497 676.681641,346.856842 680.321533,347.268372 
	C682.457764,347.509888 684.699646,347.032745 686.784180,347.440247 
	C688.162659,347.709747 690.065491,348.695374 690.510132,349.836914 
	C698.232117,369.661896 705.764648,389.560669 713.328003,409.447327 
	C713.376526,409.574860 713.277588,409.758545 713.071899,410.835449 
	C710.740723,410.835449 708.186829,410.835449 705.187012,410.836334 
M684.149902,365.708221 
	C683.675842,364.701447 683.201782,363.694641 682.376221,361.941284 
	C679.464905,370.277740 676.812561,377.872498 674.067871,385.731812 
	C679.998901,385.731812 685.314880,385.731812 691.093201,385.731812 
	C688.719971,378.909912 686.545349,372.658997 684.149902,365.708221 
z"/>
<path fill="#9C1D1C" opacity="1.000000" stroke="none" 
	d="
M975.230774,401.234772 
	C971.360718,411.821503 970.383606,412.365021 959.123962,410.466553 
	C958.992432,410.444366 958.888123,410.260742 958.452454,409.857605 
	C958.879028,408.507202 959.294861,406.949310 959.857422,405.446350 
	C966.562500,387.532562 973.370544,369.656555 979.934265,351.691284 
	C981.084656,348.542633 982.556274,347.158478 985.993469,347.261902 
	C997.247986,347.600555 994.853394,345.668274 998.984680,356.157928 
	C1005.324280,372.254486 1011.484863,388.421600 1017.707336,404.564209 
	C1018.404968,406.374115 1019.011597,408.219147 1019.936951,410.827087 
	C1015.445801,410.827087 1011.623962,411.208069 1007.953735,410.628754 
	C1006.595093,410.414276 1005.155090,408.117310 1004.500061,406.472260 
	C1000.667480,396.847321 1000.742310,396.813843 990.633789,396.866730 
	C987.304871,396.884155 983.964050,397.114288 980.650818,396.901672 
	C977.575684,396.704315 975.956177,397.973724 975.230774,401.234772 
M993.968079,376.513367 
	C992.330017,371.957611 990.691895,367.401886 988.591736,361.561188 
	C985.632935,370.490936 983.164185,377.941559 980.580872,385.737976 
	C986.505310,385.737976 991.521484,385.737976 997.113892,385.737976 
	C996.018494,382.554199 995.108826,379.910370 993.968079,376.513367 
z"/>
<path fill="#9D1E1D" opacity="1.000000" stroke="none" 
	d="
M798.245483,498.660370 
	C797.334961,498.731171 796.836060,498.753448 796.336975,498.756104 
	C787.082825,498.805237 786.907166,498.869202 783.780029,490.349915 
	C782.402893,486.598114 780.379639,485.225952 776.406311,485.512268 
	C771.440125,485.870148 766.420959,485.761475 761.439026,485.536346 
	C758.238220,485.391663 756.356079,486.498322 755.718506,489.642242 
	C755.685913,489.803162 755.605103,489.954529 755.544189,490.109406 
	C751.807129,499.627289 750.424927,500.323395 739.046082,497.997345 
	C740.390686,494.251007 741.661255,490.551575 743.041382,486.893494 
	C749.028320,471.024963 755.218567,455.230164 760.962341,439.274445 
	C762.997986,433.619781 767.322327,435.838867 770.926331,435.343048 
	C774.224060,434.889404 776.405579,435.832306 777.751038,439.409454 
	C784.717529,457.930420 791.984192,476.338318 799.029663,494.830017 
	C799.432373,495.886810 798.804932,497.336090 798.245483,498.660370 
M774.929871,474.756165 
	C775.507324,473.533997 776.711548,472.209015 776.531372,471.111206 
	C776.161072,468.854980 775.016479,466.731995 774.250854,464.533142 
	C772.728149,460.160431 771.246277,455.773529 769.747559,451.392487 
	C769.370056,451.475250 768.992554,451.558014 768.615051,451.640778 
	C766.108337,459.102020 763.601624,466.563232 760.836304,474.794098 
	C765.816162,474.794098 769.933411,474.794098 774.929871,474.756165 
z"/>
<path fill="#9C1D1C" opacity="1.000000" stroke="none" 
	d="
M824.138916,295.484741 
	C822.046814,274.734222 831.802673,263.423035 843.317871,258.551910 
	C858.163330,252.272003 877.277588,257.687683 882.855652,270.439575 
	C879.729248,272.585938 876.511108,274.795258 873.359314,276.959045 
	C860.230103,267.080902 850.509399,266.230499 843.233093,274.180511 
	C836.090149,281.984772 836.029358,296.555756 843.108643,303.978302 
	C850.920349,312.168640 861.009766,311.525238 873.609192,301.731049 
	C876.493958,303.915710 879.493408,306.187225 882.395508,308.385040 
	C880.483398,315.774567 867.080017,323.126465 853.526245,322.047974 
	C838.718750,320.869720 828.612244,312.240753 824.138916,295.484741 
z"/>
<path fill="#9C1D1C" opacity="1.000000" stroke="none" 
	d="
M948.150513,400.342346 
	C939.990784,410.496033 925.009949,414.428223 912.072327,410.073120 
	C899.546204,405.856537 891.621155,395.166382 891.173950,381.883087 
	C890.580872,364.268524 897.748779,352.959625 913.354004,348.180908 
	C926.760071,344.075562 943.859741,348.887421 948.743652,360.785431 
	C945.632507,362.998413 942.437317,365.271149 939.272583,367.522217 
	C928.545166,357.707855 917.674072,356.541626 910.019470,364.255951 
	C903.169189,371.159607 902.750916,385.821136 909.188721,393.373627 
	C916.252502,401.660522 927.542908,401.131866 940.250183,391.238525 
	C942.871521,394.100281 945.591553,397.069733 948.150513,400.342346 
z"/>
<path fill="#9C1E1D" opacity="1.000000" stroke="none" 
	d="
M943.989014,447.069763 
	C938.038269,462.677704 932.039185,477.858704 926.503296,493.206818 
	C924.918152,497.601593 922.706665,499.048187 918.139465,498.829224 
	C908.584290,498.371124 910.685059,499.993011 907.185486,490.813019 
	C900.312256,472.782959 893.355713,454.784668 886.436768,436.781525 
	C894.023254,432.896362 899.830872,435.079376 902.509277,442.707336 
	C906.977661,455.433075 911.475647,468.148407 915.979919,480.861481 
	C916.302612,481.772369 916.777527,482.629333 917.607544,484.440735 
	C918.932434,480.490509 919.935913,477.408539 920.998474,474.347046 
	C924.874817,463.177795 928.983643,452.082672 932.550781,440.815826 
	C933.902283,436.546753 935.973938,434.770020 940.373535,435.315857 
	C942.637329,435.596710 944.964661,435.365112 948.366943,435.365112 
	C946.733521,439.723755 945.425171,443.215027 943.989014,447.069763 
z"/>
<path fill="#9C1D1C" opacity="1.000000" stroke="none" 
	d="
M742.837341,312.918091 
	C742.837036,315.695892 742.837036,317.987762 742.837036,320.149811 
	C741.918823,320.566925 741.482117,320.936218 741.041748,320.940613 
	C726.126831,321.089325 729.340210,322.669861 729.178467,309.976959 
	C728.979065,294.329773 729.174988,278.677551 729.199280,263.027527 
	C729.202087,261.244965 729.199707,259.462433 729.199707,257.325653 
	C744.017517,257.325653 758.225769,257.325653 773.088989,257.325653 
	C773.088989,260.150787 772.967712,262.767792 773.121704,265.368530 
	C773.289062,268.194489 772.101868,269.141968 769.333679,269.147095 
	C761.847107,269.161011 754.360901,269.500580 746.874573,269.501587 
	C743.912354,269.501984 742.844543,270.490448 742.759155,273.545990 
	C742.469299,283.917328 742.356812,283.913727 752.866516,283.949951 
	C757.195312,283.964874 761.533569,284.169464 765.850647,283.952332 
	C771.488831,283.668823 769.529236,287.795135 769.825745,290.514771 
	C770.144104,293.434448 770.307007,296.140839 765.782654,295.995300 
	C758.638550,295.765472 751.477600,296.055206 744.324097,296.152557 
	C744.039490,296.156403 743.758667,296.442719 742.837646,296.947021 
	C742.837646,301.876862 742.837646,307.154480 742.837341,312.918091 
z"/>
<path fill="#9D1E1D" opacity="1.000000" stroke="none" 
	d="
M794.629517,396.990082 
	C794.646667,400.319885 794.466431,403.170990 794.733643,405.979492 
	C795.073425,409.551666 794.059875,411.089355 790.125305,410.969879 
	C779.590576,410.649841 781.327332,412.084808 781.221130,402.370422 
	C781.088257,390.209473 781.136597,378.046539 781.108032,365.884460 
	C781.103821,364.093353 781.107422,362.302246 781.107422,359.835266 
	C776.252747,359.835266 771.967773,359.655792 767.705750,359.891449 
	C764.233582,360.083466 763.078613,358.891785 763.126831,355.350189 
	C763.234863,347.415649 763.053040,347.400482 770.891296,347.394104 
	C783.220032,347.384033 795.554260,347.612671 807.875061,347.299713 
	C813.882629,347.147156 812.373840,351.090912 812.599060,354.327606 
	C812.828064,357.618866 812.673706,360.391968 808.039185,359.907318 
	C805.073853,359.597229 802.034851,360.045776 799.052185,359.831146 
	C795.476929,359.573822 794.507263,361.107880 794.562622,364.505554 
	C794.736267,375.165405 794.629211,385.829803 794.629517,396.990082 
z"/>
<path fill="#9C1D1C" opacity="1.000000" stroke="none" 
	d="
M802.663147,435.512451 
	C816.074158,435.469360 829.055969,435.434540 842.037720,435.415405 
	C848.964539,435.405182 848.976074,435.417511 848.908997,442.205444 
	C848.892883,443.832916 848.772644,445.459351 848.668945,447.794312 
	C844.430786,447.794312 840.474304,448.043610 836.563293,447.728333 
	C832.137207,447.371552 830.467896,448.685913 830.569946,453.466614 
	C830.854065,466.774139 830.450256,480.095184 830.628540,493.406738 
	C830.683472,497.505585 829.493958,499.327545 825.289673,498.739685 
	C824.147522,498.580017 822.950378,498.614105 821.800415,498.747894 
	C818.271423,499.158295 817.152100,497.546021 817.176025,494.144501 
	C817.272095,480.497986 817.040283,466.848114 817.243530,453.204132 
	C817.304565,449.104279 816.117432,447.338257 811.924316,447.870575 
	C810.287964,448.078339 808.585144,448.019348 806.939575,447.837402 
	C804.570740,447.575500 800.517456,447.627563 800.194336,446.599365 
	C799.248718,443.589874 799.694214,440.106842 799.865356,436.823517 
	C799.889954,436.351562 801.407349,435.957397 802.663147,435.512451 
z"/>
<path fill="#9C1D1C" opacity="1.000000" stroke="none" 
	d="
M682.994934,435.419983 
	C687.823975,435.450714 692.154480,435.519287 696.484436,435.492065 
	C699.275391,435.474518 700.658813,436.415924 700.772888,439.549438 
	C701.073242,447.798248 701.211792,447.795685 692.986389,447.816376 
	C689.865051,447.824249 686.743713,447.817688 683.181335,447.817688 
	C683.073303,450.172638 682.927795,451.947540 682.920593,453.722992 
	C682.867371,466.880646 682.654907,480.042053 682.910156,493.194153 
	C682.998169,497.730743 681.406311,499.281006 677.152710,498.703278 
	C676.499084,498.614502 675.809937,498.616638 675.157837,498.714172 
	C671.302368,499.290833 669.913574,497.867004 669.978455,493.797852 
	C670.193481,480.310760 669.842102,466.813965 670.107544,453.328705 
	C670.196167,448.825806 668.718506,447.319366 664.409668,447.847809 
	C662.277649,448.109253 660.059021,447.658051 657.925354,447.912659 
	C653.461548,448.445343 651.726562,446.968109 652.022400,442.194916 
	C652.434326,435.548401 652.107849,435.527069 659.012329,435.501312 
	C666.840271,435.472137 674.668213,435.445160 682.994934,435.419983 
z"/>
<path fill="#9D1E1D" opacity="1.000000" stroke="none" 
	d="
M725.291992,357.083679 
	C725.293030,355.764648 725.291382,354.932281 725.293396,354.099945 
	C725.309753,347.396301 725.309998,347.396301 732.203308,347.386688 
	C738.890625,347.377350 738.915161,347.377319 738.922302,354.291718 
	C738.935669,367.276367 739.033325,380.262695 738.840881,393.244568 
	C738.784424,397.049896 739.759155,398.654938 743.852173,398.418976 
	C749.326538,398.103394 754.843506,398.569794 760.324951,398.320221 
	C764.349426,398.137054 766.268982,399.367493 765.773682,403.642578 
	C765.530273,405.743713 765.731506,407.896332 765.731506,410.858185 
	C759.742188,410.858185 754.323425,410.854279 748.904602,410.859222 
	C742.745239,410.864868 736.578613,410.702698 730.429138,410.953735 
	C726.677979,411.106903 725.145874,410.172760 725.205566,406.010956 
	C725.437256,389.867035 725.294495,373.717712 725.291992,357.083679 
z"/>
<path fill="#9C1F1D" opacity="1.000000" stroke="none" 
	d="
M526.048218,459.000061 
	C526.036560,452.352966 526.166321,446.201141 525.960388,440.060608 
	C525.845581,436.635681 527.033508,435.094086 530.524048,435.392639 
	C532.173584,435.533722 534.054138,434.946320 535.447510,435.558929 
	C536.862366,436.180969 538.794739,437.863892 538.807861,439.100220 
	C539.005432,457.705597 538.889709,476.314026 538.944214,494.921478 
	C538.952209,497.649628 538.060669,499.015991 535.217041,498.742340 
	C534.723694,498.694855 534.220947,498.741730 533.722595,498.749512 
	C526.125366,498.868317 526.107361,498.868591 526.087524,491.399017 
	C526.059265,480.766052 526.060669,470.133026 526.048218,459.000061 
z"/>
<path fill="#7D7D7D" opacity="1.000000" stroke="none" 
	d="
M1205.958984,782.850830 
	C1201.210815,788.657349 1196.762573,794.260132 1192.244385,799.951050 
	C1188.770874,789.351318 1181.246582,780.990479 1168.762939,777.076904 
	C1180.829590,772.814819 1189.070190,765.179626 1192.948853,752.707214 
	C1197.130859,764.930420 1204.886841,772.883789 1217.909058,776.614563 
	C1213.377686,778.960938 1209.818237,780.804016 1205.958984,782.850830 
z"/>
<path fill="#A21E1E" opacity="1.000000" stroke="none" 
	d="
M632.059814,498.734192 
	C630.160767,498.608002 628.715088,498.479584 626.879089,498.316498 
	C626.879089,477.505310 626.879089,457.091461 626.879089,436.991852 
	C627.629456,436.484711 627.879089,436.180542 628.163818,436.143097 
	C639.216431,434.691071 639.172180,434.694519 639.236938,445.760712 
	C639.326599,461.074829 639.459045,476.388947 639.639160,491.702240 
	C639.720825,498.648804 639.792664,498.647949 632.059814,498.734192 
z"/>
<path fill="#9E1D1D" opacity="1.000000" stroke="none" 
	d="
M713.025879,474.000000 
	C713.026917,461.224640 713.026917,448.949280 713.026917,435.956879 
	C716.835510,435.956879 720.128723,435.695435 723.334778,436.109192 
	C724.354797,436.240814 725.911621,438.160675 725.922729,439.275177 
	C726.108337,457.910187 726.064453,476.547302 726.139954,495.183685 
	C726.150146,497.692108 725.257507,498.867310 722.655640,498.772308 
	C719.702209,498.664490 716.741760,498.747406 713.024841,498.747406 
	C713.024841,490.334167 713.024841,482.417084 713.025879,474.000000 
z"/>
<path fill="#9C1F1D" opacity="1.000000" stroke="none" 
	d="
M862.416748,436.172363 
	C873.884888,435.696869 873.940918,435.696686 873.976868,446.419617 
	C874.029297,462.082733 873.690735,477.754730 874.137085,493.405304 
	C874.322266,499.900146 870.440308,498.561523 866.743896,498.848328 
	C862.691101,499.162781 860.798279,498.284668 860.881836,493.499603 
	C861.181458,476.341980 860.964539,459.175781 861.036011,442.013184 
	C861.043945,440.111755 861.649353,438.212860 862.416748,436.172363 
z"/>
<path fill="#2E4721" opacity="1.000000" stroke="none" 
	d="
M578.932861,578.026611 
	C568.745361,577.745850 562.671448,573.484314 560.351440,565.302856 
	C558.103271,557.374756 561.286499,547.660522 567.547363,543.343628 
	C574.287231,538.696289 583.168152,538.964905 589.992310,544.022461 
	C596.058044,548.517944 598.383728,557.199219 595.816650,565.763977 
	C593.653870,572.979858 587.668579,577.441772 578.932861,578.026611 
M575.470520,547.878845 
	C569.483704,550.223206 566.957825,555.157104 568.093018,562.289856 
	C568.901184,567.367920 572.211731,570.677307 576.815308,571.078674 
	C581.168884,571.458130 584.590271,570.015747 586.942627,566.207275 
	C589.989258,561.274719 589.642944,556.271790 586.642822,551.661072 
	C584.300537,548.061279 580.579285,546.695251 575.470520,547.878845 
z"/>
<path fill="#2C441F" opacity="1.000000" stroke="none" 
	d="
M842.022827,540.611938 
	C853.044312,544.528809 855.401123,553.303101 848.196350,561.529175 
	C847.329712,562.518799 847.043152,564.840332 847.576233,566.074402 
	C849.056152,569.500488 851.110352,572.678467 853.104370,576.253296 
	C848.264343,577.737732 844.796570,577.451111 842.582336,572.925903 
	C841.344910,570.397034 839.986206,567.844666 838.202698,565.701843 
	C837.354248,564.682373 835.324585,564.104736 833.947998,564.275940 
	C833.166138,564.373108 832.302124,566.322266 832.051636,567.554626 
	C831.726990,569.151367 831.866943,570.873901 832.003174,572.526184 
	C832.253906,575.566345 831.376831,577.108032 827.903320,577.062988 
	C824.659607,577.020935 824.029236,575.561218 824.055481,572.762390 
	C824.142883,563.449036 824.149536,554.133057 824.016296,544.820557 
	C823.967773,541.431946 825.204285,539.897217 828.680359,540.088989 
	C832.988708,540.326660 837.308044,540.363586 842.022827,540.611938 
M843.100891,549.551270 
	C840.843445,548.731018 838.636414,547.568787 836.308594,547.225403 
	C835.020325,547.035522 832.416565,548.085449 832.331970,548.803345 
	C832.036011,551.316833 831.732971,555.485779 832.984497,556.164612 
	C835.264221,557.401123 838.905273,557.276428 841.476074,556.340332 
	C842.750610,555.876221 842.909607,552.348328 843.100891,549.551270 
z"/>
<path fill="#2E4721" opacity="1.000000" stroke="none" 
	d="
M711.158203,540.163269 
	C712.723389,541.352905 714.827942,542.522095 714.862976,543.750366 
	C715.142639,553.555237 714.977905,563.371704 715.071472,573.183533 
	C715.097717,575.934143 714.008545,577.606384 711.326111,576.806641 
	C709.960144,576.399475 708.785034,574.647156 708.004395,573.236816 
	C707.509583,572.342834 707.906067,570.958801 707.892212,569.794678 
	C707.812195,563.048584 707.630310,562.872009 700.786255,562.855652 
	C693.013062,562.837097 693.011047,562.837097 692.967285,570.631409 
	C692.948975,573.890930 693.786804,577.965271 688.297852,576.829224 
	C687.050903,576.571228 685.218506,574.786621 685.192017,573.668274 
	C684.955750,563.695251 685.081177,553.714111 685.060913,543.735413 
	C685.054993,540.816223 686.752380,540.201294 689.265442,540.111389 
	C692.132141,540.008789 693.004517,541.261780 693.004578,543.984253 
	C693.004639,547.425903 692.237244,551.807617 694.006958,554.015625 
	C695.456055,555.823730 700.180176,554.823120 703.372498,555.465271 
	C707.227112,556.240540 708.085144,554.778992 707.672791,551.203918 
	C707.355835,548.455872 707.483398,545.585144 707.937988,542.856384 
	C708.108398,541.833862 709.761597,541.058350 711.158203,540.163269 
z"/>
<path fill="#2D4621" opacity="1.000000" stroke="none" 
	d="
M636.191040,568.770508 
	C632.177612,576.709351 626.309448,579.387756 617.938782,577.435120 
	C610.348938,575.664673 607.063782,571.198181 607.011353,562.488892 
	C606.975342,556.496704 607.113464,550.500732 606.944763,544.512939 
	C606.856445,541.378906 607.786560,540.001587 611.165649,540.037720 
	C614.414001,540.072571 615.048157,541.569946 614.996216,544.364746 
	C614.885010,550.354858 614.909729,556.350281 615.018982,562.341003 
	C615.126221,568.222473 617.706360,571.177124 622.344238,571.014099 
	C626.936646,570.852661 628.960938,568.275513 629.012939,562.396362 
	C629.068909,556.071350 628.878845,549.734619 629.257202,543.430603 
	C629.327698,542.257019 631.548218,540.388550 632.835144,540.338135 
	C634.186523,540.285217 636.801270,542.018616 636.812378,542.994629 
	C636.908386,551.453735 636.541931,559.918213 636.191040,568.770508 
z"/>
<path fill="#2E4721" opacity="1.000000" stroke="none" 
	d="
M943.572205,569.909119 
	C941.293152,569.902100 939.448975,570.031555 937.630737,569.869385 
	C934.332275,569.575073 931.869019,570.140991 930.858704,573.930603 
	C929.663635,578.412903 926.020325,576.770508 922.154907,576.818848 
	C924.326782,570.478577 926.239563,564.573669 928.376953,558.751099 
	C930.268860,553.597290 932.217590,548.443848 934.561707,543.489136 
	C935.248352,542.037842 937.401794,540.356140 938.829773,540.402832 
	C940.827576,540.468140 943.945496,541.574585 944.557251,543.066589 
	C948.908691,553.680359 952.747131,564.504578 956.722046,575.271729 
	C956.816895,575.528687 956.599487,575.900940 956.474854,576.453796 
	C952.792053,577.448792 949.527527,577.937012 947.889282,572.985962 
	C947.456543,571.678284 945.354370,570.923035 943.572205,569.909119 
M942.635864,562.858093 
	C941.905640,558.774597 941.175354,554.691162 940.445129,550.607666 
	C939.898132,550.697144 939.351074,550.786682 938.804077,550.876160 
	C937.561096,554.662109 936.318115,558.448059 934.821594,563.006287 
	C937.683472,563.006287 939.771301,563.006287 942.635864,562.858093 
z"/>
<path fill="#2E4721" opacity="1.000000" stroke="none" 
	d="
M775.159302,576.983398 
	C773.652100,576.158264 771.814331,575.512268 771.572815,574.489258 
	C770.571899,570.250122 767.824463,569.531616 764.115906,569.875122 
	C762.140686,570.058105 760.020874,569.500122 758.175476,570.019409 
	C756.560364,570.473877 754.344482,571.701416 753.943848,573.048462 
	C752.396851,578.249268 749.018005,577.249390 744.654724,576.311279 
	C747.874207,567.648682 750.957092,559.301453 754.084778,550.970947 
	C754.958740,548.643066 755.582825,546.079712 757.024353,544.149109 
	C758.298523,542.442566 760.473267,540.611816 762.395996,540.437134 
	C763.946289,540.296204 766.566589,542.183533 767.246521,543.790955 
	C771.697266,554.313171 775.749146,565.004089 780.220886,576.376221 
	C778.254211,576.635010 776.908508,576.812073 775.159302,576.983398 
M759.156006,562.784546 
	C761.416748,562.784546 763.677551,562.784546 766.688293,562.784546 
	C765.277344,558.495850 764.004761,554.627686 762.732239,550.759521 
	C762.277710,550.758179 761.823181,550.756775 761.368652,550.755432 
	C760.415955,554.612305 759.463196,558.469177 759.156006,562.784546 
z"/>
<path fill="#2E4721" opacity="1.000000" stroke="none" 
	d="
M900.948608,570.957397 
	C903.416199,570.020874 905.920227,569.531006 907.457336,568.042664 
	C910.073425,565.509460 911.877319,566.595764 913.772583,568.540100 
	C916.448730,571.285706 913.775208,572.728943 912.107056,574.092896 
	C906.039001,579.054626 897.129822,579.359009 890.132263,575.015747 
	C884.372070,571.440491 880.907654,562.839783 882.364929,555.732727 
	C885.069214,542.544739 898.111755,536.302734 910.023438,542.495667 
	C916.101013,545.655396 916.202271,547.820374 910.173157,551.794678 
	C905.305969,547.848999 899.877014,545.702271 894.071289,549.981628 
	C890.159485,552.864929 889.565186,557.210022 890.415894,561.689514 
	C891.465393,567.216003 894.689270,570.582703 900.948608,570.957397 
z"/>
<path fill="#2D4621" opacity="1.000000" stroke="none" 
	d="
M527.379517,544.499390 
	C534.419312,538.368225 543.541199,538.520569 549.658875,544.720337 
	C548.187744,548.261902 546.135620,549.901062 542.065918,547.891602 
	C540.557373,547.146729 538.403748,546.969666 536.786194,547.414124 
	C535.454285,547.780151 533.931335,549.284790 533.545227,550.594910 
	C533.299988,551.426758 534.734863,553.310791 535.846558,553.874390 
	C538.494385,555.216919 541.436829,555.962402 544.188965,557.118713 
	C549.012817,559.145630 551.413818,562.727173 551.019531,568.090698 
	C550.646667,573.163391 547.460632,575.955994 543.077271,577.237427 
	C537.646301,578.825134 532.126648,578.642822 527.398682,575.059692 
	C526.355164,574.268860 525.481445,571.971680 525.879028,570.843689 
	C526.586792,568.835327 528.133484,567.325378 530.940796,568.854797 
	C533.048889,570.003174 535.602173,570.924438 537.934204,570.874268 
	C539.623291,570.837830 541.274414,569.044006 542.942505,568.033936 
	C541.827454,566.599487 540.979614,564.743225 539.535339,563.828674 
	C537.321228,562.426514 534.644958,561.779419 532.255676,560.623901 
	C524.857666,557.045715 523.361023,552.300537 527.379517,544.499390 
z"/>
<path fill="#2C441F" opacity="1.000000" stroke="none" 
	d="
M813.657593,546.561951 
	C809.414856,547.270264 805.338867,547.808228 801.262512,547.810852 
	C798.072937,547.812866 796.820435,548.847595 796.830688,552.131470 
	C796.840576,555.296875 798.202576,556.211304 801.073303,556.055420 
	C803.560974,555.920349 806.065796,556.118958 808.556152,556.011658 
	C811.201721,555.897827 812.500427,557.263855 811.829163,559.605164 
	C811.460510,560.890869 809.889343,562.525085 808.646179,562.735168 
	C805.093506,563.335815 800.196716,561.970886 798.166687,563.873596 
	C796.219177,565.699036 797.477112,570.707642 796.735229,574.191528 
	C796.493591,575.326294 794.331177,576.868408 793.155945,576.779907 
	C791.711487,576.671326 789.210632,575.084167 789.181641,574.078003 
	C788.884644,563.773499 788.896179,553.454773 789.149231,543.148010 
	C789.174683,542.112061 791.300781,540.342529 792.542786,540.258667 
	C797.677307,539.912109 802.865601,540.349915 807.997864,539.986938 
	C812.827576,539.645386 814.924622,541.225586 813.657593,546.561951 
z"/>
<path fill="#2E4721" opacity="1.000000" stroke="none" 
	d="
M664.901489,562.002197 
	C664.904968,566.161377 664.796631,569.828247 664.950867,573.484070 
	C665.078918,576.520081 663.468811,577.039734 660.916138,577.059082 
	C658.264587,577.079224 656.919861,576.319336 656.970398,573.383911 
	C657.085022,566.727905 656.709534,560.054382 657.050842,553.414490 
	C657.281372,548.929199 655.692993,547.354614 651.360474,547.880798 
	C648.324524,548.249573 645.249451,547.981323 646.205261,543.681091 
	C646.501709,542.347290 648.237671,540.385742 649.379150,540.340515 
	C657.023865,540.037537 664.689758,540.060425 672.337524,540.315979 
	C673.273682,540.347229 674.856750,542.386169 674.863647,543.502441 
	C674.872253,544.929382 673.940369,547.051819 672.781006,547.651794 
	C670.416870,548.875244 666.508240,548.504578 665.314636,550.229248 
	C663.980286,552.157410 664.948181,555.680054 664.917969,558.508789 
	C664.907288,559.507507 664.907898,560.506287 664.901489,562.002197 
z"/>
<path fill="#991E1D" opacity="1.000000" stroke="none" 
	d="
M812.335938,287.811401 
	C813.080811,297.780457 813.080811,297.779663 803.790833,297.777313 
	C797.708740,297.775787 791.626648,297.777008 786.087341,297.777008 
	C785.463745,296.948975 785.302307,296.831818 785.282227,296.694061 
	C783.813171,286.621094 783.948303,286.341370 794.089722,286.469788 
	C800.119812,286.546143 806.143982,287.090088 812.335938,287.811401 
z"/>
<path fill="#2E4721" opacity="1.000000" stroke="none" 
	d="
M868.824463,540.200989 
	C869.840271,541.628967 870.921082,543.000549 870.940186,544.386780 
	C871.070435,553.845276 870.917236,563.307312 870.993835,572.767090 
	C871.016357,575.552429 870.395264,577.011780 867.161133,577.067627 
	C863.642578,577.128357 863.033264,575.479004 863.066772,572.504822 
	C863.169556,563.377441 863.223755,554.245361 863.033569,545.120605 
	C862.949890,541.107666 864.618591,539.659668 868.824463,540.200989 
z"/>
<path fill="#FAFCFB" opacity="1.000000" stroke="none" 
	d="
M305.674011,442.908875 
	C295.942444,442.908875 286.210846,442.908875 275.947052,442.908875 
	C275.947052,432.789490 275.947052,423.260925 275.947052,412.939728 
	C265.719910,412.939728 256.018036,412.939728 245.903778,412.449402 
	C245.388351,407.524109 245.285324,403.089203 245.393127,398.277527 
	C245.509949,395.653809 245.415955,393.406769 245.452393,390.775604 
	C245.573898,388.242737 245.564972,386.094025 245.556030,383.945312 
	C255.480087,383.945312 265.404144,383.945312 275.854462,383.945312 
	C275.854462,373.622437 275.854462,364.030792 276.408508,354.041809 
	C286.620026,353.817352 296.277466,353.990234 305.934937,354.163116 
	C305.934937,354.163116 305.983337,354.045349 305.909576,354.494568 
	C305.835815,364.444305 305.835815,373.944763 305.835815,383.183777 
	C313.494873,383.183777 320.258759,383.183777 327.022675,383.183777 
	C329.774261,383.380127 332.525848,383.576477 335.690796,383.802338 
	C335.690796,393.355682 335.700897,402.679932 335.649994,412.003815 
	C335.648163,412.340942 335.045685,412.674805 333.881836,413.086670 
	C324.350647,413.198761 315.660767,413.234406 306.727417,413.179352 
	C306.366760,413.374329 306.249573,413.659973 306.018127,414.405457 
	C305.827240,424.213135 305.750641,433.561005 305.674011,442.908875 
z"/>
<path fill="#BB271F" opacity="1.000000" stroke="none" 
	d="
M348.798370,305.187531 
	C381.757812,323.246857 397.029633,358.395355 394.582336,384.121887 
	C390.567657,384.121887 386.453613,384.328278 382.391663,383.960236 
	C381.503143,383.879669 380.149506,381.772491 380.108612,380.561554 
	C379.386688,359.164368 370.297791,341.873138 354.571869,327.767212 
	C342.742584,317.156494 328.569489,311.950867 313.069794,309.850220 
	C310.450623,309.495239 307.805695,309.330292 304.711609,309.033295 
	C304.711609,304.509766 304.711609,300.131195 304.711609,294.898468 
	C320.175049,294.087006 334.612305,298.183014 348.798370,305.187531 
z"/>
<path fill="#F2BD2C" opacity="1.000000" stroke="none" 
	d="
M346.407837,338.587585 
	C359.640137,350.800690 366.621796,365.479950 366.998718,383.664001 
	C362.879730,383.664001 359.005371,383.664001 354.940674,383.664001 
	C352.039673,353.413818 334.971283,337.607147 304.678558,335.149475 
	C304.678558,331.372894 304.678558,327.627258 304.678558,323.093933 
	C320.512085,323.059479 334.150848,328.350464 346.407837,338.587585 
z"/>
<path fill="#054E27" opacity="1.000000" stroke="none" 
	d="
M306.010742,442.705994 
	C305.750641,433.561005 305.827240,424.213135 306.190430,414.337341 
	C306.704895,413.687531 306.869507,413.507721 306.970917,413.270020 
	C315.660767,413.234406 324.350647,413.198761 333.492981,413.270020 
	C332.513885,413.910767 331.097260,414.851746 329.647980,414.905029 
	C324.488281,415.094727 319.297791,415.262573 314.156647,414.901917 
	C309.460022,414.572388 307.496307,415.948273 307.887238,420.950928 
	C308.301483,426.251892 308.120972,431.615753 307.907928,436.940491 
	C307.833008,438.812500 306.892639,440.649933 306.010742,442.705994 
z"/>
<path fill="#054E27" opacity="1.000000" stroke="none" 
	d="
M326.908875,382.791626 
	C320.258759,383.183777 313.494873,383.183777 305.835815,383.183777 
	C305.835815,373.944763 305.835815,364.444305 305.849915,354.472412 
	C306.251343,358.882935 306.943298,363.763275 306.968964,368.647125 
	C307.046204,383.340027 306.686646,380.720276 319.335480,381.067261 
	C321.832336,381.135773 324.309052,381.936462 326.908875,382.791626 
z"/>
<path fill="#054E27" opacity="1.000000" stroke="none" 
	d="
M245.182312,398.654266 
	C245.285324,403.089203 245.388351,407.524109 245.463760,412.411224 
	C244.639633,411.765167 243.180664,410.683167 243.153229,409.566040 
	C242.963318,401.835449 243.027069,394.096771 243.154510,386.363098 
	C243.166870,385.612610 244.165070,384.878326 245.130829,384.040894 
	C245.564972,386.094025 245.573898,388.242737 245.313599,391.146973 
	C245.090363,394.153076 245.136337,396.403656 245.182312,398.654266 
z"/>
<path fill="#054E27" opacity="1.000000" stroke="none" 
	d="
M305.820740,353.773499 
	C296.277466,353.990234 286.620026,353.817352 276.508545,353.620361 
	C277.010040,353.069977 277.958771,352.101654 278.922150,352.086823 
	C287.048187,351.961731 295.177368,351.972412 303.304108,352.067993 
	C304.109985,352.077484 304.906006,352.925201 305.820740,353.773499 
z"/>
<path fill="#060202" opacity="1.000000" stroke="none" 
	d="
M539.289062,272.492004 
	C540.218201,271.121674 541.132141,269.417236 542.056274,269.411713 
	C546.863586,269.382996 551.781860,269.236389 556.459839,270.156067 
	C565.922058,272.016296 570.760315,279.949554 569.898071,291.050354 
	C569.103638,301.276733 562.925293,308.055695 553.633850,308.895630 
	C539.275085,310.193695 539.259583,310.193726 539.228943,295.923279 
	C539.212463,288.262817 539.260010,280.602203 539.289062,272.492004 
z"/>
<path fill="#090202" opacity="1.000000" stroke="none" 
	d="
M1000.303833,283.160156 
	C994.326172,288.232361 987.518127,286.459381 981.058533,286.328522 
	C980.410645,286.315399 979.242188,283.446625 979.312683,281.950134 
	C979.513184,277.693756 980.229980,273.461761 980.743530,269.220154 
	C986.597595,269.679291 992.677551,269.321960 998.233582,270.858673 
	C1002.595032,272.065002 1003.048218,277.153259 1000.303833,283.160156 
z"/>
<path fill="#060202" opacity="1.000000" stroke="none" 
	d="
M1050.165894,376.853516 
	C1046.469360,377.247437 1044.677979,376.322662 1044.935181,372.563538 
	C1045.205566,368.612366 1044.995605,364.628326 1044.995605,360.132751 
	C1050.476685,360.132751 1055.610107,359.692200 1060.627808,360.265320 
	C1065.030640,360.768188 1067.074463,364.133026 1066.881592,368.549866 
	C1066.691772,372.899475 1064.493652,375.924377 1060.108276,376.582977 
	C1057.006226,377.048859 1053.795532,376.790833 1050.165894,376.853516 
z"/>
<path fill="#090202" opacity="1.000000" stroke="none" 
	d="
M921.040527,296.207214 
	C918.479065,296.209656 916.388977,296.209656 913.362122,296.209656 
	C916.187439,287.995148 918.692078,280.713074 921.196777,273.431000 
	C921.639893,273.358704 922.083008,273.286377 922.526123,273.214081 
	C925.016663,280.511810 927.507141,287.809570 930.372192,296.204803 
	C926.922607,296.204803 924.217224,296.204803 921.040527,296.207214 
z"/>
<path fill="#090202" opacity="1.000000" stroke="none" 
	d="
M683.160522,278.240234 
	C683.893555,276.196259 684.512634,274.513641 685.659241,271.397430 
	C688.708923,280.203522 691.315369,287.729523 694.190735,296.032135 
	C688.296265,296.032135 683.009277,296.032135 677.000854,296.032135 
	C679.088379,290.013672 681.067444,284.307648 683.160522,278.240234 
z"/>
<path fill="#060202" opacity="1.000000" stroke="none" 
	d="
M684.260376,366.058167 
	C686.545349,372.658997 688.719971,378.909912 691.093201,385.731812 
	C685.314880,385.731812 679.998901,385.731812 674.067871,385.731812 
	C676.812561,377.872498 679.464905,370.277740 682.376221,361.941284 
	C683.201782,363.694641 683.675842,364.701447 684.260376,366.058167 
z"/>
<path fill="#090202" opacity="1.000000" stroke="none" 
	d="
M994.083618,376.889954 
	C995.108826,379.910370 996.018494,382.554199 997.113892,385.737976 
	C991.521484,385.737976 986.505310,385.737976 980.580872,385.737976 
	C983.164185,377.941559 985.632935,370.490936 988.591736,361.561188 
	C990.691895,367.401886 992.330017,371.957611 994.083618,376.889954 
z"/>
<path fill="#090202" opacity="1.000000" stroke="none" 
	d="
M774.490234,474.775146 
	C769.933411,474.794098 765.816162,474.794098 760.836304,474.794098 
	C763.601624,466.563232 766.108337,459.102020 768.615051,451.640778 
	C768.992554,451.558014 769.370056,451.475250 769.747559,451.392487 
	C771.246277,455.773529 772.728149,460.160431 774.250854,464.533142 
	C775.016479,466.731995 776.161072,468.854980 776.531372,471.111206 
	C776.711548,472.209015 775.507324,473.533997 774.490234,474.775146 
z"/>
<path fill="#020302" opacity="1.000000" stroke="none" 
	d="
M575.844604,547.795349 
	C580.579285,546.695251 584.300537,548.061279 586.642822,551.661072 
	C589.642944,556.271790 589.989258,561.274719 586.942627,566.207275 
	C584.590271,570.015747 581.168884,571.458130 576.815308,571.078674 
	C572.211731,570.677307 568.901184,567.367920 568.093018,562.289856 
	C566.957825,555.157104 569.483704,550.223206 575.844604,547.795349 
z"/>
<path fill="#020302" opacity="1.000000" stroke="none" 
	d="
M843.337097,549.878906 
	C842.909607,552.348328 842.750610,555.876221 841.476074,556.340332 
	C838.905273,557.276428 835.264221,557.401123 832.984497,556.164612 
	C831.732971,555.485779 832.036011,551.316833 832.331970,548.803345 
	C832.416565,548.085449 835.020325,547.035522 836.308594,547.225403 
	C838.636414,547.568787 840.843445,548.731018 843.337097,549.878906 
z"/>
<path fill="#020302" opacity="1.000000" stroke="none" 
	d="
M942.247559,562.932190 
	C939.771301,563.006287 937.683472,563.006287 934.821594,563.006287 
	C936.318115,558.448059 937.561096,554.662109 938.804077,550.876160 
	C939.351074,550.786682 939.898132,550.697144 940.445129,550.607666 
	C941.175354,554.691162 941.905640,558.774597 942.247559,562.932190 
z"/>
<path fill="#090202" opacity="1.000000" stroke="none" 
	d="
M758.833252,562.555298 
	C759.463196,558.469177 760.415955,554.612305 761.368652,550.755432 
	C761.823181,550.756775 762.277710,550.758179 762.732239,550.759521 
	C764.004761,554.627686 765.277344,558.495850 766.688293,562.784546 
	C763.677551,562.784546 761.416748,562.784546 758.833252,562.555298 
z"/>
<path fill="#07673A" opacity="1.000000" stroke="none" 
	d="
M245.393127,398.277527 
	C245.136337,396.403656 245.090363,394.153076 245.183167,391.531128 
	C245.415955,393.406769 245.509949,395.653809 245.393127,398.277527 
z"/>
<path fill="#07673A" opacity="1.000000" stroke="none" 
	d="
M306.727417,413.179352 
	C306.869507,413.507721 306.704895,413.687531 306.304749,413.877563 
	C306.249573,413.659973 306.366760,413.374329 306.727417,413.179352 
z"/>
</svg>